<svg width="607" height="726" viewBox="0 0 607 726" fill="none" xmlns="http://www.w3.org/2000/svg">
<path opacity="0.5" d="M282.746 111.281L10.6772 268.497C5.63522 271.415 1.57973 278.457 1.60165 284.227L2.01816 428.608C2.04008 434.4 6.1175 436.726 11.1595 433.83L282.768 276.877V111.281H282.746Z" fill="url(#paint0_linear)"/>
<path d="M244.534 167.95C244.512 162.158 240.435 159.832 235.393 162.728L33.6264 279.313C28.5844 282.231 24.5289 289.273 24.5509 295.043L24.9674 439.424C24.9893 445.216 29.0667 447.542 34.1087 444.646L235.875 328.061C240.917 325.143 244.972 318.101 244.95 312.331L244.534 167.95Z" fill="url(#paint1_linear)"/>
<path d="M163.421 226.988L165.766 225.628L163.026 243.267L160.79 244.561L160.988 243.245C160.133 244.583 159.058 245.702 157.743 246.47C155.266 247.896 153.315 247.15 153.293 243.947C153.271 240.02 155.704 235.807 158.905 233.943C160.461 233.043 161.667 232.955 162.325 233.767L163.421 226.988ZM158.335 243.815C160.33 242.674 161.777 240.064 161.755 237.519C161.755 235.72 160.79 235.171 159.102 236.158C157.107 237.299 155.661 239.91 155.683 242.455C155.683 244.254 156.647 244.802 158.335 243.815Z" fill="white"/>
<path d="M150.688 303.621C154.459 301.427 156.608 303.139 156.63 308.294C156.652 313.823 153.933 318.364 149.986 320.646C148.671 321.414 147.377 321.853 146.478 321.721L147.246 319.461C147.991 319.593 148.934 319.242 149.965 318.649C152.815 317.004 154.635 313.889 154.613 309.83V309.26C153.78 311.146 152.311 312.726 150.535 313.735C147.728 315.359 145.711 314.591 145.711 311.607C145.711 308.492 147.882 305.223 150.688 303.621ZM150.885 311.673C152.815 310.554 154.152 308.426 154.131 306.649C154.131 304.981 152.947 304.192 150.754 305.464C148.912 306.517 147.64 308.492 147.662 310.422C147.684 312.287 148.912 312.814 150.885 311.673Z" fill="white"/>
<path d="M162.832 296.776L162.876 312.989L160.881 314.152L160.837 299.935L157.68 301.778V299.76L162.832 296.776Z" fill="white"/>
<path d="M215.53 266.347L215.574 282.538L213.557 283.7L213.513 269.506L210.355 271.349V269.33L215.53 266.347Z" fill="white"/>
<path d="M227.676 259.326V260.906L224.015 268.255C226.821 266.939 228.268 267.948 228.268 270.449C228.268 273.17 226.536 276.417 222.94 278.479C220.923 279.642 218.95 280.037 217.766 279.51L218.687 277.141C219.629 277.601 221.208 277.404 222.94 276.417C225.045 275.188 226.251 273.411 226.251 271.634C226.251 269.923 225.177 269.418 222.765 270.822L221.647 271.48V269.879L225.177 262.814L218.38 266.742V264.723L227.676 259.326Z" fill="white"/>
<path d="M209.919 303.577C213.383 304.543 215.641 308.009 215.619 313.34C215.619 313.428 215.619 313.516 215.619 313.604C215.531 319.11 213.12 325.253 209.481 330.189C206.061 329.224 203.825 325.867 203.781 320.646C203.781 320.47 203.781 320.317 203.781 320.141C203.891 314.657 206.302 308.514 209.919 303.577Z" fill="#E0A400"/>
<path d="M54.4053 282.428L54.4272 287.43L36.8242 297.61C37.0654 294.67 39.126 291.269 41.625 289.822L54.4053 282.428Z" fill="#E0C173"/>
<path d="M128.807 247.676C131.065 246.382 132.885 246.207 133.805 247.303L132.052 250.024C131.328 249.3 130.188 249.322 128.654 250.221C125.3 252.174 123.195 256.298 123.217 259.831C123.217 262.332 124.642 263.165 127.339 261.63C128.807 260.774 130.079 259.48 131.065 257.725L132.49 258.668C131.219 261.103 129.333 262.946 127.163 264.219C123.174 266.522 120.762 265.272 120.762 261.454C120.718 256.342 123.941 250.507 128.807 247.676Z" fill="white"/>
<path d="M141.7 243.903L141.284 246.733C141.086 246.799 140.911 246.887 140.692 247.018C138.85 248.071 137.622 249.87 137.227 252.503L136.241 258.756L133.895 260.116L135.846 247.435L138.082 246.141L137.819 247.786C138.762 246.031 140.012 244.89 141.7 243.903Z" fill="white"/>
<path d="M152.091 242.981C152.091 243.552 152.047 244.166 151.937 244.715L143.978 249.322C144.022 251.143 144.943 251.604 146.894 250.485C148.034 249.826 149.087 248.795 149.767 247.633L150.753 248.949C149.701 250.638 148.188 252.02 146.631 252.92C143.605 254.675 141.676 253.775 141.676 250.704C141.654 246.799 144.088 242.565 147.442 240.612C150.227 238.989 152.069 239.822 152.091 242.981ZM144.175 247.391L149.92 244.078C149.942 242.301 148.912 241.906 147.333 242.806C145.754 243.727 144.592 245.461 144.175 247.391Z" fill="white"/>
<path d="M169.954 222.578C170.787 222.095 171.357 222.403 171.379 223.214C171.379 224.267 170.743 225.364 169.778 225.935C168.945 226.417 168.375 226.066 168.375 225.233C168.375 224.224 168.989 223.127 169.954 222.578Z" fill="white"/>
<path d="M166.117 241.49L168.069 228.809L170.415 227.449L168.463 240.129L166.117 241.49Z" fill="white"/>
<path d="M176.599 221.328L176.138 224.224L178.835 222.666L178.462 225.035L175.765 226.593L174.845 232.56C174.823 232.736 174.801 232.933 174.801 233.087C174.801 233.877 175.173 234.162 175.985 233.701C176.445 233.438 176.906 232.999 177.3 232.495L177.717 234.25C177.015 235.171 176.116 235.851 175.305 236.334C173.595 237.321 172.433 236.838 172.433 234.908C172.433 234.623 172.455 234.315 172.499 233.964L173.441 227.975L171.797 228.918L172.17 226.527L173.792 225.584L174.231 222.688L176.599 221.328Z" fill="white"/>
<path d="M193.235 210.468C195.493 209.173 197.313 208.998 198.233 210.095L196.48 212.815C195.756 212.091 194.638 212.113 193.082 213.013C189.728 214.965 187.623 219.09 187.623 222.644C187.623 225.145 189.07 225.979 191.745 224.443C193.213 223.587 194.485 222.293 195.471 220.538L196.896 221.481C195.625 223.916 193.739 225.759 191.569 227.032C187.579 229.335 185.168 228.085 185.168 224.267C185.146 219.112 188.347 213.276 193.235 210.468Z" fill="white"/>
<path d="M207.374 206.102L209.719 204.742L207.768 217.422L205.532 218.717L205.73 217.4C204.875 218.761 203.779 219.88 202.463 220.626C200.008 222.052 198.035 221.306 198.035 218.103C198.035 214.175 200.468 209.941 203.669 208.098C205.225 207.199 206.409 207.133 207.089 207.967L207.374 206.102ZM203.055 217.971C205.028 216.83 206.497 214.197 206.497 211.652C206.497 209.853 205.532 209.305 203.844 210.292C201.85 211.433 200.403 214.066 200.403 216.611C200.403 218.41 201.367 218.958 203.055 217.971Z" fill="white"/>
<path d="M228.727 189.253L231.073 187.892L228.332 205.531L226.096 206.826L226.294 205.509C225.439 206.848 224.365 207.967 223.049 208.735C220.572 210.161 218.621 209.415 218.621 206.212C218.621 202.284 221.032 198.072 224.233 196.229C225.789 195.33 226.995 195.242 227.653 196.054L228.727 189.253ZM223.641 206.08C225.636 204.939 227.083 202.328 227.061 199.783C227.061 197.984 226.096 197.436 224.408 198.423C222.414 199.564 220.967 202.175 220.989 204.72C220.989 206.519 221.953 207.067 223.641 206.08Z" fill="white"/>
<path d="M121.402 327.096C124.208 325.473 126.247 326.218 126.247 329.202C126.247 332.318 124.055 335.586 121.27 337.21C117.477 339.404 115.328 337.715 115.328 332.559C115.306 327.03 118.025 322.467 121.972 320.185C123.287 319.417 124.559 319 125.48 319.11L124.713 321.37C123.989 321.216 123.024 321.567 122.016 322.16C119.165 323.805 117.324 326.942 117.345 331.001C117.345 331.199 117.345 331.374 117.367 331.572C118.179 329.707 119.67 328.105 121.402 327.096ZM121.204 335.389C123.024 334.336 124.318 332.361 124.318 330.431C124.318 328.522 123.068 328.017 121.095 329.158C119.187 330.255 117.85 332.405 117.85 334.182C117.85 335.872 119.034 336.64 121.204 335.389Z" fill="white"/>
<path d="M55.5454 312.814L55.5234 307.812L73.0607 297.676C72.8196 300.615 70.7589 304.016 68.2599 305.464L55.5454 312.814Z" fill="#E0C173"/>
<path d="M59.8225 297.434C60.4582 296.228 60.6116 295.218 60.6336 294.626L73.0631 287.452L73.085 296.557L55.5258 306.693L55.5039 301.822C57.5207 300.572 58.9675 299.08 59.8225 297.434Z" fill="#E0C173"/>
<path d="M36.8672 318.606L54.5798 308.382L54.6017 313.384L41.7119 320.821C39.2128 322.269 37.1302 321.26 36.8672 318.606Z" fill="#E0C173"/>
<path d="M54.4296 288.549L54.4516 293.332L36.8047 303.511V298.729L54.4296 288.549Z" fill="#E0C173"/>
<path d="M55.3927 281.879L55.4146 286.882L73.0176 276.702L73.0395 277.799L55.3927 288.001L55.4146 292.761C57.1902 291.752 59.9524 290.94 60.5442 293.595L73.0615 286.355V287.452L60.6319 294.626C60.5881 295.218 60.4346 296.206 59.8208 297.434C58.9659 299.08 57.5191 300.572 55.5242 301.822L55.5461 306.693L73.1053 296.557V297.676L55.5461 307.812L55.568 312.814L54.6035 313.362L54.5816 308.36L36.8689 318.584L36.847 318.035V317.487L54.5816 307.241L54.5596 302.371L36.8251 312.616V311.497L55.0419 300.988C56.9929 299.848 58.3302 298.553 59.0974 297.105C59.7989 295.767 59.6893 294.758 59.6893 294.758C59.3605 291.796 56.2914 293.354 55.2831 293.924C55.1077 294.012 54.9981 294.1 54.9762 294.1L54.45 294.451L36.8032 304.587V303.49L54.45 293.288L54.4281 288.505L36.7812 298.707V298.158V297.588L54.4281 287.386L54.4062 282.384L55.3927 281.879Z" fill="#EBECEC"/>
<path d="M136.371 319.79C137.993 319.571 138.87 320.427 138.87 322.269C138.87 325.209 136.7 328.303 133.258 330.299C129.838 332.274 127.668 331.681 127.668 328.741C127.668 326.899 128.545 325.012 130.123 323.41C128.83 323.476 128.15 322.664 128.15 321.041C128.15 318.342 130.167 315.468 133.214 313.713C136.283 311.936 138.344 312.441 138.344 315.161C138.366 316.741 137.664 318.364 136.371 319.79ZM133.258 328.412C135.494 327.118 136.875 325.187 136.853 323.366C136.853 321.589 135.472 321.26 133.236 322.555C131 323.849 129.685 325.736 129.685 327.513C129.707 329.334 131.022 329.707 133.258 328.412ZM133.236 315.578C131.351 316.675 130.167 318.364 130.167 319.966C130.167 321.567 131.329 321.896 133.258 320.8C135.209 319.681 136.393 317.991 136.393 316.39C136.371 314.744 135.143 314.481 133.236 315.578Z" fill="white"/>
<path d="M55.3945 287.979L73.0414 277.777L73.0633 286.333L60.5461 293.573C59.9323 290.918 57.1921 291.73 55.4165 292.739L55.3945 287.979Z" fill="#E0C173"/>
<path d="M68.1733 274.486C70.6504 273.038 72.7549 274.047 72.996 276.702L55.393 286.882L55.3711 281.88L68.1733 274.486Z" fill="#E0C173"/>
<path d="M54.5588 302.393L54.5807 307.263L36.8461 317.509L36.8242 312.638L54.5588 302.393Z" fill="#E0C173"/>
<path d="M59.0755 297.127C58.3302 298.553 56.971 299.87 55.02 301.01L36.8032 311.519L36.7812 304.608L54.4281 294.429L54.9542 294.122C54.9762 294.1 55.0858 294.034 55.2611 293.946C56.2695 293.376 59.3385 291.818 59.6674 294.78C59.6674 294.802 59.777 295.789 59.0755 297.127Z" fill="#E0C173"/>
<path d="M45.2683 364.722L45.3121 380.935L43.3169 382.075L43.273 367.881L40.0938 369.724V367.705L45.2683 364.722Z" fill="white"/>
<path d="M52.8089 360.158C55.7689 358.447 57.6545 359.105 57.6545 361.891C57.6545 363.471 57.2598 365.117 55.3523 368.32L51.0548 375.581L58.2903 371.391V373.41L48.1605 379.267V377.71L53.8832 368.034C55.3742 365.49 55.6592 364.327 55.6373 363.296C55.6373 361.606 54.6068 361.189 52.6334 362.33C51.1425 363.208 49.9146 364.458 49.0376 366.17L47.6562 365.599C48.7525 363.427 50.6163 361.431 52.8089 360.158Z" fill="white"/>
<path d="M68.9871 351.01V352.589L65.3036 359.939C68.132 358.623 69.5572 359.632 69.5572 362.133C69.5572 364.853 67.8251 368.1 64.2292 370.163C62.212 371.325 60.2387 371.72 59.0547 371.194L59.9756 368.824C60.9184 369.285 62.4971 369.109 64.2292 368.1C66.3341 366.872 67.562 365.073 67.54 363.318C67.54 361.606 66.4657 361.102 64.0319 362.506L62.9137 363.164V361.562L66.4437 354.498L59.6686 358.425V356.407L68.9871 351.01Z" fill="white"/>
<path d="M80.5808 344.318L73.6974 358.535L79.134 355.397L79.112 351.887L80.9973 350.79L81.0192 354.322L83.6936 352.765V354.761L81.0192 356.297L81.0411 360.29L79.0901 361.409L79.0682 357.438L71.2422 361.957V360.334L78.4105 345.569L80.5808 344.318Z" fill="white"/>
<path d="M99.3929 333.436V335.455L93.1221 339.075L92.7493 343.748L94.3061 342.848C98.5158 340.413 100.182 341.488 100.182 344.362C100.182 347.17 98.472 350.417 94.8542 352.502C92.859 353.642 90.8856 354.037 89.6797 353.511L90.6006 351.141C91.5434 351.602 93.1221 351.405 94.8323 350.417C96.9591 349.189 98.165 347.368 98.165 345.591C98.165 343.77 97.1564 343.199 93.8895 345.086L90.6883 346.929L91.4118 338.022L99.3929 333.436Z" fill="white"/>
<path d="M111.028 326.723L104.145 340.94L109.56 337.824V334.292L111.445 333.195L111.467 336.727L114.141 335.17V337.166L111.467 338.724L111.489 342.695L109.538 343.814L109.516 339.843L101.668 344.384V342.761L108.836 327.974L111.028 326.723Z" fill="white"/>
<path d="M171.687 291.467C174.953 289.58 177.43 291.182 177.452 296.469C177.474 301.734 175.019 306.188 171.753 308.075C168.443 309.984 165.965 308.382 165.965 303.117C165.922 297.829 168.377 293.398 171.687 291.467ZM171.731 305.991C173.923 304.718 175.436 301.756 175.436 297.632C175.414 293.485 173.901 292.279 171.709 293.551C169.473 294.846 167.96 297.807 167.982 301.954C167.96 306.078 169.495 307.285 171.731 305.991Z" fill="white"/>
<path d="M183.655 284.754L183.699 300.966L181.704 302.107L181.66 287.913L178.48 289.756V287.737L183.655 284.754Z" fill="white"/>
<path d="M196.525 277.316L196.568 293.529L194.573 294.67L194.529 280.475L191.35 282.318L191.328 280.322L196.525 277.316Z" fill="white"/>
<path d="M201.502 305.223C201.612 305.157 201.721 305.091 201.831 305.025C204.878 303.336 207.662 302.919 209.92 303.555C206.281 308.492 203.891 314.635 203.804 320.119C203.804 320.295 203.804 320.47 203.804 320.624C203.848 325.824 206.084 329.202 209.503 330.168C207.267 333.217 204.549 335.828 201.634 337.517C201.524 337.583 201.436 337.627 201.327 337.693C193.566 341.993 187.385 338.131 187.538 329.114C187.669 320.251 193.895 309.633 201.502 305.223Z" fill="#E0006C"/>
<path d="M217.808 296.206C217.918 296.14 218.006 296.096 218.115 296.03C225.875 291.752 232.057 295.569 231.904 304.608C231.772 313.516 225.525 324.134 217.896 328.544C217.786 328.61 217.699 328.654 217.589 328.72C214.564 330.387 211.78 330.804 209.5 330.189C213.117 325.253 215.55 319.11 215.638 313.603C215.638 313.516 215.638 313.428 215.638 313.34C215.66 307.987 213.402 304.543 209.938 303.577C212.174 300.506 214.893 297.895 217.808 296.206Z" fill="#E0D900"/>
<path d="M204.067 272.775C207.027 271.064 208.912 271.722 208.912 274.508C208.912 276.088 208.518 277.733 206.61 280.936L202.313 288.198L209.548 284.03V286.048L199.418 291.906V290.348L205.141 280.673C206.632 278.128 206.917 276.965 206.895 275.934C206.895 274.245 205.865 273.828 203.891 274.969C202.4 275.846 201.172 277.097 200.295 278.808L198.914 278.238C199.988 276.022 201.874 274.025 204.067 272.775Z" fill="white"/>
<path d="M218.622 199.454L218.205 202.284C218.008 202.35 217.833 202.438 217.613 202.57C215.772 203.623 214.544 205.422 214.149 208.054L213.162 214.307L210.816 215.667L212.768 202.986L215.004 201.692L214.741 203.337C215.684 201.582 216.956 200.42 218.622 199.454Z" fill="white"/>
<g opacity="0.5">
<g opacity="0.5">
<path opacity="0.5" d="M43.5352 172.798L66.9255 186.137L43.6886 226.461L43.6667 214.526L56.5785 192.127L43.579 184.711L43.5352 172.798Z" fill="#3E97FF"/>
</g>
<g opacity="0.5">
<path opacity="0.5" d="M21.7695 185.391L45.1818 198.73L21.923 239.032L21.8791 227.119L34.8129 204.72L21.7915 197.304L21.7695 185.391Z" fill="#3E97FF"/>
</g>
<g opacity="0.5">
<path opacity="0.5" d="M0 197.962L23.3903 211.301L0.153451 251.604L0.109608 239.691L13.0433 217.291L0.0438432 209.875L0 197.962Z" fill="#3E97FF"/>
</g>
<g opacity="0.5">
<path opacity="0.5" d="M65.3047 160.227L88.7169 173.566L65.4581 213.868L65.4143 201.955L78.348 179.555L65.3485 172.14L65.3047 160.227Z" fill="#3E97FF"/>
</g>
<g opacity="0.5">
<path opacity="0.5" d="M87.0938 147.656L110.484 160.973L87.2253 201.297L87.2034 189.362L100.115 166.962L87.1157 159.547L87.0938 147.656Z" fill="#3E97FF"/>
</g>
<g opacity="0.5">
<path opacity="0.5" d="M108.863 135.063L132.254 148.402L109.017 188.704L108.973 176.791L121.885 154.391L108.907 146.976L108.863 135.063Z" fill="#3E97FF"/>
</g>
<g opacity="0.5">
<path opacity="0.5" d="M130.633 122.492L154.045 135.831L130.786 176.133L130.742 164.198L143.654 141.82L130.655 134.405L130.633 122.492Z" fill="#3E97FF"/>
</g>
<g opacity="0.5">
<path opacity="0.5" d="M174.168 97.3277L197.58 110.667L174.321 150.969L174.278 139.056L187.211 116.656L174.212 109.241L174.168 97.3277Z" fill="#3E97FF"/>
</g>
<g opacity="0.5">
<path opacity="0.5" d="M152.398 109.899L175.789 123.238L152.552 163.54L152.53 151.627L165.442 129.227L152.442 121.812L152.398 109.899Z" fill="#3E97FF"/>
</g>
<g opacity="0.5">
<path opacity="0.5" d="M195.957 84.7346L219.347 98.0955L196.089 138.398L196.067 126.463L208.978 104.063L195.979 96.6476L195.957 84.7346Z" fill="#3E97FF"/>
</g>
</g>
<path d="M92.0266 579.944L149.067 546.992L148.803 457.612L135.102 465.532L135.081 460.486C135.059 450.723 128.131 446.774 119.648 451.688C111.164 456.581 104.281 468.516 104.303 478.278L104.325 483.324L91.2812 490.762V580.186C92.0704 579.857 92.0485 579.901 92.0266 579.944ZM107.898 476.194C107.876 468.713 113.159 459.564 119.648 455.813C126.158 452.061 131.464 455.089 131.485 462.57L131.507 467.616L107.92 481.24L107.898 476.194Z" fill="#12258A"/>
<path d="M91.2383 490.784L91.4794 580.098L108.096 589.971L107.855 500.656L91.2383 490.784Z" fill="#5B71F7"/>
<path d="M148.87 457.678L148.629 547.123L165.53 556.535L165.772 467.09L148.87 457.678Z" fill="#0A184A"/>
<path d="M107.832 500.591L108.095 589.971L166.056 556.469L165.793 467.089L152.092 475.01L152.07 469.964C152.048 460.201 145.121 456.252 136.637 461.166C128.153 466.058 121.27 477.993 121.292 487.756L121.314 492.802L107.832 500.591ZM124.887 485.694C124.865 478.213 130.148 469.064 136.637 465.312C143.148 461.561 148.453 464.588 148.475 472.07L148.497 477.116L124.909 490.74L124.887 485.694Z" fill="#475DE0"/>
<path d="M140.166 609.935L197.184 576.982L196.921 487.603L183.22 495.523L183.198 490.477C183.176 480.714 176.249 476.765 167.765 481.679C159.281 486.571 152.398 498.506 152.42 508.269L152.442 513.315L139.398 520.753V610.176C140.188 609.847 140.166 609.891 140.166 609.935ZM156.015 506.185C155.993 498.704 161.276 489.555 167.765 485.804C174.254 482.052 179.581 485.08 179.603 492.561L179.625 497.607L156.037 511.231L156.015 506.185Z" fill="#690033"/>
<path d="M139.355 520.774L139.597 610.089L156.213 619.961L155.972 530.647L139.355 520.774Z" fill="#F73994"/>
<path d="M197.009 487.668L196.746 577.114L213.648 586.526L213.911 497.08L197.009 487.668Z" fill="#4A002D"/>
<path d="M155.973 530.581L156.236 619.961L214.196 586.46L213.933 497.08L200.232 505L200.21 499.954C200.188 490.191 193.261 486.242 184.778 491.157C176.294 496.049 169.411 507.984 169.433 517.747L169.454 522.793L155.973 530.581ZM173.028 515.685C173.006 508.203 178.289 499.055 184.778 495.303C191.288 491.552 196.593 494.579 196.615 502.06L196.637 507.106L173.05 520.731L173.028 515.685Z" fill="#E0006C"/>
<g opacity="0.5">
<path opacity="0.5" d="M589.009 70.9788C591.86 72.6242 594.184 76.6391 594.162 79.93C594.162 83.2208 591.838 84.5372 588.965 82.8917C586.115 81.2463 583.791 77.2314 583.813 73.9625C583.835 70.6497 586.159 69.3114 589.009 70.9788Z" fill="#6AAFFF"/>
</g>
<g opacity="0.25">
<path opacity="0.25" d="M559.372 120.605C562.223 122.251 564.547 126.265 564.525 129.556C564.525 132.847 562.201 134.163 559.328 132.518C556.478 130.873 554.154 126.858 554.176 123.589C554.198 120.276 556.522 118.96 559.372 120.605Z" fill="#6AAFFF"/>
</g>
<g opacity="0.1">
<path opacity="0.1" d="M533.747 50.6193C536.598 52.2647 538.922 56.2796 538.9 59.5704C538.9 62.8613 536.576 64.1777 533.704 62.5322C530.853 60.8868 528.529 56.8719 528.551 53.603C528.551 50.2902 530.897 48.9739 533.747 50.6193Z" fill="#6AAFFF"/>
</g>
<g opacity="0.1">
<path opacity="0.1" d="M569.369 0.707804C572.219 2.35324 574.543 6.3681 574.521 9.65896C574.521 12.9498 572.197 14.2662 569.325 12.6207C566.474 10.9753 564.15 6.96045 564.172 3.69152C564.172 0.378717 566.518 -0.937629 569.369 0.707804Z" fill="#6AAFFF"/>
</g>
<g opacity="0.1">
<path opacity="0.1" d="M575.572 222.293C578.422 223.938 580.746 227.953 580.724 231.244C580.724 234.535 578.4 235.851 575.528 234.206C572.677 232.56 570.353 228.546 570.375 225.277C570.397 221.964 572.721 220.647 575.572 222.293Z" fill="#6AAFFF"/>
</g>
<g opacity="0.5">
<path opacity="0.5" d="M491.986 69.9257C494.836 71.5712 497.16 75.586 497.138 78.8769C497.138 82.1677 494.814 83.4841 491.942 81.8387C489.091 80.1932 486.767 76.1784 486.789 72.9094C486.789 69.5966 489.113 68.2583 491.986 69.9257Z" fill="#6AAFFF"/>
</g>
<g opacity="0.5">
<path opacity="0.5" d="M600.849 167.906C603.699 169.551 606.023 173.566 606.002 176.857C606.002 180.148 603.677 181.464 600.805 179.819C597.955 178.173 595.631 174.158 595.652 170.89C595.674 167.599 597.999 166.26 600.849 167.906Z" fill="#6AAFFF"/>
</g>
<g opacity="0.5">
<path opacity="0.5" d="M431.154 27.6929C434.004 29.3383 436.328 33.3532 436.306 36.6441C436.306 39.9349 433.982 41.2513 431.11 39.6059C428.259 37.9604 425.935 33.9456 425.957 30.6766C425.957 27.3638 428.281 26.0255 431.154 27.6929Z" fill="#6AAFFF"/>
</g>
<path opacity="0.5" d="M547.671 169.836C547.671 169.464 547.671 169.025 547.649 168.718C547.627 168.323 547.627 167.928 547.583 167.533C547.561 167.138 547.517 166.743 547.495 166.326C547.451 165.931 547.408 165.514 547.364 165.12C547.32 164.703 547.254 164.308 547.188 163.891C547.123 163.474 547.057 163.057 546.969 162.64C546.881 162.224 546.794 161.785 546.706 161.368C546.618 160.929 546.509 160.512 546.399 160.074C546.29 159.635 546.18 159.196 546.048 158.779C545.939 158.34 545.807 157.924 545.676 157.485C545.544 157.068 545.413 156.629 545.259 156.212C545.128 155.795 544.974 155.379 544.821 154.962C544.667 154.567 544.514 154.15 544.36 153.755C544.207 153.36 544.054 152.965 543.878 152.57C543.725 152.175 543.549 151.781 543.374 151.408C543.199 151.013 543.023 150.618 542.826 150.223C542.629 149.784 542.409 149.345 542.19 148.928C541.949 148.424 541.686 147.941 541.423 147.459C541.028 146.735 540.634 146.011 540.217 145.287C539.647 144.299 539.033 143.334 538.398 142.391C537.894 141.645 537.367 140.899 536.841 140.175C536.491 139.692 536.118 139.209 535.745 138.749C535.438 138.354 535.11 137.959 534.803 137.586C534.496 137.213 534.167 136.84 533.86 136.467C533.553 136.116 533.224 135.765 532.895 135.414C532.567 135.063 532.238 134.712 531.887 134.361C531.536 134.01 531.207 133.681 530.857 133.33C530.506 132.979 530.133 132.65 529.783 132.321C529.432 131.991 529.059 131.684 528.686 131.377C528.336 131.07 527.963 130.763 527.59 130.478C527.24 130.192 526.867 129.929 526.516 129.644C526.166 129.381 525.815 129.139 525.442 128.876C525.091 128.635 524.741 128.415 524.39 128.196C524.039 127.977 523.688 127.757 523.36 127.56C523.272 127.516 523.206 127.472 523.118 127.428L385.407 47.855C385.144 47.7014 384.881 47.5478 384.618 47.4162C384.289 47.2407 383.938 47.0652 383.61 46.8897C383.39 46.78 383.171 46.6922 382.952 46.5825C382.908 46.5606 382.842 46.5386 382.798 46.5167C382.733 46.4948 382.667 46.4509 382.601 46.4289C382.272 46.2754 381.944 46.1437 381.615 46.0121C381.286 45.8805 380.957 45.7488 380.628 45.6391C380.562 45.6172 380.519 45.5952 380.453 45.5952C380.409 45.5733 380.343 45.5733 380.299 45.5514C380.08 45.4856 379.861 45.3978 379.642 45.332C379.291 45.2223 378.962 45.1345 378.633 45.0468C378.48 45.0029 378.305 44.9809 378.151 44.9371C378.085 44.9151 378.02 44.9151 377.932 44.8932C377.822 44.8713 377.713 44.8493 377.625 44.8274C377.252 44.7616 376.902 44.6957 376.551 44.6519L376.507 44.6738L376.551 44.6519C376.332 44.6299 376.112 44.608 375.893 44.586C375.827 44.586 375.74 44.5641 375.674 44.5641C375.608 44.5641 375.521 44.5422 375.455 44.5422C375.06 44.5202 374.687 44.4983 374.293 44.4983C374.118 44.4983 373.964 44.5202 373.789 44.5202C373.657 44.5202 373.526 44.5202 373.416 44.5422C373.284 44.5422 373.153 44.5422 373.021 44.5641C372.539 44.608 372.057 44.6738 371.597 44.7616H371.575C371.465 44.7835 371.377 44.8274 371.268 44.8493C370.785 44.959 370.325 45.0687 369.865 45.2223C369.163 45.4636 368.506 45.7708 367.87 46.1437L359.847 50.8168C359.868 50.8168 359.869 50.7948 359.89 50.7948C355.462 53.3398 352.7 58.8026 352.678 66.591L351.582 457.327C351.538 472.925 362.499 491.947 376.069 499.779L513.78 579.352C521.036 583.542 527.547 583.674 532.062 580.515C531.799 580.69 531.536 580.91 531.251 581.063L539.275 576.39C539.779 576.105 540.239 575.754 540.7 575.403C540.831 575.293 540.963 575.184 541.094 575.052C541.423 574.767 541.73 574.482 542.015 574.153C542.146 574.021 542.278 573.889 542.387 573.736C542.716 573.341 543.045 572.924 543.33 572.485C543.374 572.419 543.44 572.353 543.484 572.266C543.484 572.244 543.505 572.244 543.527 572.222C543.856 571.695 544.163 571.125 544.448 570.532C544.448 570.511 544.47 570.489 544.47 570.467C544.492 570.401 544.514 570.335 544.558 570.269C544.733 569.896 544.887 569.523 545.04 569.128C545.106 568.931 545.172 568.712 545.237 568.514C545.281 568.404 545.325 568.273 545.347 568.163C545.391 568.053 545.413 567.944 545.457 567.834C545.566 567.417 545.676 567 545.785 566.583C545.829 566.43 545.851 566.276 545.873 566.123C545.895 566.035 545.917 565.925 545.939 565.816C545.961 565.662 546.005 565.53 546.026 565.377C546.092 565.004 546.158 564.609 546.202 564.192C546.224 563.973 546.246 563.753 546.268 563.512C546.268 563.424 546.29 563.358 546.29 563.271C546.29 563.183 546.311 563.095 546.311 562.985C546.333 562.612 546.377 562.218 546.377 561.823C546.399 561.516 546.399 561.033 546.399 560.638C546.399 560.616 546.399 560.594 546.399 560.572L547.495 170.1C547.495 170.078 547.495 170.034 547.495 169.99L547.671 169.836ZM519.874 576.544C519.896 576.544 519.918 576.544 519.962 576.566C519.918 576.566 519.896 576.566 519.874 576.544ZM528.621 565.552C528.577 565.662 528.533 565.75 528.511 565.859C528.555 565.75 528.599 565.64 528.621 565.552C528.643 565.552 528.621 565.552 528.621 565.552Z" fill="#D1E6FF"/>
<path d="M507.859 579.506L515.884 574.833C515.884 574.855 515.884 574.876 515.884 574.898L507.859 579.571C507.859 579.55 507.859 579.528 507.859 579.506Z" fill="#2D2D2D"/>
<path d="M329.266 65.0114L337.291 60.3383C337.926 59.9654 338.584 59.6582 339.286 59.4169L331.261 64.0899C330.559 64.3532 329.901 64.6603 329.266 65.0114Z" fill="#212121"/>
<path d="M484.428 156.629C493.043 161.609 500.014 173.676 499.971 183.592L498.875 574.328C498.853 584.223 491.838 588.215 483.222 583.235L345.511 503.662C336.896 498.682 329.947 486.637 329.969 476.721L331.065 85.9852C331.087 76.0906 338.102 72.0758 346.695 77.0559L363.838 86.9724C366.096 88.2888 367.937 91.4699 367.937 94.0588L367.915 98.2711C367.893 104.173 372.036 111.369 377.188 114.331L453.826 158.604C458.955 161.565 463.142 159.196 463.142 153.294L463.164 149.082C463.164 146.471 465.006 145.418 467.286 146.735L484.428 156.629Z" fill="url(#paint2_linear)"/>
<path d="M484.45 151.473C495.52 157.88 504.508 173.434 504.464 186.181L503.368 576.917C503.324 589.663 494.292 594.819 483.222 588.413L345.511 508.84C334.44 502.433 325.452 486.879 325.496 474.132L326.592 83.3963C326.636 70.6497 335.668 65.494 346.738 71.9002L484.45 151.473ZM498.874 574.328L499.97 183.592C499.992 173.698 493.043 161.609 484.428 156.629L467.285 146.735C465.005 145.418 463.164 146.493 463.164 149.082L463.142 153.294C463.12 159.196 458.955 161.587 453.825 158.604L377.187 114.331C372.058 111.369 367.915 104.173 367.915 98.2711L367.936 94.0588C367.936 91.448 366.095 88.2668 363.837 86.9724L346.694 77.0559C338.079 72.0758 331.086 76.0906 331.064 85.9852L329.968 476.721C329.946 486.615 336.895 498.682 345.511 503.662L483.222 583.235C491.837 588.215 498.852 584.222 498.874 574.328Z" fill="black"/>
<path d="M484.469 146.296C498.039 154.128 509 173.149 508.956 188.748L507.86 579.484C507.816 595.082 496.767 601.379 483.198 593.547L345.487 513.973C331.917 506.141 320.956 487.12 321 471.521L322.096 80.7856C322.14 65.1869 333.189 58.8903 346.758 66.7226L484.469 146.296ZM503.366 576.917L504.462 186.181C504.506 173.456 495.518 157.88 484.447 151.473L346.736 71.9002C335.666 65.494 326.612 70.6497 326.59 83.3963L325.494 474.132C325.45 486.879 334.438 502.434 345.508 508.84L483.22 588.413C494.29 594.797 503.322 589.641 503.366 576.917Z" fill="#222222"/>
<path d="M516.98 184.097C516.98 183.724 516.98 183.285 516.958 182.978C516.936 182.583 516.936 182.188 516.893 181.793C516.871 181.398 516.827 181.003 516.805 180.587C516.761 180.192 516.717 179.775 516.673 179.38C516.63 178.963 516.564 178.568 516.498 178.151C516.432 177.735 516.366 177.318 516.279 176.901C516.191 176.484 516.103 176.045 516.016 175.628C515.928 175.19 515.818 174.773 515.709 174.334C515.599 173.895 515.49 173.456 515.358 173.04C515.248 172.601 515.117 172.184 514.985 171.745C514.854 171.328 514.722 170.89 514.569 170.473C514.437 170.056 514.284 169.639 514.13 169.222C513.977 168.827 513.824 168.41 513.67 168.016C513.517 167.621 513.363 167.226 513.188 166.831C513.034 166.436 512.859 166.041 512.684 165.668C512.508 165.273 512.333 164.878 512.136 164.483C511.938 164.045 511.719 163.606 511.5 163.189C511.259 162.684 510.996 162.202 510.733 161.719C510.338 160.995 509.943 160.271 509.527 159.547C508.957 158.56 508.343 157.594 507.707 156.651C507.203 155.905 506.677 155.159 506.151 154.435C505.8 153.953 505.428 153.47 505.055 153.009C504.748 152.614 504.419 152.219 504.112 151.846C503.805 151.473 503.477 151.1 503.17 150.727C502.863 150.376 502.534 150.025 502.205 149.674C501.876 149.323 501.548 148.972 501.197 148.621C500.846 148.27 500.517 147.941 500.166 147.59C499.816 147.239 499.443 146.91 499.092 146.581C498.742 146.252 498.369 145.945 497.996 145.638C497.645 145.33 497.273 145.045 496.9 144.738C496.549 144.453 496.177 144.19 495.826 143.904C495.475 143.641 495.124 143.4 494.752 143.137C494.401 142.895 494.05 142.676 493.7 142.456C493.349 142.237 492.998 142.018 492.669 141.82C492.582 141.776 492.516 141.732 492.428 141.689L354.717 62.1154C354.454 61.9618 354.191 61.8082 353.928 61.6766C353.599 61.5011 353.248 61.3256 352.919 61.1501C352.7 61.0404 352.481 60.9526 352.262 60.8429C352.218 60.821 352.152 60.7991 352.108 60.7771C352.042 60.7552 351.977 60.7113 351.911 60.6894C351.582 60.5358 351.253 60.4041 350.924 60.2725C350.596 60.1409 350.267 60.0092 349.938 59.8995C349.872 59.8776 349.828 59.8557 349.763 59.8557C349.719 59.8337 349.653 59.8337 349.609 59.8118C349.39 59.746 349.171 59.6582 348.951 59.5924C348.601 59.4827 348.272 59.3949 347.943 59.3072C347.79 59.2633 347.614 59.2414 347.461 59.1975C347.395 59.1756 347.329 59.1756 347.242 59.1536C347.132 59.1317 347.022 59.1097 346.935 59.0878C346.562 59.022 346.211 58.9562 345.861 58.9123L345.817 58.9342L345.861 58.9123C345.641 58.8903 345.422 58.8684 345.203 58.8465C345.137 58.8465 345.049 58.8245 344.984 58.8245C344.918 58.8245 344.83 58.8026 344.764 58.8026C344.37 58.7806 343.997 58.7587 343.603 58.7587C343.427 58.7587 343.274 58.7807 343.098 58.7807C342.967 58.7807 342.835 58.7806 342.726 58.8026C342.594 58.8026 342.463 58.8026 342.331 58.8245C341.849 58.8684 341.367 58.9342 340.906 59.022H340.884C340.775 59.0439 340.687 59.0878 340.577 59.1097C340.095 59.2194 339.635 59.3291 339.174 59.4827L339.109 59.5266C338.429 59.7679 337.793 60.0531 337.18 60.4041L329.156 65.0772C330.187 64.4848 331.327 64.046 332.532 63.7828C332.642 63.7608 332.729 63.717 332.839 63.695C333.431 63.5634 334.045 63.4976 334.68 63.4537C334.812 63.4537 334.944 63.4317 335.053 63.4317C335.667 63.4098 336.281 63.4098 336.917 63.4756C336.982 63.4756 337.07 63.4976 337.136 63.4976C337.793 63.5634 338.473 63.6731 339.174 63.8047C339.24 63.8266 339.306 63.8266 339.372 63.8486C340.073 64.0022 340.797 64.1996 341.542 64.4629C341.586 64.4848 341.63 64.4848 341.695 64.5068C342.463 64.77 343.252 65.0772 344.041 65.4501C344.085 65.4721 344.151 65.494 344.194 65.516C345.006 65.8889 345.817 66.3058 346.628 66.7884L484.471 146.296C484.558 146.34 484.624 146.384 484.712 146.427C485.062 146.625 485.413 146.844 485.742 147.064C486.093 147.283 486.444 147.524 486.794 147.744C487.145 147.985 487.518 148.248 487.868 148.512C488.241 148.775 488.592 149.06 488.943 149.345C489.315 149.631 489.666 149.938 490.039 150.245C490.411 150.552 490.762 150.881 491.135 151.188C491.507 151.517 491.858 151.846 492.209 152.197C492.56 152.527 492.91 152.878 493.239 153.229C493.568 153.58 493.919 153.931 494.248 154.282C494.576 154.633 494.883 154.984 495.212 155.335C495.541 155.708 495.848 156.081 496.155 156.454C496.484 156.848 496.79 157.221 497.097 157.616C497.47 158.077 497.843 158.56 498.193 159.042C498.72 159.766 499.246 160.512 499.75 161.258C500.386 162.202 500.999 163.167 501.569 164.154C501.986 164.856 502.402 165.58 502.775 166.326C503.038 166.809 503.279 167.313 503.542 167.796C503.762 168.235 503.959 168.652 504.178 169.091C504.353 169.485 504.551 169.88 504.726 170.275C504.902 170.67 505.055 171.065 505.23 171.438C505.406 171.833 505.559 172.228 505.713 172.623C505.866 173.018 506.019 173.434 506.173 173.829C506.326 174.246 506.48 174.663 506.611 175.08C506.743 175.497 506.896 175.936 507.028 176.352C507.159 176.791 507.291 177.208 507.401 177.647C507.532 178.086 507.642 178.524 507.751 178.941C507.861 179.38 507.949 179.797 508.058 180.236C508.146 180.674 508.234 181.091 508.321 181.508C508.409 181.925 508.475 182.342 508.54 182.759C508.606 183.175 508.672 183.592 508.716 183.987C508.76 184.382 508.804 184.799 508.847 185.194C508.891 185.589 508.913 185.984 508.935 186.4C508.957 186.795 508.979 187.19 509.001 187.585C509.001 187.892 509.023 188.419 509.023 188.792L507.927 578.869C507.927 579.264 507.905 580.295 507.905 580.69C507.883 581.085 507.861 581.48 507.839 581.853C507.795 582.248 507.773 582.643 507.707 583.038C507.664 583.433 507.598 583.828 507.532 584.223C507.466 584.639 507.379 585.034 507.291 585.429C507.203 585.868 507.094 586.285 506.962 586.68C506.831 587.118 506.677 587.557 506.524 587.974C506.348 588.457 506.151 588.917 505.932 589.378C505.647 589.971 505.34 590.541 505.011 591.067C503.871 592.845 502.446 594.249 500.758 595.236L508.782 590.563C510.47 589.576 511.894 588.193 513.034 586.394C513.363 585.868 513.67 585.298 513.955 584.705C514.174 584.266 514.372 583.784 514.547 583.301C514.7 582.884 514.854 582.445 514.985 582.007C515.095 581.59 515.205 581.173 515.314 580.756C515.402 580.361 515.49 579.966 515.555 579.549C515.621 579.176 515.687 578.782 515.731 578.365C515.775 577.97 515.818 577.575 515.862 577.18C515.884 576.807 515.928 576.412 515.928 576.017C515.95 575.71 515.95 575.162 515.95 574.767L517.046 184.294C517.046 184.272 517.046 184.229 517.046 184.185L516.98 184.097Z" fill="#2D2D2D"/>
<path d="M348.557 141.776L348.25 357.35L484.69 437.516L484.997 221.92L348.557 141.776Z" fill="url(#paint3_linear)"/>
<path d="M348.62 137.103L268.453 207.199L285.925 217.444L366.07 147.524L348.62 137.103Z" fill="white"/>
<path d="M268.454 207.199V215.536C268.454 215.536 267.84 224.596 276.85 227.997C286.868 231.771 285.926 217.444 285.926 217.444L268.454 207.199Z" fill="#D6D6D6"/>
<path d="M366.071 147.459L348.621 137.037C348.621 137.037 348.621 131.75 348.621 131.706L366.071 142.127C366.071 142.127 366.049 147.48 366.071 147.459Z" fill="#D6D6D6"/>
<path d="M366.093 147.502L285.926 217.62L303.397 227.865L383.543 157.924L366.093 147.502Z" fill="#E0006C"/>
<path d="M285.927 217.62V225.957C285.927 225.957 285.313 235.018 294.323 238.418C304.341 242.192 303.398 227.865 303.398 227.865L285.927 217.62Z" fill="#910046"/>
<path d="M383.543 157.88L366.094 147.459C366.094 147.459 366.094 142.171 366.094 142.127L383.543 152.548C383.543 152.548 383.521 157.902 383.543 157.88Z" fill="#910046"/>
<path d="M383.521 157.88L303.332 227.975L320.804 238.221L400.949 168.301L383.521 157.88Z" fill="white"/>
<path d="M303.333 227.975V236.312C303.333 236.312 302.719 245.373 311.729 248.773C321.747 252.547 320.805 238.221 320.805 238.221L303.333 227.975Z" fill="#D6D6D6"/>
<path d="M400.95 168.235L383.5 157.814C383.5 157.814 383.5 152.526 383.5 152.483L400.95 162.904C400.95 162.904 400.928 168.257 400.95 168.235Z" fill="#D6D6D6"/>
<path d="M400.929 168.257L320.762 238.374L338.233 248.62L418.378 178.678L400.929 168.257Z" fill="#E0006C"/>
<path d="M320.763 238.374V246.711C320.763 246.711 320.149 255.772 329.159 259.173C339.177 262.946 338.234 248.62 338.234 248.62L320.763 238.374Z" fill="#910046"/>
<path d="M418.379 178.634L400.93 168.213C400.93 168.213 400.93 162.926 400.93 162.882L418.379 173.303C418.379 173.303 418.357 178.656 418.379 178.634Z" fill="#910046"/>
<path d="M418.353 178.7L338.164 248.795L355.636 259.041L435.781 189.121L418.353 178.7Z" fill="white"/>
<path d="M338.165 248.795V257.132C338.165 257.132 337.551 266.193 346.561 269.594C356.579 273.367 355.637 259.041 355.637 259.041L338.165 248.795Z" fill="#D6D6D6"/>
<path d="M435.782 189.055L418.332 178.634C418.332 178.634 418.332 173.347 418.332 173.303L435.782 183.724C435.782 183.724 435.76 189.077 435.782 189.055Z" fill="#D6D6D6"/>
<path d="M435.804 189.121L355.637 259.238L373.108 269.484L453.253 199.542L435.804 189.121Z" fill="#E0006C"/>
<path d="M355.638 259.238V267.575C355.638 267.575 355.024 276.636 364.034 280.037C374.052 283.81 373.109 269.484 373.109 269.484L355.638 259.238Z" fill="#910046"/>
<path d="M453.254 199.498L435.805 189.077C435.805 189.077 435.805 183.79 435.805 183.746L453.254 194.167C453.254 194.167 453.232 199.52 453.254 199.498Z" fill="#910046"/>
<path d="M453.275 199.476L373.086 269.572L390.579 279.817L470.703 209.875L453.275 199.476Z" fill="white"/>
<path d="M373.087 269.572V277.909C373.087 277.909 372.473 286.969 381.483 290.37C391.501 294.143 390.558 279.817 390.558 279.817L373.087 269.572Z" fill="#D6D6D6"/>
<path d="M470.703 209.831L453.254 199.41C453.254 199.41 453.254 194.123 453.254 194.079L470.703 204.5C470.703 204.5 470.682 209.853 470.703 209.831Z" fill="#D6D6D6"/>
<path d="M470.636 209.81L390.469 279.905L407.94 290.151L488.086 220.231L470.636 209.81Z" fill="#E0006C"/>
<path d="M390.47 279.905V288.242C390.47 288.242 389.856 297.303 398.866 300.703C408.884 304.477 407.941 290.151 407.941 290.151L390.47 279.905Z" fill="#910046"/>
<path d="M488.086 220.165L470.637 209.744C470.637 209.744 470.637 204.456 470.637 204.412L488.086 214.834C488.086 214.834 488.064 220.209 488.086 220.165Z" fill="#910046"/>
<g opacity="0.43">
<path opacity="0.43" d="M569.544 384.423C574.476 387.275 578.466 394.186 578.466 399.868L578.4 426.678C578.378 432.36 574.366 434.642 569.434 431.789L417.035 343.726C412.103 340.874 408.113 333.963 408.113 328.281L408.179 301.471C408.201 295.789 412.213 293.507 417.145 296.359L569.544 384.423Z" fill="white"/>
</g>
<path d="M561.696 397.586C566.628 400.439 570.618 407.349 570.618 413.032L570.552 439.841C570.53 445.523 566.519 447.805 561.586 444.953L409.188 356.889C404.255 354.037 400.266 347.126 400.266 341.444L400.331 314.635C400.353 308.952 404.365 306.671 409.297 309.523L561.696 397.586Z" fill="white"/>
<path d="M535.084 407.569V409.214C536.071 409.894 537.036 410.75 537.803 411.693L536.838 413.778C535.918 412.702 535.04 411.935 534.229 411.452C533.308 410.925 533.001 411.057 533.001 411.43C533.001 412.724 538.176 414.655 538.176 418.604C538.176 420.271 537.123 421.127 535.062 420.337V422.049L533.177 420.952V419.306C531.839 418.429 530.524 417.288 529.734 416.235L530.765 414.194C531.642 415.291 532.826 416.366 533.856 416.959C534.755 417.485 535.084 417.463 535.084 417.09C535.084 415.73 529.91 413.821 529.91 409.806C529.91 408.073 531.006 407.24 533.221 408.139V406.472L535.084 407.569Z" fill="#5B1BF7"/>
<path d="M543.088 414.019L543.045 424.813L539.887 422.992L539.909 414.94L538.309 414.019V411.276L543.088 414.019Z" fill="#5B1BF7"/>
<path d="M548.457 416.893C550.934 418.319 552.688 421.412 552.688 424.966C552.688 428.543 550.912 429.574 548.435 428.148C545.957 426.722 544.203 423.628 544.203 420.074C544.225 416.498 545.979 415.467 548.457 416.893ZM548.435 425.252C549.049 425.603 549.509 425.23 549.531 423.146C549.531 421.061 549.071 420.162 548.457 419.811C547.843 419.46 547.382 419.833 547.382 421.917C547.382 424.001 547.821 424.901 548.435 425.252Z" fill="#5B1BF7"/>
<path d="M557.73 422.246C560.208 423.672 561.962 426.765 561.962 430.32C561.962 433.896 560.186 434.927 557.708 433.501C555.231 432.075 553.477 428.981 553.477 425.427C553.477 421.851 555.253 420.82 557.73 422.246ZM557.708 430.605C558.322 430.956 558.783 430.583 558.805 428.499C558.805 426.414 558.344 425.515 557.73 425.164C557.116 424.813 556.656 425.186 556.656 427.27C556.656 429.354 557.094 430.254 557.708 430.605Z" fill="#5B1BF7"/>
<path d="M510.138 394.734L510.116 405.901L411.359 348.838L411.381 337.671L510.138 394.734Z" fill="#BAA1F7"/>
<path d="M449.787 342.848L411.446 320.69L411.402 331.857L449.787 354.037V342.848Z" fill="#5B1BF7"/>
<path d="M563.879 359.475C572.421 354.507 572.391 338.506 563.812 323.736C555.232 308.965 541.353 301.018 532.811 305.986C524.268 310.954 524.299 326.954 532.878 341.725C541.457 356.495 555.337 364.442 563.879 359.475Z" stroke="url(#paint4_linear)" stroke-width="2" stroke-miterlimit="10"/>
<path d="M584.207 306.1C585.303 306.737 586.268 308.755 585.478 309.633L550.053 348.882C549.746 349.233 549.264 349.211 548.782 348.926C548.234 348.596 547.686 347.96 547.401 347.127L534.818 310.006C534.27 308.36 535.212 307.658 536.221 308.25C536.593 308.47 536.966 308.843 537.295 309.391L546.085 324.639C546.392 325.165 546.787 325.56 547.181 325.802C547.576 326.021 547.971 326.087 548.277 325.911L583.155 306.013C583.462 305.815 583.834 305.881 584.207 306.1Z" fill="white"/>
<g opacity="0.43">
<path opacity="0.43" d="M569.544 461.21C574.476 464.062 578.466 470.973 578.466 476.655L578.4 503.465C578.378 509.147 574.366 511.428 569.434 508.576L417.035 420.513C412.103 417.661 408.113 410.75 408.113 405.068L408.179 378.258C408.201 372.576 412.213 370.294 417.145 373.146L569.544 461.21Z" fill="white"/>
</g>
<path d="M561.696 474.373C566.628 477.225 570.618 484.136 570.618 489.818L570.552 516.628C570.53 522.31 566.519 524.592 561.586 521.74L409.188 433.676C404.255 430.824 400.266 423.913 400.266 418.231L400.331 391.422C400.353 385.739 404.365 383.458 409.297 386.31L561.696 474.373Z" fill="white"/>
<path d="M535.084 484.356V486.001C536.071 486.681 537.036 487.537 537.803 488.48L536.838 490.564C535.918 489.489 535.04 488.721 534.229 488.239C533.308 487.712 533.001 487.844 533.001 488.217C533.001 489.511 538.176 491.442 538.176 495.391C538.176 497.058 537.123 497.914 535.062 497.124V498.835L533.177 497.738V496.093C531.839 495.215 530.524 494.075 529.734 493.022L530.765 490.981C531.642 492.078 532.826 493.153 533.856 493.746C534.755 494.272 535.084 494.25 535.084 493.877C535.084 492.517 529.91 490.608 529.91 486.593C529.91 484.86 531.006 484.027 533.221 484.926V483.259L535.084 484.356Z" fill="#5B1BF7"/>
<path d="M543.088 490.806L543.045 501.6L539.887 499.779L539.909 491.727L538.309 490.806V488.063L543.088 490.806Z" fill="#5B1BF7"/>
<path d="M548.457 493.68C550.934 495.106 552.688 498.199 552.688 501.753C552.688 505.329 550.912 506.361 548.435 504.935C545.957 503.509 544.203 500.415 544.203 496.861C544.225 493.285 545.979 492.254 548.457 493.68ZM548.435 502.039C549.049 502.39 549.509 502.017 549.531 499.932C549.531 497.848 549.071 496.949 548.457 496.598C547.843 496.247 547.382 496.62 547.382 498.704C547.382 500.788 547.821 501.688 548.435 502.039Z" fill="#5B1BF7"/>
<path d="M557.73 499.033C560.208 500.459 561.962 503.552 561.962 507.106C561.962 510.683 560.186 511.714 557.708 510.288C555.231 508.862 553.477 505.768 553.477 502.214C553.477 498.638 555.253 497.607 557.73 499.033ZM557.708 507.392C558.322 507.743 558.783 507.37 558.805 505.286C558.805 503.201 558.344 502.302 557.73 501.951C557.116 501.6 556.656 501.973 556.656 504.057C556.656 506.141 557.094 507.041 557.708 507.392Z" fill="#5B1BF7"/>
<path d="M510.138 471.521L510.116 482.688L411.359 425.625L411.381 414.458L510.138 471.521Z" fill="#BAA1F7"/>
<path d="M449.787 419.635L411.446 397.477L411.402 408.644L449.787 430.824V419.635Z" fill="#5B1BF7"/>
<g opacity="0.5">
<path opacity="0.5" d="M582.278 569.282C583.988 571.41 585.018 574.109 585.018 576.368L584.865 633.805C584.865 637.293 582.388 638.719 579.319 636.942L550.602 620.356C547.555 618.601 545.099 614.345 545.121 610.857L545.275 553.42C545.275 551.16 546.349 549.668 548.059 549.515L562.439 548.264C563.294 548.198 564.259 548.462 565.201 549.01C566.144 549.559 567.109 550.392 567.942 551.445L582.278 569.282Z" fill="url(#paint5_linear)"/>
</g>
<path d="M564.743 568.734C566.453 570.862 567.483 573.56 567.483 575.82L567.33 633.256C567.33 636.745 564.853 638.171 561.784 636.394L533.066 619.808C530.019 618.053 527.564 613.796 527.586 610.308L527.74 552.872C527.74 550.612 528.814 549.12 530.524 548.966L544.904 547.716C545.759 547.65 546.724 547.913 547.666 548.462C548.609 549.01 549.573 549.844 550.406 550.897L564.743 568.734ZM547.622 560.814C549.113 561.669 550.319 560.989 550.341 559.278C550.341 557.567 549.135 555.482 547.644 554.605C546.132 553.727 544.948 554.429 544.926 556.141C544.926 557.852 546.132 559.936 547.622 560.814Z" fill="#E0D900"/>
<path d="M549.573 513.754C550.122 515.29 551.174 516.847 552.27 518.493C554.244 521.433 556.502 524.789 555.603 528.146C555.099 530.099 553.498 530.537 552.095 530.932C550.122 531.481 548.916 531.942 549.332 534.64C549.639 536.527 550.889 538.326 552.204 540.235C553.937 542.714 555.91 545.544 555.691 548.725C555.515 551.467 553.717 551.994 552.117 552.433C550.56 552.871 549.223 553.288 549.201 555.394L547.578 554.451C547.622 551.423 549.486 550.853 551.152 550.392C552.665 549.954 553.959 549.581 554.09 547.672C554.244 545.456 552.862 543.482 551.262 541.178C549.815 539.094 548.17 536.746 547.754 534.092C547.118 529.967 549.266 529.397 551.152 528.87C552.446 528.519 553.674 528.19 554.046 526.786C554.616 524.548 553.367 522.508 551.262 519.37C550.078 517.593 548.828 515.772 548.126 513.776L549.573 513.754Z" fill="white"/>
<path d="M552.424 584.771L554.309 585.868L542.647 598.702L540.762 597.627L552.424 584.771Z" fill="white"/>
<path d="M552.908 594.117C555.254 595.477 556.854 598.571 556.854 601.752C556.854 604.911 555.232 606.14 552.886 604.779C550.54 603.419 548.961 600.348 548.961 597.188C548.961 594.007 550.562 592.779 552.908 594.117ZM552.886 603.2C554.355 604.033 555.276 603.156 555.276 600.852C555.276 598.527 554.355 596.574 552.908 595.718C551.439 594.863 550.518 595.74 550.518 598.088C550.496 600.435 551.417 602.344 552.886 603.2Z" fill="white"/>
<path d="M546.115 586.307C546.115 589.51 544.514 590.716 542.168 589.356C539.8 587.996 538.199 584.925 538.199 581.743C538.199 578.562 539.822 577.334 542.19 578.694C544.536 580.054 546.115 583.104 546.115 586.307ZM539.778 582.665C539.778 584.968 540.699 586.943 542.146 587.777C543.615 588.632 544.514 587.755 544.536 585.407C544.536 583.06 543.659 581.151 542.168 580.295C540.721 579.44 539.8 580.339 539.778 582.665Z" fill="white"/>
<g opacity="0.53">
<path opacity="0.53" d="M461.076 485.102C469.626 490.038 476.553 502.039 476.531 511.867C476.509 521.718 469.538 525.689 460.989 520.731L361.158 463.053C352.608 458.117 345.681 446.116 345.703 436.265C345.725 426.415 352.696 422.465 361.246 427.402L461.076 485.102Z" fill="#6FB0F7"/>
</g>
<path d="M457.065 496.422C465.614 501.358 472.541 513.359 472.519 523.188C472.497 533.039 465.526 537.009 456.977 532.051L357.146 474.373C348.597 469.437 341.67 457.436 341.691 447.586C341.713 437.735 348.684 433.786 357.234 438.722L457.065 496.422Z" fill="#E0006C"/>
<path d="M361.884 453.487C363.178 454.233 364.515 455.418 365.436 456.669L364.91 457.809C363.967 456.559 362.871 455.593 361.884 455.023C359.998 453.948 359.209 454.387 359.209 455.484C359.209 458.577 365.874 460.508 365.874 465.159C365.874 467.09 364.515 467.989 361.599 466.3C359.911 465.334 358.266 463.733 357.367 462.263L357.959 461.188C358.792 462.526 360.174 463.93 361.599 464.764C363.506 465.861 364.34 465.488 364.34 464.391C364.34 461.276 357.674 459.389 357.674 454.672C357.652 452.719 358.968 451.82 361.884 453.487Z" fill="white"/>
<path d="M377.672 462.768L377.65 475.448L376.072 474.527V468.889L369.735 465.225L369.713 470.863L368.156 469.964L368.178 457.283L369.757 458.182L369.735 463.645L376.072 467.309L376.093 461.846L377.672 462.768Z" fill="white"/>
<path d="M385.952 467.397C389.306 469.327 391.805 473.54 391.783 477.269C391.783 480.999 389.284 482.315 385.908 480.385C382.51 478.432 380.033 474.22 380.055 470.512C380.077 466.782 382.576 465.444 385.952 467.397ZM385.93 478.761C388.385 480.187 390.205 479.156 390.205 476.348C390.205 473.54 388.407 470.424 385.952 468.998C383.475 467.572 381.655 468.581 381.633 471.39C381.633 474.198 383.453 477.335 385.93 478.761Z" fill="white"/>
<path d="M398.537 474.812C401.387 476.458 403.119 479.134 403.119 481.898C403.119 484.641 401.365 485.299 398.515 483.654L395.796 482.074L395.774 485.913L394.195 484.992L394.239 472.311L398.537 474.812ZM398.449 482.03C400.466 483.193 401.541 482.776 401.541 480.977C401.541 479.156 400.488 477.511 398.471 476.348L395.796 474.812L395.774 480.494L398.449 482.03Z" fill="white"/>
<path d="M419.605 486.988L419.583 499.669L417.478 498.463L411.997 487.603L411.975 495.281L409.453 493.833L409.497 481.153L411.602 482.359L417.061 493.219L417.083 485.54L419.605 486.988Z" fill="white"/>
<path d="M427.558 491.376C431.022 493.373 433.587 497.651 433.565 501.424C433.565 505.198 430.978 506.492 427.514 504.496C424.029 502.477 421.486 498.221 421.508 494.47C421.53 490.674 424.095 489.358 427.558 491.376ZM427.536 501.995C429.509 503.136 431 502.346 431 499.932C431 497.519 429.531 495.018 427.558 493.877C425.585 492.736 424.117 493.526 424.095 495.94C424.095 498.353 425.563 500.854 427.536 501.995Z" fill="white"/>
<path d="M451.85 505.615L448.189 516.211L445.449 514.632L443.059 504.627L440.517 511.78L437.798 510.2L434.203 495.435L436.856 496.949L439.311 507.304L441.941 499.889L444.309 501.271L446.808 511.692L449.395 504.211L451.85 505.615Z" fill="white"/>
<path d="M125.477 604.143L196.546 562.81L403.859 683.672L332.789 725.006L125.477 604.143Z" fill="url(#paint6_linear)"/>
<path d="M240.697 632.467L242.889 633.761C245.849 635.516 249.532 635.384 252.36 633.432L253.324 632.752C255.45 631.282 256.7 628.803 256.59 626.192L272.922 621.848C272.922 621.848 281.252 619.413 283.861 622.901C286.47 626.368 279.52 639.772 261.106 642.383C261.106 642.383 257.993 642.822 252.601 648.987C248.962 653.155 238.878 651.597 238.352 645.674C238.023 641.856 238.111 636.854 238.22 633.805C238.264 632.554 239.623 631.83 240.697 632.467Z" fill="#050A1A"/>
<path d="M238.77 618.14L239.339 628.408C239.493 631.392 241.225 634.068 243.855 635.472L244.447 635.779C247.209 637.249 250.541 637.074 253.15 635.341C255.627 633.673 257.074 630.843 256.921 627.859L256.329 614.85L238.77 618.14Z" fill="#EFB488"/>
<path d="M264.352 638.982L264.922 649.25C265.075 652.234 266.807 654.91 269.437 656.314L270.029 656.622C272.791 658.092 276.123 657.916 278.732 656.183C281.209 654.515 282.656 651.685 282.503 648.702L281.911 635.692L264.352 638.982Z" fill="#EFB488"/>
<path d="M266.04 651.773L268.342 653.133C271.454 654.976 275.335 654.844 278.294 652.782L279.324 652.08C281.56 650.522 282.854 647.934 282.744 645.191L299.909 640.628C299.909 640.628 308.677 638.061 311.417 641.725C314.158 645.389 306.858 659.452 287.479 662.194C287.479 662.194 284.213 662.655 278.535 669.149C274.699 673.537 264.111 671.891 263.563 665.682C263.212 661.668 263.322 656.402 263.431 653.199C263.497 651.883 264.922 651.115 266.04 651.773Z" fill="#050A1A"/>
<path d="M232.105 468.23L240.195 530.559C240.633 533.938 240.348 537.383 239.296 540.63C237.476 546.334 235.744 552.872 235.898 558.225L237.498 620.247C237.52 621.409 238.265 622.44 239.362 622.857C243.198 624.283 252.186 628.21 258.565 620.817C259.113 620.181 259.398 619.347 259.42 618.513C259.792 609.365 262.27 553.771 269.043 523.627C276.453 490.718 280.004 467.397 273.165 451.776L232.105 468.23Z" fill="#0C1D47"/>
<path d="M258.036 477.73C257.664 489.314 257.795 502.039 258.76 515.751C259.856 531.305 261.829 545.5 264.196 558.115C263.254 560.857 262.333 564.258 261.741 568.163C261.215 571.564 260.996 575.03 261.083 578.496L262.684 640.518C262.705 641.681 263.451 642.712 264.547 643.129C268.383 644.555 277.371 648.482 283.75 641.089C284.298 640.452 284.583 639.619 284.605 638.785C284.978 629.636 287.455 574.043 294.229 543.92C301.638 511.012 305.19 487.69 298.35 472.07L258.036 477.73Z" fill="#1B3D96"/>
<path d="M301.4 465.334C301.4 465.334 298.287 427.38 300.413 419.789C302.145 413.646 302.408 407.196 301.202 400.921L297.936 382.47C293.552 366.565 280.706 360.092 280.706 360.092C270.271 354.915 258.324 344.165 246.004 349.167C225.31 357.591 232.588 389.206 240.173 404.168C244.053 411.847 246.223 421.829 243.549 429.991C240.962 437.845 234.758 443.812 232.084 451.688C229.716 458.643 229.146 466.234 230.505 473.452C231.711 479.77 237.279 482.71 242.716 485.145L277.22 499.362C279.193 500.174 281.385 500.525 283.665 500.481C287.589 500.415 291.053 497.98 292.434 494.316C293.705 490.981 294.867 486.835 295.459 482.008C297.235 481.613 295.832 481.92 297.629 481.525C298.681 483.259 299.931 486.001 300.83 489.862C301.575 488.041 302.013 486.067 302.057 484.048L302.145 479.924C302.255 475.053 301.992 470.183 301.4 465.334Z" fill="#E3E4E8"/>
<path d="M278.01 361.387C273.428 361.782 264.55 361.497 260.56 354.125C260.56 354.125 260.034 326.789 260.034 326.767C259.925 321.216 262.709 315.732 267.268 312.572C270.622 310.247 274.985 309.654 278.975 309.501C282.131 309.369 287.831 308.689 290.155 311.344C291.316 312.66 292.632 317.794 292.632 319.571C292.632 323.893 294.144 328.588 294.144 332.91C294.144 335.016 292.895 342.431 292.917 344.274C292.917 345.7 292.654 347.148 291.908 348.377C291.295 349.364 290.374 350.132 289.3 350.593C288.094 351.119 286.954 350.812 285.77 351.119C280.356 352.502 280.86 358.293 280.86 358.293C280.838 359.895 279.61 361.255 278.01 361.387Z" fill="#EFB488"/>
<path d="M300.412 419.789C302.143 413.646 302.406 407.196 301.201 400.921L297.934 382.47C296.795 378.302 295.063 374.814 293.134 371.896C289.911 374.068 286.842 376.459 284.014 379.114C287.302 383.282 289.407 388.942 289.604 397.192C290.393 429.837 293.616 485.782 278.402 499.779C279.981 500.261 281.691 500.503 283.444 500.503C287.478 500.481 291.073 497.936 292.498 494.162C293.747 490.85 294.887 486.769 295.457 482.008C297.233 481.613 295.83 481.92 297.606 481.525C298.658 483.259 299.907 486.001 300.806 489.884C301.552 488.063 301.99 486.089 302.034 484.07L302.121 479.946C302.231 475.075 301.99 470.183 301.398 465.334C301.398 465.334 298.285 427.38 300.412 419.789Z" fill="#B2B2B5"/>
<path d="M323.715 410.487L375.494 380.408C375.779 380.255 376.064 380.123 376.349 380.013L390.576 374.419C391.672 373.98 392.899 374.594 393.228 375.735C393.513 376.722 393.009 377.753 392.044 378.126L384.218 381.264C383.407 381.593 382.991 382.47 383.232 383.326C384.021 386.025 385.139 391.729 381.654 394.208C379.264 395.897 376.875 397.367 375.099 398.398C373.345 399.429 371.394 400.066 369.378 400.285L364.664 400.811C361.815 401.141 359.118 402.369 357.014 404.322L334.5 425.844L323.715 410.487Z" fill="#EFB488"/>
<path d="M283.292 361.826C283.292 361.826 298.09 364.02 304.403 373.892C309.971 382.624 325.228 409.28 325.228 409.28L327.837 408.183C327.837 408.183 336.189 417.924 336.058 425.471L322.488 432.601C322.488 432.601 317.008 437.274 307.143 421.632C297.278 405.989 284.125 382.953 284.125 382.953C284.125 382.953 272.88 367.859 283.292 361.826Z" fill="#E3E4E8"/>
<path d="M325.863 406.976C325.863 406.976 334.807 416.673 336.276 426.722L345.593 420.14C345.593 420.14 344.869 405.879 334.632 401.667L325.863 406.976Z" fill="#FAFBFF"/>
<path d="M292.016 315.754C292.016 315.754 291.643 324.156 280.332 334.402C274.829 339.382 272.287 349.298 277.504 365.248C278.907 369.504 280.047 373.673 280.858 377.775C284.87 398.157 269.546 417.77 248.787 417.244C247.581 417.222 246.397 417.112 245.257 416.937C243.46 416.652 241.421 415.928 239.229 414.896C223.336 407.393 217.176 388.175 224.695 372.291C228.158 364.985 238.79 356.231 237.212 348.574C232.543 325.802 242.188 293.376 267.354 295.087C295.304 296.996 292.016 315.754 292.016 315.754Z" fill="#E0006C"/>
<path d="M282.613 304.279C280.859 301.647 277.132 301.296 274.831 303.468C273.143 305.047 270.951 307.066 268.167 309.611C248.985 327.162 268.715 346.095 268.715 346.095C266.785 337.034 276.124 327.447 276.124 327.447C287.392 316.829 285.704 308.909 282.613 304.279Z" fill="#F23F95"/>
<defs>
<linearGradient id="paint0_linear" x1="-6.96114" y1="354.75" x2="241.177" y2="222.458" gradientUnits="userSpaceOnUse">
<stop offset="0.0245" stop-color="#9BC9FF"/>
<stop offset="0.9807" stop-color="white" stop-opacity="0"/>
</linearGradient>
<linearGradient id="paint1_linear" x1="-77.9369" y1="376.993" x2="246.919" y2="265.232" gradientUnits="userSpaceOnUse">
<stop stop-color="#6FB0F7"/>
<stop offset="0.1659" stop-color="#6EACF5"/>
<stop offset="0.3226" stop-color="#69A1ED"/>
<stop offset="0.4757" stop-color="#628EE1"/>
<stop offset="0.6265" stop-color="#5973CF"/>
<stop offset="0.7758" stop-color="#4C50B8"/>
<stop offset="0.9219" stop-color="#3C279D"/>
<stop offset="1" stop-color="#330D8C"/>
</linearGradient>
<linearGradient id="paint2_linear" x1="414.981" y1="166.557" x2="414.981" y2="598.028" gradientUnits="userSpaceOnUse">
<stop stop-color="#6FB0F7"/>
<stop offset="0.1657" stop-color="#6EACF7"/>
<stop offset="0.3222" stop-color="#6DA1F7"/>
<stop offset="0.4752" stop-color="#6A8EF7"/>
<stop offset="0.6259" stop-color="#6773F7"/>
<stop offset="0.775" stop-color="#6250F7"/>
<stop offset="0.9209" stop-color="#5D27F7"/>
<stop offset="0.9572" stop-color="#5B1BF7"/>
</linearGradient>
<linearGradient id="paint3_linear" x1="460.441" y1="206.063" x2="376.831" y2="365.264" gradientUnits="userSpaceOnUse">
<stop offset="0.3069" stop-color="#6FB0F7"/>
<stop offset="1" stop-color="#6FB0F7" stop-opacity="0"/>
</linearGradient>
<linearGradient id="paint4_linear" x1="533.067" y1="306.427" x2="563.64" y2="358.999" gradientUnits="userSpaceOnUse">
<stop stop-color="#6FB0F7"/>
<stop offset="0.1657" stop-color="#6EACF7"/>
<stop offset="0.3222" stop-color="#6DA1F7"/>
<stop offset="0.4752" stop-color="#6A8EF7"/>
<stop offset="0.6259" stop-color="#6773F7"/>
<stop offset="0.775" stop-color="#6250F7"/>
<stop offset="0.9209" stop-color="#5D27F7"/>
<stop offset="0.9572" stop-color="#5B1BF7"/>
</linearGradient>
<linearGradient id="paint5_linear" x1="549.09" y1="575.868" x2="603.916" y2="630.65" gradientUnits="userSpaceOnUse">
<stop offset="0.0245" stop-color="#6AAFFF"/>
<stop offset="0.9807" stop-color="white" stop-opacity="0"/>
</linearGradient>
<linearGradient id="paint6_linear" x1="204.881" y1="547.376" x2="320.774" y2="734.211" gradientUnits="userSpaceOnUse">
<stop stop-color="white" stop-opacity="0"/>
<stop offset="0.4867" stop-color="#BFDDFF"/>
<stop offset="1" stop-color="white" stop-opacity="0"/>
</linearGradient>
</defs>
</svg>
