<svg width="606" height="561" viewBox="0 0 606 561" fill="none" xmlns="http://www.w3.org/2000/svg">
<path d="M128.053 339.229L367.129 479.418C372.73 482.697 379.652 482.788 385.299 479.646L556.09 383.469C558.162 382.331 559.46 380.145 559.46 377.777V375.796L303.74 229.208L128.144 327.913C124.456 329.916 124.41 337.089 128.053 339.229Z" fill="#E8FFFF"/>
<path d="M128.44 337.089L366.697 475.844C372.275 479.1 379.174 479.122 384.775 475.912L559.46 375.796L304.036 227.023L128.463 327.639C124.843 329.734 124.82 334.971 128.44 337.089Z" fill="#CBE1FF"/>
<path d="M180.673 312.27L406.133 442.806L526.467 374.225L300.985 243.69L180.673 312.27Z" fill="#E8FFFF"/>
<path d="M493.52 360.381L476.535 370.195L494.727 380.782L511.713 370.992L493.52 360.381Z" fill="#12005C"/>
<path d="M471.048 367.053L488.033 357.239L469.841 346.652L452.855 356.465L471.048 367.053Z" fill="#12005C"/>
<path d="M447.368 353.323L464.353 343.509L446.184 332.899L429.198 342.713L447.368 353.323Z" fill="#12005C"/>
<path d="M423.71 339.593L440.696 329.78L422.504 319.169L405.518 328.983L423.71 339.593Z" fill="#12005C"/>
<path d="M400.031 325.863L417.016 316.05L398.847 305.439L381.838 315.253L400.031 325.863Z" fill="#12005C"/>
<path d="M376.373 312.111L393.359 302.297L375.167 291.71L358.181 301.523L376.373 312.111Z" fill="#12005C"/>
<path d="M352.693 298.381L369.679 288.568L351.487 277.98L334.501 287.793L352.693 298.381Z" fill="#12005C"/>
<path d="M329.036 284.651L346.022 274.838L327.83 264.227L310.844 274.041L329.036 284.651Z" fill="#12005C"/>
<path d="M322.342 261.108L304.15 250.498L287.164 260.311L305.357 270.921L322.342 261.108Z" fill="#12005C"/>
<path d="M456.771 381.853L474.964 392.463L491.95 382.65L473.757 372.062L456.771 381.853Z" fill="#12005C"/>
<path d="M468.293 368.92L450.1 358.309L433.114 368.123L451.284 378.733L468.293 368.92Z" fill="#12005C"/>
<path d="M444.612 355.19L426.42 344.58L409.434 354.393L427.627 365.003L444.612 355.19Z" fill="#12005C"/>
<path d="M385.754 340.663L403.947 351.251L420.933 341.46L402.763 330.85L385.754 340.663Z" fill="#12005C"/>
<path d="M362.097 326.934L380.29 337.521L397.275 327.708L379.083 317.12L362.097 326.934Z" fill="#12005C"/>
<path d="M338.417 313.181L356.61 323.791L373.596 313.978L355.403 303.367L338.417 313.181Z" fill="#12005C"/>
<path d="M314.76 299.451L332.953 310.062L349.939 300.248L331.746 289.638L314.76 299.451Z" fill="#12005C"/>
<path d="M291.08 285.721L309.273 296.332L326.259 286.518L308.066 275.908L291.08 285.721Z" fill="#12005C"/>
<path d="M302.579 272.766L284.409 262.178L267.423 271.992L285.593 282.579L302.579 272.766Z" fill="#12005C"/>
<path d="M437.031 393.533L455.2 404.144L472.209 394.33L454.016 383.72L437.031 393.533Z" fill="#12005C"/>
<path d="M448.529 380.6L430.336 369.99L413.351 379.803L431.543 390.414L448.529 380.6Z" fill="#12005C"/>
<path d="M424.849 366.848L406.679 356.26L389.693 366.074L407.863 376.661L424.849 366.848Z" fill="#12005C"/>
<path d="M401.192 353.118L382.999 342.53L366.014 352.321L384.206 362.931L401.192 353.118Z" fill="#12005C"/>
<path d="M377.512 339.388L359.319 328.778L342.334 338.591L360.526 349.202L377.512 339.388Z" fill="#12005C"/>
<path d="M353.855 325.658L335.662 315.048L318.677 324.861L336.869 335.472L353.855 325.658Z" fill="#12005C"/>
<path d="M294.997 311.132L313.189 321.719L330.175 311.929L311.982 301.318L294.997 311.132Z" fill="#12005C"/>
<path d="M271.34 297.402L289.509 307.99L306.518 298.176L288.325 287.588L271.34 297.402Z" fill="#12005C"/>
<path d="M282.838 284.446L264.645 273.836L247.66 283.649L265.852 294.26L282.838 284.446Z" fill="#12005C"/>
<path d="M417.267 405.214L435.459 415.801L452.445 405.988L434.252 395.4L417.267 405.214Z" fill="#12005C"/>
<path d="M428.765 392.258L410.596 381.67L393.61 391.484L411.78 402.072L428.765 392.258Z" fill="#12005C"/>
<path d="M405.108 378.528L386.915 367.918L369.93 377.731L388.122 388.342L405.108 378.528Z" fill="#12005C"/>
<path d="M381.428 364.799L363.259 354.188L346.25 364.002L364.443 374.612L381.428 364.799Z" fill="#12005C"/>
<path d="M357.771 351.069L339.579 340.458L322.593 350.272L340.785 360.882L357.771 351.069Z" fill="#12005C"/>
<path d="M334.091 337.316L315.899 326.729L298.913 336.542L317.105 347.13L334.091 337.316Z" fill="#12005C"/>
<path d="M310.434 323.586L292.242 312.999L275.256 322.79L293.426 333.4L310.434 323.586Z" fill="#12005C"/>
<path d="M251.576 309.06L269.768 319.67L286.754 309.857L268.562 299.246L251.576 309.06Z" fill="#12005C"/>
<path d="M263.074 296.127L244.905 285.516L227.919 295.33L246.089 305.94L263.074 296.127Z" fill="#12005C"/>
<path d="M397.526 416.871L415.696 427.482L432.681 417.668L414.512 407.058L397.526 416.871Z" fill="#12005C"/>
<path d="M390.832 393.328L373.846 403.142L392.039 413.752L409.024 403.939L390.832 393.328Z" fill="#12005C"/>
<path d="M367.175 379.598L350.166 389.412L368.359 400.022L385.345 390.209L367.175 379.598Z" fill="#12005C"/>
<path d="M337.985 362.749L338.007 362.727L319.815 352.139L319.747 352.162L314.305 349.02L314.35 348.997L296.158 338.386L296.067 338.455L290.625 335.29L290.671 335.267L272.478 324.657L272.387 324.725L255.401 334.538L344.702 386.27L361.687 376.456L337.985 362.749Z" fill="#12005C"/>
<path d="M248.821 310.927L231.835 320.74L250.005 331.351L266.991 321.537L248.821 310.927Z" fill="#12005C"/>
<path d="M225.141 297.197L208.155 307.011L226.348 317.598L243.334 307.785L225.141 297.197Z" fill="#12005C"/>
<path d="M221.338 384.221L274.322 415.209L305.243 397.563C306.381 396.903 306.404 395.264 305.265 394.581L258.862 367.462C256.38 366.005 253.306 365.982 250.802 367.417L221.338 384.221Z" fill="#E8FFFF"/>
<path d="M283.453 407.627L273.981 413.023L224.276 383.947L233.748 378.551L283.453 407.627Z" fill="#CBE1FF"/>
<path d="M318.403 25.9257L553.699 162.927C559.141 166.092 562.488 171.921 562.488 178.228L559.437 375.819L306.996 224.7V32.4832C306.996 26.6315 313.349 22.9657 318.403 25.9257Z" fill="#E8FFFF"/>
<path d="M315.352 28.2482L548.189 163.816C555.156 167.868 559.437 175.314 559.437 183.397V375.796L303.945 227.045V34.8057C303.945 28.9541 310.297 25.311 315.352 28.2482Z" fill="#B7C7FF"/>
<path d="M559.437 351.843L303.945 203.092V31.7774C303.945 27.2691 308.84 24.4457 312.734 26.7226L552.105 166.092C556.659 168.734 559.46 173.606 559.46 178.866V351.843H559.437Z" fill="#12005C"/>
<path d="M546.732 328.983L316.787 195.852V47.0099L546.732 180.141V328.983Z" fill="#0067FF"/>
<path d="M540.334 279.05L396.911 195.943V104.639L540.334 187.769V279.05Z" fill="#410890"/>
<path d="M533.207 198.789L450.692 151.019V145.919L533.207 193.689V198.789Z" fill="#FFE51C"/>
<path d="M533.207 212.109L450.692 164.339V159.239L533.207 207.009V212.109Z" fill="#FFE51C"/>
<path d="M533.207 227.979L450.692 180.209V174.289L533.207 222.059V227.979Z" fill="#3BFAFF"/>
<path d="M533.207 241.709L450.692 193.916V187.996L533.207 235.766V241.709Z" fill="#3BFAFF"/>
<path d="M438.784 184.103L426.215 176.657V158.465L438.784 165.91V184.103Z" fill="#3BFAFF"/>
<path d="M416.902 171.284L404.357 163.838V145.623L416.902 153.091V171.284Z" fill="#3BFAFF"/>
<path d="M416.902 198.493L404.357 191.047V172.855L416.902 180.3V198.493Z" fill="#3BFAFF"/>
<path opacity="0.56" d="M531.135 310.927L438.783 256.304V199.996L531.135 254.619V310.927Z" fill="#FFFF00"/>
<path opacity="0.57" d="M450.692 233.17L423.346 217.004V200.337L450.692 216.503V233.17Z" fill="#00E2E7"/>
<path d="M361.801 139.339L325.826 117.981V65.8627L361.801 87.2202V139.339Z" fill="#410890"/>
<path d="M374.21 169.257L345.544 152.272V110.741L374.21 127.749V169.257Z" fill="#3BFAFF"/>
<path d="M366.742 154.048L352.99 145.896V125.95L366.742 134.125V154.048Z" fill="#FF1C4D"/>
<path d="M384.161 214.841L373.618 208.58V193.302L384.161 199.563V214.841Z" fill="#3BFAFF"/>
<path d="M406.474 227.524L395.909 221.262V205.984L406.474 212.245V227.524Z" fill="#3BFAFF"/>
<path d="M360.162 92.7986L341.081 81.6417V79.5014L360.162 90.6811V92.7986Z" fill="#FF1C4D"/>
<path d="M360.162 96.9881L341.081 85.8312V83.6909L360.162 94.8478V96.9881Z" fill="#3BFAFF"/>
<path d="M350.621 99.47L331.564 88.2903V86.15L350.621 97.3297V99.47Z" fill="#3BFAFF"/>
<path d="M350.621 106.119L331.564 94.939V92.7987L350.621 103.978V106.119Z" fill="#FFE51C"/>
<path d="M339.305 106.46L331.564 101.952V99.8115L339.305 104.343V106.46Z" fill="#3BFAFF"/>
<path d="M339.305 112.767L331.564 108.236V106.119L339.305 110.627V112.767Z" fill="#FFE51C"/>
<path d="M339.305 119.051L331.564 114.543V112.403L339.305 116.911V119.051Z" fill="#3BFAFF"/>
<path d="M358.363 103.272L355.494 101.587V99.47L358.363 101.155V103.272Z" fill="#3BFAFF"/>
<path d="M358.363 106.551L355.494 104.866V102.749L358.363 104.434V106.551Z" fill="#FF1C4D"/>
<path d="M358.363 109.83L355.494 108.145V106.027L358.363 107.712V109.83Z" fill="#3BFAFF"/>
<path d="M358.363 113.109L355.494 111.424V109.306L358.363 110.991V113.109Z" fill="#FF1C4D"/>
<path d="M358.363 116.387L355.494 114.703V112.585L358.363 114.27V116.387Z" fill="#FF1C4D"/>
<path d="M526.468 275.908L471.844 243.94V237.815L526.468 269.806V275.908Z" fill="#0040DE"/>
<path d="M526.468 286.7L471.844 254.733V248.63L526.468 280.598V286.7Z" fill="#0040DE"/>
<path d="M526.467 297.493L448.187 251.682V245.557L526.467 291.391V297.493Z" fill="#0040DE"/>
<path d="M461.553 68.891L456.156 102.589H464.877L463.42 67.8664L461.553 68.891Z" fill="#CFE4FF"/>
<path d="M475.829 93.1629L423.642 95.1666L393.724 141.798L396.114 143.255C396.114 143.255 419.362 132.394 431.065 108.555C452.445 111.242 486.599 105.162 486.599 105.162L487.715 96.4189" fill="#000D3A"/>
<path d="M396.114 143.278L393.723 148.378L377.58 136.857L393.723 141.798L396.114 143.278Z" fill="#000F1F"/>
<path d="M426.215 154.275L422.344 153.068L431.315 99.9937L460.027 100.244L490.925 105.071C490.925 105.071 492.792 111.629 482.887 118.209C474.622 123.696 464.854 120.327 464.854 120.327L443.155 112.152C444.225 118.573 441.425 132.895 426.215 154.275Z" fill="#001F5E"/>
<path d="M461.097 100.381C461.097 100.381 468.634 116.182 489.194 111.788C491.13 108.099 490.925 105.071 490.925 105.071L461.097 100.381Z" fill="#000D3A"/>
<path d="M422.344 153.091L402.467 157.258L425.896 159.603L426.215 154.275L422.344 153.091Z" fill="#000F1F"/>
<path d="M464.535 51.1767C464.535 51.1767 470.045 56.9373 471.161 68.208C471.161 68.208 441.015 74.8566 415.172 46.8733L419.248 41.3177C419.27 41.2949 445.432 58.2124 464.535 51.1767Z" fill="#F5FDFF"/>
<path d="M457.568 68.6406L463.443 51.9053L463.625 68.8911C461.871 68.9138 459.822 68.8455 457.568 68.6406Z" fill="#CFE4FF"/>
<path d="M416.311 39.8376L410.277 35.466H395.636C395.636 35.466 394.908 38.4943 405.222 38.221L404.562 41.3404L407.818 45.3478L413.51 44.9152L414.853 45.9625L416.311 39.8376Z" fill="#FFCDA9"/>
<path d="M412.121 44.6875L416.311 39.2457L419.271 41.2949L415.195 46.8506L412.121 44.6875Z" fill="#21EEFF"/>
<path d="M453.401 22.4192C453.401 22.4192 450.601 30.0924 451.352 40.3613C451.352 40.3613 455.337 42.4788 462.464 40.9305L464.467 50.152C464.467 50.152 470.615 48.6492 471.731 47.0326C472.254 46.2812 471.867 43.3668 471.867 43.3668L470.478 36.9687L468.406 37.037L469.158 34.0542C469.158 34.0542 471.958 33.2345 472.3 30.1152C472.641 26.9958 469.454 28.4303 468.725 28.9539L467.951 31.0487C467.951 31.0487 467.359 26.8137 469.636 25.2198L467.883 21.3263C467.883 21.3263 461.78 24.1269 453.401 22.4192Z" fill="#FFCDA9"/>
<path d="M469.636 25.2199L468.52 22.738C470.911 19.482 463.989 14.4273 464.444 10.3516C475.67 12.6285 476.876 20.4611 476.876 20.4611C481.817 31.7091 472.459 36.1263 472.459 36.1263C472.095 38.2666 470.934 39.0635 470.934 39.0635L470.478 36.9232L468.406 36.9915L469.158 34.0087C471.571 32.8703 473.006 29.8192 471.685 28.658C470.387 27.4968 468.702 28.9085 468.702 28.9085L467.928 31.0032C467.131 26.4949 469.636 25.2199 469.636 25.2199Z" fill="#131637"/>
<path d="M459.686 24.5367C460.346 26.1761 463.192 26.5859 466.061 25.4475C468.93 24.309 470.706 22.0549 470.068 20.4155C469.431 18.7761 466.562 18.3663 463.693 19.5047C460.824 20.6204 459.025 22.8973 459.686 24.5367Z" fill="#131637"/>
<path d="M466.334 25.7435C466.63 26.4949 467.95 26.6771 469.271 26.1534C470.592 25.6297 471.411 24.5823 471.115 23.8309C470.819 23.0795 469.499 22.8974 468.178 23.4211C466.858 23.9448 466.038 24.9694 466.334 25.7435Z" fill="#131637"/>
<path d="M454.153 22.6014C454.54 24.0131 457.136 24.514 459.959 23.7626C462.782 22.9885 464.763 21.2353 464.399 19.8463C464.012 18.4347 461.416 17.9337 458.593 18.6851C455.747 19.4365 453.766 21.2125 454.153 22.6014Z" fill="#131637"/>
<path d="M449.326 21.85C449.713 23.2617 452.308 23.7626 455.132 23.0112C457.955 22.2371 459.936 20.4839 459.572 19.0949C459.185 17.6833 456.589 17.1823 453.766 17.9337C450.919 18.7079 448.939 20.4611 449.326 21.85Z" fill="#131637"/>
<path d="M449.189 12.1503C448.324 14.4273 451.329 17.6832 455.883 19.4137C460.46 21.1669 472.618 23.5804 473.484 21.3035C474.349 19.0266 473.894 12.4008 461.302 9.46359C456.566 8.3479 450.054 9.87344 449.189 12.1503Z" fill="#131637"/>
<path d="M456.316 26.9731L457.477 32.301L454.972 32.8247L456.316 26.9731Z" fill="#FF907D"/>
<path d="M456.908 37.7656C457.181 37.7656 457.431 37.7428 457.705 37.6745C459.481 37.2874 460.733 35.6708 460.642 33.8493C460.619 33.4622 460.277 33.189 459.913 33.189C459.526 33.2118 459.23 33.5305 459.253 33.9176C459.298 35.0788 458.524 36.0807 457.409 36.3311C456.293 36.5816 455.154 35.9668 454.722 34.9194C454.585 34.5551 454.175 34.3958 453.811 34.5324C453.447 34.669 453.287 35.0788 453.424 35.4431C454.039 36.8548 455.428 37.7656 456.908 37.7656Z" fill="#FF907D"/>
<path d="M490.925 105.071C490.925 105.071 492.723 109.557 480.337 108.441C459.367 106.551 460.505 93.1629 460.505 93.1629L462.554 53.3625C462.554 53.3625 462.623 51.7914 464.444 50.1293C466.607 48.1711 471.161 47.784 471.821 43.3441C477.969 43.0481 483.98 52.9526 487.304 64.2689C491.016 76.8374 490.925 105.071 490.925 105.071Z" fill="#21EEFF"/>
<path opacity="0.41" d="M464.353 97.9444C476.102 97.6484 482.888 95.3715 482.888 95.3715C482.888 95.3715 482.523 67.1378 481.408 60.4892C480.269 53.7723 477.56 47.5336 470.615 49.3551C463.488 51.2222 466.038 61.3317 466.038 61.3317L471.503 84.4879L463.42 85.467L464.353 97.9444Z" fill="#CFE4FF"/>
<path d="M464.171 61.1951C464.171 61.1951 462.509 50.8579 470.137 49.6283C477.696 48.3988 479.882 55.0702 480.315 61.992C480.747 68.7544 477.947 95.9407 477.947 95.9407C477.947 95.9407 458.115 99.3106 430.2 88.4042L430.564 83.782L467.518 84.2146L464.171 61.1951Z" fill="#F5FDFF"/>
<path d="M427.65 83.9186L419.27 82.9168L412.371 85.8313L411.392 94.3469C411.392 94.3469 413.35 94.8934 414.034 89.8614L415.969 89.4515C415.969 89.4515 419.589 90.9998 422.344 90.2485C425.077 89.4971 427.854 89.1783 427.854 89.1783L427.65 83.9186Z" fill="#FFCDA9"/>
<path d="M427.811 89.1754L431.657 89.0265L431.453 83.7705L427.608 83.9194L427.811 89.1754Z" fill="#21EEFF"/>
<path d="M393.086 76.7691C393.86 76.974 394.315 77.7937 394.315 77.7937L405.7 97.489L404.106 98.2176L391.788 76.9057C391.788 76.9285 392.289 76.5414 393.086 76.7691Z" fill="#21EEFF"/>
<path d="M392.244 76.291C393.086 76.5187 393.587 77.4295 393.587 77.4295L406.178 99.1967L404.425 99.9937L390.809 76.4504C390.832 76.4504 391.356 76.0405 392.244 76.291Z" fill="#E8FFFF"/>
<path d="M434.684 91.2223L404.068 97.88L404.528 99.9937L435.144 93.336L434.684 91.2223Z" fill="#E8FFFF"/>
<path opacity="0.75" d="M377.58 256.531L295.634 207.896V89.1555L377.58 137.79V256.531Z" fill="#6B29AB"/>
<path opacity="0.75" d="M343.814 241.048L277.032 201.407V104.639L343.814 144.28V241.048Z" fill="#00E6FF"/>
<path opacity="0.75" d="M270.406 207.077V91.1137L350.439 138.61" stroke="#6B29AB" stroke-width="0.5" stroke-miterlimit="10" stroke-linecap="round" stroke-linejoin="round"/>
<path opacity="0.75" d="M293.152 217.391L249.527 191.503V128.296L293.152 154.184V217.391Z" fill="#6B29AB"/>
<path opacity="0.75" d="M298.958 229.299L243.698 196.489V116.387L298.958 149.198V229.299Z" stroke="#6B29AB" stroke-width="0.5" stroke-miterlimit="10"/>
<path opacity="0.75" d="M260.797 199.449L234.75 183.989V146.238L260.797 161.698V199.449Z" fill="#00E6FF"/>
<path opacity="0.75" d="M251.622 186.084L238.666 178.388V159.603L251.622 167.299V186.084Z" fill="#68FFFF"/>
<path opacity="0.75" d="M242.81 181.302L234.522 176.384V164.385L242.81 169.303V181.302Z" fill="#6B29AB"/>
<path opacity="0.75" d="M245.155 186.084L232.199 178.388V159.603L245.155 167.299V186.084Z" stroke="#6B29AB" stroke-width="0.5" stroke-miterlimit="10"/>
<path opacity="0.75" d="M237.846 179.594L231.22 175.678V166.092L237.846 170.009V179.594Z" fill="#6B29AB"/>
<path opacity="0.75" d="M236.047 175.974L232.996 174.153V169.713L236.047 171.534V175.974Z" fill="#68FFFF"/>
<g opacity="0.2">
<path opacity="0.2" d="M389.261 51.4692L334.319 51.4009C331.791 51.4009 329.742 49.3517 329.742 46.8243V4.97466C329.742 2.44729 331.791 0.398071 334.319 0.398071L389.261 0.466379C391.788 0.466379 393.837 2.5156 393.837 5.04297V46.8926C393.86 49.42 391.811 51.4692 389.261 51.4692Z" fill="#10CEFF"/>
</g>
<g opacity="0.75">
<path opacity="0.75" d="M390.627 0.447061L332.998 0.378754C331.2 0.378754 329.742 1.83598 329.742 3.61197V12.3098L393.86 12.3781V3.68028C393.86 1.90429 392.403 0.447061 390.627 0.447061Z" fill="#00E6FF"/>
</g>
<g opacity="0.81">
<g opacity="0.81">
<path opacity="0.81" d="M386.62 47.5791L338.144 47.5108C336.049 47.5108 334.364 45.8259 334.364 43.7311L334.342 19.7097C334.342 17.6149 336.027 15.93 338.121 15.93L386.597 15.9983C388.692 15.9983 390.376 17.6832 390.376 19.778L390.399 43.7994C390.399 45.8714 388.714 47.5791 386.62 47.5791Z" fill="#410890"/>
</g>
</g>
<g opacity="0.3">
<path opacity="0.3" d="M339.374 6.36707C339.374 8.14306 337.916 9.60028 336.14 9.60028C334.364 9.60028 332.907 8.14306 332.907 6.36707C332.907 4.59107 334.364 3.13385 336.14 3.13385C337.939 3.13385 339.374 4.5683 339.374 6.36707Z" fill="#002AB4"/>
</g>
<g opacity="0.75">
<path opacity="0.75" d="M338.645 6.36703C338.645 7.75595 337.529 8.87163 336.14 8.87163C334.751 8.87163 333.636 7.75595 333.636 6.36703C333.636 4.97811 334.751 3.86243 336.14 3.86243C337.529 3.86243 338.645 4.97811 338.645 6.36703Z" fill="#00E6FF"/>
</g>
<path d="M338.167 6.36702C338.167 7.48271 337.256 8.39347 336.14 8.39347C335.025 8.39347 334.114 7.48271 334.114 6.36702C334.114 5.25133 335.025 4.34057 336.14 4.34057C337.279 4.3178 338.167 5.22856 338.167 6.36702Z" fill="#FF2232"/>
<path d="M337.37 6.36698C337.37 7.05006 336.824 7.57375 336.14 7.57375C335.457 7.57375 334.934 7.02729 334.934 6.34421C334.934 5.66114 335.48 5.13745 336.163 5.13745C336.824 5.13745 337.37 5.68391 337.37 6.36698Z" fill="#B51413"/>
<g opacity="0.3">
<path opacity="0.3" d="M348.732 6.36707C348.732 8.14306 347.275 9.60028 345.499 9.60028C343.723 9.60028 342.265 8.14306 342.265 6.36707C342.265 4.59107 343.723 3.13385 345.499 3.13385C347.297 3.13385 348.732 4.59107 348.732 6.36707Z" fill="#002AB4"/>
</g>
<g opacity="0.75">
<path opacity="0.75" d="M348.003 6.36703C348.003 7.75595 346.887 8.87163 345.499 8.87163C344.11 8.87163 342.994 7.75595 342.994 6.36703C342.994 4.97811 344.11 3.86243 345.499 3.86243C346.887 3.86243 348.003 4.97811 348.003 6.36703Z" fill="#00E6FF"/>
</g>
<path d="M347.548 6.367C347.548 7.50546 346.637 8.41622 345.498 8.41622C344.36 8.41622 343.449 7.50546 343.449 6.367C343.449 5.22854 344.36 4.31778 345.498 4.31778C346.637 4.31778 347.548 5.22854 347.548 6.367Z" fill="#FFC500"/>
<path d="M346.728 6.36698C346.728 7.05006 346.182 7.59652 345.498 7.59652C344.815 7.59652 344.269 7.05006 344.269 6.36698C344.269 5.68391 344.815 5.13745 345.498 5.13745C346.182 5.13745 346.728 5.68391 346.728 6.36698Z" fill="#FF9700"/>
<g opacity="0.3">
<path opacity="0.3" d="M358.09 6.36707C358.09 8.14306 356.633 9.60028 354.857 9.60028C353.081 9.60028 351.623 8.14306 351.623 6.36707C351.623 4.59107 353.081 3.13385 354.857 3.13385C356.633 3.15662 358.09 4.59107 358.09 6.36707Z" fill="#002AB4"/>
</g>
<g opacity="0.75">
<path opacity="0.75" d="M357.361 6.36703C357.361 7.75595 356.246 8.87163 354.857 8.87163C353.468 8.87163 352.352 7.75595 352.352 6.36703C352.352 4.97811 353.468 3.86243 354.857 3.86243C356.246 3.86243 357.361 5.00088 357.361 6.36703Z" fill="#00E6FF"/>
</g>
<path d="M356.906 6.367C356.906 7.50546 355.995 8.41622 354.857 8.41622C353.718 8.41622 352.807 7.50546 352.807 6.367C352.807 5.22854 353.718 4.31778 354.857 4.31778C355.995 4.31778 356.906 5.25131 356.906 6.367Z" fill="#3DFF76"/>
<path d="M356.086 6.36698C356.086 7.05006 355.54 7.59652 354.857 7.59652C354.174 7.59652 353.627 7.05006 353.627 6.36698C353.627 5.68391 354.174 5.13745 354.857 5.13745C355.54 5.13745 356.086 5.68391 356.086 6.36698Z" fill="#1A9F58"/>
<path d="M339.897 24.605C339.784 24.605 339.67 24.5595 339.579 24.4684L337.074 21.9638C336.983 21.8727 336.937 21.7589 336.937 21.645C336.937 21.5312 336.983 21.4174 337.074 21.3263L339.579 18.8217C339.761 18.6395 340.034 18.6395 340.216 18.8217C340.398 19.0038 340.398 19.2771 340.216 19.4592L338.03 21.645L340.216 23.8309C340.398 24.013 340.398 24.2863 340.216 24.4684C340.125 24.5595 340.011 24.605 339.897 24.605Z" fill="#FFD000"/>
<path d="M346.204 24.605C346.09 24.605 345.977 24.5595 345.886 24.4684C345.703 24.2863 345.703 24.013 345.886 23.8309L348.071 21.645L345.886 19.4592C345.703 19.2771 345.703 19.0038 345.886 18.8217C346.068 18.6395 346.341 18.6395 346.523 18.8217L349.028 21.3263C349.119 21.4174 349.164 21.5312 349.164 21.645C349.164 21.7589 349.119 21.8727 349.028 21.9638L346.523 24.4684C346.432 24.5595 346.318 24.605 346.204 24.605Z" fill="#FFD000"/>
<path d="M341.992 25.0377C341.946 25.0377 341.878 25.0377 341.833 25.0149C341.605 24.9238 341.468 24.6734 341.559 24.4457L343.563 19.0039C343.654 18.7762 343.905 18.6396 344.132 18.7306C344.36 18.8217 344.497 19.0722 344.406 19.2999L342.402 24.7417C342.334 24.9238 342.174 25.0377 341.992 25.0377Z" fill="#FFD000"/>
<path d="M351.373 25.5614C350.849 25.5614 350.439 25.1516 350.439 24.6279C350.439 24.1042 350.849 23.6943 351.373 23.6943C351.897 23.6943 352.307 24.1042 352.307 24.6279C352.307 25.1516 351.897 25.5614 351.373 25.5614ZM351.373 24.1497C351.1 24.1497 350.895 24.3546 350.895 24.6279C350.895 24.9011 351.123 25.106 351.373 25.106C351.646 25.106 351.851 24.9011 351.851 24.6279C351.874 24.3546 351.646 24.1497 351.373 24.1497Z" fill="#FFD000"/>
<path d="M354.31 25.5614C354.06 25.5614 353.832 25.4703 353.65 25.2882C353.468 25.106 353.377 24.8783 353.377 24.6279C353.377 24.3774 353.468 24.1497 353.65 23.9676C353.832 23.7854 354.06 23.6943 354.31 23.6943C354.834 23.6943 355.244 24.1042 355.244 24.6279C355.244 24.8783 355.153 25.106 354.97 25.2882C354.788 25.4703 354.561 25.5614 354.31 25.5614ZM354.31 24.1497C354.174 24.1497 354.06 24.1953 353.969 24.2863C353.878 24.3774 353.832 24.4913 353.832 24.6279C353.832 24.7645 353.878 24.8783 353.969 24.9694C354.06 25.0605 354.174 25.106 354.31 25.106C354.447 25.106 354.561 25.0605 354.652 24.9694C354.743 24.8783 354.788 24.7645 354.788 24.6279C354.788 24.3774 354.583 24.1497 354.31 24.1497Z" fill="#FFD000"/>
<path d="M357.247 25.5614C356.724 25.5614 356.314 25.1516 356.314 24.6279C356.314 24.1042 356.724 23.6943 357.247 23.6943C357.771 23.6943 358.181 24.1042 358.181 24.6279C358.181 25.1516 357.748 25.5614 357.247 25.5614ZM357.247 24.1497C356.974 24.1497 356.769 24.3774 356.769 24.6279C356.769 24.9011 356.997 25.106 357.247 25.106C357.521 25.106 357.726 24.9011 357.726 24.6279C357.726 24.3774 357.521 24.1497 357.247 24.1497Z" fill="#FFD000"/>
<path d="M380.085 30.2291L338.622 30.1835C338.372 30.1835 338.167 29.9786 338.167 29.7282C338.167 29.4777 338.372 29.2728 338.622 29.2728L380.085 29.3183C380.335 29.3183 380.54 29.5232 380.54 29.7737C380.54 30.0241 380.335 30.2291 380.085 30.2291Z" fill="#12D77E"/>
<path d="M386.574 30.2291H384.684C384.434 30.2291 384.229 30.0241 384.229 29.7737C384.229 29.5232 384.434 29.3183 384.684 29.3183H386.574C386.824 29.3183 387.029 29.5232 387.029 29.7737C387.007 30.0241 386.824 30.2291 386.574 30.2291Z" fill="#12D77E"/>
<path d="M367.789 36.149L338.622 36.1263C338.372 36.1263 338.167 35.9214 338.167 35.6709C338.167 35.4204 338.372 35.2155 338.622 35.2155L367.789 35.2383C368.04 35.2383 368.245 35.4432 368.245 35.6937C368.245 35.9441 368.04 36.149 367.789 36.149Z" fill="#12FFFF"/>
<path d="M376.601 36.149H374.802C374.552 36.149 374.347 35.9441 374.347 35.6937C374.347 35.4432 374.552 35.2383 374.802 35.2383H376.601C376.852 35.2383 377.057 35.4432 377.057 35.6937C377.057 35.9441 376.852 36.149 376.601 36.149Z" fill="#12FFFF"/>
<path d="M367.79 39.5644H363.167C362.917 39.5644 362.712 39.3595 362.712 39.109C362.712 38.8585 362.917 38.6536 363.167 38.6536H367.79C368.04 38.6536 368.245 38.8585 368.245 39.109C368.245 39.3595 368.04 39.5644 367.79 39.5644Z" fill="#12FFFF"/>
<path d="M359.479 39.5644H354.857C354.606 39.5644 354.401 39.3595 354.401 39.109C354.401 38.8585 354.606 38.6536 354.857 38.6536H359.479C359.729 38.6536 359.934 38.8585 359.934 39.109C359.934 39.3595 359.729 39.5644 359.479 39.5644Z" fill="#12FFFF"/>
<path d="M350.28 39.5416H345.658C345.407 39.5416 345.203 39.3367 345.203 39.0862C345.203 38.8358 345.407 38.6309 345.658 38.6309H350.28C350.53 38.6309 350.735 38.8358 350.735 39.0862C350.735 39.3367 350.53 39.5416 350.28 39.5416Z" fill="#12FFFF"/>
<path d="M383.227 43.7311L345.635 43.6856C345.385 43.6856 345.18 43.4807 345.18 43.2302C345.18 42.9798 345.385 42.7748 345.635 42.7748L383.227 42.8204C383.477 42.8204 383.682 43.0253 383.682 43.2758C383.682 43.5262 383.477 43.7311 383.227 43.7311Z" fill="#FF3181"/>
<path d="M340.284 39.5416H338.622C338.372 39.5416 338.167 39.3367 338.167 39.0862C338.167 38.8358 338.372 38.6309 338.622 38.6309H340.284C340.535 38.6309 340.74 38.8358 340.74 39.0862C340.74 39.3367 340.535 39.5416 340.284 39.5416Z" fill="#12FFFF"/>
<path d="M340.284 43.6856H338.622C338.372 43.6856 338.167 43.4807 338.167 43.2302C338.167 42.9798 338.372 42.7748 338.622 42.7748H340.284C340.535 42.7748 340.74 42.9798 340.74 43.2302C340.74 43.4807 340.535 43.6856 340.284 43.6856Z" fill="#12FFFF"/>
<path opacity="0.21" d="M308.613 528.6C308.613 530.717 289.19 532.425 265.215 532.425C241.239 532.425 221.817 530.717 221.817 528.6C221.817 526.482 241.239 524.774 265.215 524.774C289.19 524.774 308.613 526.482 308.613 528.6Z" fill="#003A5B"/>
<path opacity="0.21" d="M606 528.622C606 531.127 586.578 533.176 562.602 533.176C538.626 533.176 519.204 531.15 519.204 528.622C519.204 526.118 538.626 524.068 562.602 524.068C586.578 524.091 606 526.118 606 528.622Z" fill="#2947AC"/>
<path opacity="0.21" d="M341.537 530.262C341.537 531.468 336.71 532.425 330.744 532.425C324.779 532.425 319.952 531.446 319.952 530.262C319.952 529.055 324.779 528.099 330.744 528.099C336.71 528.099 341.537 529.078 341.537 530.262Z" fill="#017ABF"/>
<path d="M549.51 521.951V526.209H531.886L543.84 521.951H549.51Z" fill="#000F1F"/>
<path d="M591.61 521.951V526.209L580.954 531.081H576.173L585.098 521.951H591.61Z" fill="#000F1F"/>
<path d="M543.84 408.424V521.974H549.51C549.51 521.974 558.982 495.471 557.456 469.354L563.9 429.987L585.098 521.951H591.542C591.542 521.951 597.143 488.002 589.265 467.442L586.236 408.401H543.84V408.424Z" fill="#001F5E"/>
<path d="M543.84 408.424C543.84 408.424 554.2 416.507 586.601 415.528L586.236 408.424L561.76 403.893" fill="#000D3A"/>
<path d="M563.9 429.987L556.637 415.528L557.456 469.354L563.9 429.987Z" fill="#000D3A"/>
<path d="M557.411 303.231C557.889 302.411 554.997 302.092 555.339 301.227C563.308 299.679 572.12 301.341 572.643 307.807C572.643 307.807 583.709 317.462 570.435 330.098V331.783L559.483 325.249L550.626 312.931C550.626 312.931 549.578 312.908 548.303 312.521C552.015 310.221 555.179 306.965 557.411 303.231Z" fill="#131637"/>
<path d="M549.897 318.099C549.897 318.099 546.914 320.057 546.345 324.998H552.424L549.897 318.099Z" fill="#FF907D"/>
<path d="M550.534 313.91C550.534 313.91 542.269 312.452 544.546 303.663L547.347 305.235C547.347 305.235 543.909 301.136 549.533 293.873L557.57 302.001L559.278 310.198L550.534 313.91Z" fill="#131637"/>
<path d="M548.736 326.979L549.191 329.734L553.563 329.62L556.454 325.75L554.473 324.156" fill="#F5FDFF"/>
<path d="M570.457 331.601C570.457 331.601 563.786 327.867 564.014 322.676C564.014 322.676 568.75 321.697 567.953 318.236C567.293 315.367 563.672 316.323 562.511 318.805V322.106C562.511 322.106 560.644 322.061 560.325 315.731L558.139 312.931H550.626C550.626 312.931 547.87 319.238 548.713 326.979H553.813C553.813 326.979 552.72 328.983 549.168 329.734C549.51 331.214 549.942 332.717 550.626 334.22H558.117L558.094 340.709C558.094 340.709 557.411 345.149 560.963 346.06C567.725 347.767 570.457 340.345 570.457 340.345V330.144V331.601Z" fill="#FFCDA9"/>
<path d="M559.278 348.177C558.959 344.284 554.747 338.25 545.753 347.699C534.437 359.607 520.229 374.771 491.585 367.986L488.58 373.724C488.58 373.724 519.159 392.03 549.578 365.891C553.426 362.635 559.892 355.873 559.278 348.177Z" fill="#410890"/>
<path d="M492.155 369.33C492.155 369.33 490.538 366.666 489.673 366.005C489.673 366.005 485.802 362.021 485.164 361.451C485.164 361.451 483.912 361.975 484.664 363.41C485.415 364.867 486.781 366.347 486.781 366.347C486.781 366.347 484.459 365.8 483.206 364.89C481.954 363.979 479.449 362.271 478.493 362.453C477.537 362.635 477.992 363.546 477.992 363.546C477.992 363.546 481.84 366.187 482.66 366.757C483.388 367.258 482.979 367.463 482.979 367.463C482.979 367.463 477.901 365.55 476.99 365.208C476.08 364.867 475.533 365.277 475.488 366.21C475.488 366.21 478.197 367.258 479.791 368.032C480.337 368.305 482.409 368.874 482.045 369.535C482.045 369.535 477.514 368.373 476.763 368.077C476.034 367.781 475.419 368.305 475.647 369.147L481.658 371.219C481.658 371.219 482.045 371.447 481.817 371.675C481.59 371.88 478.607 371.903 478.288 371.811C477.969 371.72 476.945 371.561 476.899 372.449C476.899 372.449 476.922 372.745 477.878 372.927C478.835 373.109 483.297 374.111 483.297 374.111C483.297 374.111 486.166 375.09 489.559 374.43C492.974 373.77 493.43 372.403 492.109 373.974L492.086 372.016L492.155 369.33Z" fill="#FFCDA9"/>
<path d="M583.208 356.26C582.912 352.23 582.525 348.701 577.653 343.578C576.173 342.007 570.822 340.276 570.458 340.276V340.345C570.412 340.436 566.746 347.039 560.986 345.513C557.456 344.58 558.117 340.686 558.117 340.686V340.595H557.73C552.766 341.073 548.326 349.111 546.823 359.038C545.617 379.12 543.863 408.401 543.863 408.401C563.035 414.708 586.259 408.401 586.259 408.401C586.259 408.401 586.259 408.401 587.034 409.107L583.208 356.26Z" fill="#C14DFF"/>
<path opacity="0.2" d="M544.022 398.998C563.149 388.228 565.152 371.219 566.86 357.421C568.112 347.357 573.668 346.128 577.106 347.608C578.905 349.794 580.225 352.071 580.567 354.917L578.745 354.985C578.449 356.829 580.977 359.858 580.749 361.11C575.444 391.211 554.701 405.054 543.84 407.809C543.886 406.58 543.954 403.392 544.022 398.998Z" fill="#FFA41C"/>
<path d="M283.658 408.424V521.974H277.988C277.988 521.974 268.516 495.471 270.042 469.354L263.598 429.987L242.4 521.951H235.956C235.956 521.951 230.355 488.002 238.233 467.442L241.261 408.401H283.658V408.424Z" fill="#001F5E"/>
<path d="M283.658 408.424C283.658 408.424 273.298 416.507 240.897 415.528L241.262 408.424L265.738 403.893" fill="#000D3A"/>
<path d="M307.133 396.949C307.133 396.949 309.296 394.444 310.32 393.92C310.32 393.92 315.056 390.414 315.83 389.936C315.83 389.936 317.037 390.687 316.012 392.076C314.965 393.465 313.28 394.786 313.28 394.786C313.28 394.786 315.808 394.626 317.265 393.875C318.722 393.146 321.636 391.78 322.616 392.144C323.595 392.509 322.957 393.374 322.957 393.374C322.957 393.374 318.472 395.446 317.515 395.901C316.673 396.311 317.06 396.584 317.06 396.584C317.06 396.584 322.707 395.469 323.731 395.264C324.733 395.059 325.257 395.582 325.12 396.561C325.12 396.561 322.115 397.176 320.293 397.723C319.656 397.905 317.401 398.155 317.675 398.884C317.675 398.884 322.616 398.451 323.458 398.292C324.278 398.11 324.824 398.77 324.437 399.613L317.788 400.728C317.788 400.728 317.333 400.888 317.561 401.184C317.743 401.434 320.885 401.981 321.227 401.958C321.568 401.935 322.661 401.912 322.57 402.846C322.57 402.846 322.502 403.165 321.477 403.187C320.452 403.21 315.58 403.483 315.58 403.483C315.58 403.483 312.415 404.007 308.954 402.732C305.493 401.457 305.265 399.931 306.381 401.821L306.745 399.772L307.133 396.949Z" fill="#FFCDA9"/>
<path d="M266.968 346.743C269.063 343.441 276.918 341.483 280.47 354.029C284.955 369.831 290.488 389.867 318.995 397.153V403.643C318.995 403.643 283.407 405.646 268.607 368.373C266.763 363.683 262.847 353.277 266.968 346.743Z" fill="#FFA600"/>
<path d="M241.262 408.424C241.262 408.424 264.486 414.731 283.658 408.424C283.658 408.424 281.927 372.244 278.102 354.211C276.371 346.037 273.07 340.618 268.038 340.618L257.018 340.276C256.653 340.276 252.692 341.278 250.529 343.646C247.819 346.629 246.612 351.251 245.201 360.381L240.465 409.13C241.262 408.424 241.262 408.424 241.262 408.424Z" fill="#FFE51C"/>
<path opacity="0.2" d="M563.991 471.176L333.271 527.461C327.078 528.964 320.839 525.184 319.314 518.991L269.358 314.228C267.856 308.035 271.635 301.796 277.829 300.271L508.548 243.986C514.741 242.483 520.98 246.263 522.505 252.456L572.461 457.218C573.986 463.434 570.184 469.673 563.991 471.176Z" fill="#10CEFF"/>
<path opacity="0.75" d="M509.846 243.69L276.599 300.59C271.112 301.933 267.742 307.466 269.063 312.976L275.575 339.684L528.722 277.934L522.21 251.226C520.866 245.716 515.333 242.346 509.846 243.69Z" fill="#00E6FF"/>
<path opacity="0.81" d="M549.646 462L342.538 512.525C337.438 513.777 332.292 510.635 331.04 505.535L294.678 356.465C293.425 351.365 296.568 346.219 301.668 344.967L508.776 294.442C513.876 293.19 519.022 296.332 520.274 301.432L556.637 450.502C557.889 455.602 554.769 460.748 549.646 462Z" fill="#410890"/>
<path opacity="0.3" d="M300.643 314.114C301.987 319.579 298.617 325.089 293.152 326.433C287.688 327.776 282.155 324.406 280.834 318.942C279.491 313.477 282.861 307.967 288.325 306.623C293.79 305.303 299.323 308.65 300.643 314.114Z" fill="#002AB4"/>
<path opacity="0.75" d="M298.435 314.661C299.459 318.896 296.864 323.177 292.629 324.224C288.394 325.249 284.113 322.653 283.066 318.418C282.041 314.183 284.637 309.902 288.872 308.855C293.107 307.83 297.387 310.426 298.435 314.661Z" fill="#00E6FF"/>
<path d="M297.023 315.002C297.866 318.463 295.748 321.97 292.287 322.812C288.826 323.655 285.32 321.537 284.477 318.076C283.635 314.615 285.752 311.109 289.213 310.267C292.674 309.424 296.181 311.542 297.023 315.002Z" fill="#FF5378"/>
<path d="M294.541 315.617C295.042 317.712 293.767 319.807 291.672 320.33C289.578 320.831 287.483 319.556 286.959 317.462C286.458 315.367 287.733 313.272 289.828 312.748C291.923 312.247 294.018 313.523 294.541 315.617Z" fill="#B51413"/>
<path opacity="0.3" d="M329.355 307.124C330.699 312.589 327.329 318.099 321.864 319.442C316.4 320.786 310.889 317.416 309.546 311.951C308.203 306.487 311.573 300.977 317.037 299.633C322.502 298.29 328.012 301.66 329.355 307.124Z" fill="#002AB4"/>
<path opacity="0.75" d="M327.124 307.671C328.148 311.906 325.553 316.187 321.318 317.234C317.083 318.258 312.802 315.663 311.755 311.428C310.73 307.193 313.326 302.912 317.561 301.865C321.819 300.817 326.099 303.413 327.124 307.671Z" fill="#00E6FF"/>
<path d="M325.712 308.012C326.555 311.473 324.437 314.98 320.976 315.822C317.515 316.665 314.009 314.547 313.166 311.086C312.324 307.625 314.442 304.119 317.902 303.276C321.386 302.411 324.87 304.551 325.712 308.012Z" fill="#FFC500"/>
<path d="M323.23 308.604C323.731 310.699 322.456 312.794 320.361 313.318C318.267 313.818 316.172 312.543 315.648 310.449C315.147 308.354 316.422 306.259 318.517 305.735C320.612 305.235 322.707 306.532 323.23 308.604Z" fill="#FF9700"/>
<path opacity="0.3" d="M358.044 300.134C359.388 305.599 356.018 311.132 350.553 312.452C345.089 313.796 339.579 310.426 338.235 304.961C336.892 299.497 340.262 293.987 345.726 292.643C351.191 291.3 356.701 294.647 358.044 300.134Z" fill="#002AB4"/>
<path opacity="0.75" d="M355.813 300.658C356.838 304.893 354.242 309.174 350.007 310.221C345.772 311.246 341.491 308.65 340.444 304.415C339.419 300.18 342.015 295.899 346.25 294.852C350.508 293.827 354.788 296.423 355.813 300.658Z" fill="#00E6FF"/>
<path d="M354.401 301C355.244 304.46 353.126 307.967 349.665 308.809C346.204 309.652 342.698 307.534 341.855 304.073C341.013 300.612 343.131 297.106 346.591 296.264C350.075 295.421 353.559 297.539 354.401 301Z" fill="#3DFF76"/>
<path d="M351.919 301.614C352.42 303.709 351.145 305.804 349.051 306.327C346.956 306.828 344.861 305.553 344.337 303.459C343.836 301.364 345.111 299.269 347.206 298.745C349.301 298.244 351.419 299.52 351.919 301.614Z" fill="#1A9F58"/>
<path d="M311.846 352.89L306.017 362.476L315.58 368.305" stroke="#12D77E" stroke-miterlimit="10" stroke-linecap="round" stroke-linejoin="round"/>
<path d="M331.2 348.177L340.785 354.006L334.957 363.569" stroke="#12D77E" stroke-miterlimit="10" stroke-linecap="round" stroke-linejoin="round"/>
<path d="M322.342 368.055L324.369 349.839" stroke="#12D77E" stroke-miterlimit="10" stroke-linecap="round" stroke-linejoin="round"/>
<path d="M353.377 360.632C353.673 361.839 352.944 363.045 351.737 363.341C350.531 363.637 349.324 362.909 349.028 361.702C348.732 360.495 349.46 359.288 350.667 358.992C351.874 358.696 353.081 359.425 353.377 360.632Z" fill="#12D77E"/>
<path d="M362.37 358.423C362.666 359.63 361.938 360.837 360.731 361.133C359.524 361.429 358.318 360.7 358.022 359.493C357.726 358.287 358.454 357.08 359.661 356.784C360.868 356.488 362.074 357.239 362.37 358.423Z" fill="#12D77E"/>
<path d="M371.364 356.237C371.66 357.444 370.932 358.651 369.725 358.947C368.518 359.243 367.311 358.514 367.015 357.307C366.719 356.101 367.448 354.894 368.655 354.598C369.861 354.302 371.068 355.031 371.364 356.237Z" fill="#12D77E"/>
<path d="M315.921 386.338L465.833 349.771" stroke="#12D77E" stroke-miterlimit="10" stroke-linecap="round" stroke-linejoin="round"/>
<path d="M479.882 346.356L497.733 342.007" stroke="#12D77E" stroke-miterlimit="10" stroke-linecap="round" stroke-linejoin="round"/>
<path d="M507.751 339.548L515.356 337.703" stroke="#12D77E" stroke-miterlimit="10" stroke-linecap="round" stroke-linejoin="round"/>
<path d="M320.361 404.576L432.568 377.208" stroke="#12FFFF" stroke-miterlimit="10" stroke-linecap="round" stroke-linejoin="round"/>
<path d="M454.13 371.948L459.617 370.605" stroke="#12FFFF" stroke-miterlimit="10" stroke-linecap="round" stroke-linejoin="round"/>
<path d="M462.167 381.078L444.817 385.314" stroke="#12FFFF" stroke-miterlimit="10" stroke-linecap="round" stroke-linejoin="round"/>
<path d="M435.141 387.682L420.933 391.142" stroke="#12FFFF" stroke-miterlimit="10" stroke-linecap="round" stroke-linejoin="round"/>
<path d="M409.639 393.897L395.431 397.358" stroke="#12FFFF" stroke-miterlimit="10" stroke-linecap="round" stroke-linejoin="round"/>
<path d="M384.138 400.113L369.953 403.574" stroke="#12FFFF" stroke-miterlimit="10" stroke-linecap="round" stroke-linejoin="round"/>
<path d="M358.659 406.329L344.451 409.79" stroke="#12FFFF" stroke-miterlimit="10" stroke-linecap="round" stroke-linejoin="round"/>
<path d="M485.597 388.865L347.548 422.541" stroke="#FF3181" stroke-miterlimit="10" stroke-linecap="round" stroke-linejoin="round"/>
<path d="M328.035 413.798L322.912 415.05" stroke="#12FFFF" stroke-miterlimit="10" stroke-linecap="round" stroke-linejoin="round"/>
<path d="M331.154 426.548L326.031 427.778" stroke="#12FFFF" stroke-miterlimit="10" stroke-linecap="round" stroke-linejoin="round"/>
<path d="M334.251 439.276L329.128 440.529" stroke="#12FFFF" stroke-miterlimit="10" stroke-linecap="round" stroke-linejoin="round"/>
<path d="M337.37 452.027L332.247 453.257" stroke="#12FFFF" stroke-miterlimit="10" stroke-linecap="round" stroke-linejoin="round"/>
<path d="M498.917 385.609L514.081 381.921" stroke="#FF3181" stroke-miterlimit="10" stroke-linecap="round" stroke-linejoin="round"/>
<path d="M350.143 435.406L410.937 420.583" stroke="#FF3181" stroke-miterlimit="10" stroke-linecap="round" stroke-linejoin="round"/>
<path d="M353.331 448.452L414.102 433.63" stroke="#FF3181" stroke-miterlimit="10" stroke-linecap="round" stroke-linejoin="round"/>
<path d="M356.519 461.499L417.29 446.676" stroke="#FF3181" stroke-miterlimit="10" stroke-linecap="round" stroke-linejoin="round"/>
<path d="M359.684 474.568L420.477 459.723" stroke="#FF3181" stroke-miterlimit="10" stroke-linecap="round" stroke-linejoin="round"/>
<path d="M460.574 449.955L502.651 439.686" stroke="#FFD000" stroke-miterlimit="10" stroke-linecap="round" stroke-linejoin="round"/>
<path d="M477.605 431.967L499.463 426.64" stroke="#FFD000" stroke-miterlimit="10" stroke-linecap="round" stroke-linejoin="round"/>
<path d="M476.193 418.147L496.207 413.274" stroke="#FFD000" stroke-miterlimit="10" stroke-linecap="round" stroke-linejoin="round"/>
<path d="M277.965 521.951V526.209H295.589L283.658 521.951H277.965Z" fill="#000F1F"/>
<path d="M235.888 521.951V526.209L246.544 531.081H251.325L242.4 521.951H235.888Z" fill="#000F1F"/>
<path d="M263.598 429.987L270.838 415.528L270.019 469.354L263.598 429.987Z" fill="#000D3A"/>
<path d="M281.995 299.246C281.517 298.427 272.455 299.246 268.539 299.838C263.985 299.702 253.83 302.98 252.509 309.515C252.509 309.515 238.939 319.146 257.04 332.034L261.526 330.599L267.992 325.249L276.85 312.93C276.85 312.93 277.897 312.908 279.172 312.521C286.117 308.991 284.227 302.98 281.995 299.246Z" fill="#131637"/>
<path d="M277.578 318.099C277.578 318.099 280.561 320.057 281.13 324.998H275.051L277.578 318.099Z" fill="#FF907D"/>
<path d="M260.205 330.121C260.205 330.121 262.824 326.569 263.484 322.698C263.484 322.698 258.748 321.719 259.545 318.258C260.205 315.39 263.826 316.346 264.987 318.828V322.129C264.987 322.129 266.854 322.084 267.173 315.754L269.359 312.953H276.872C276.872 312.953 279.627 319.26 278.785 327.002H273.685C273.685 327.002 274.778 329.006 278.33 329.757C277.988 331.237 277.555 332.74 276.872 334.242H269.381V340.777L269.359 346.447L257.063 340.299V332.079L260.205 330.121Z" fill="#FFCDA9"/>
<path opacity="0.53" d="M273.366 383.014C264.964 376.297 259.522 366.575 255.287 356.716C253.967 353.642 253.033 350.773 252.601 347.836C251.804 349.338 251.257 350.955 251.121 352.799L250.369 363.364C250.733 365.277 251.189 367.007 251.53 368.282C257.632 390.983 272.341 401.093 283.498 405.578C283.362 403.005 283.111 398.861 282.747 393.875C278.717 390.573 275.688 386.885 273.366 383.014Z" fill="#FFA41C"/>
<path d="M250.415 346.743C252.509 343.441 260.365 341.483 263.917 354.029C268.402 369.831 273.935 389.867 302.442 397.153V403.643C302.442 403.643 266.854 405.646 252.054 368.373C250.21 363.683 246.294 353.277 250.415 346.743Z" fill="#FFCB1C"/>
<path d="M303.786 398.041C303.786 398.041 305.949 395.537 306.973 395.013C306.973 395.013 311.709 391.507 312.483 391.029C312.483 391.029 313.69 391.78 312.666 393.169C311.618 394.558 309.933 395.878 309.933 395.878C309.933 395.878 312.461 395.719 313.918 394.968C315.375 394.239 318.29 392.873 319.269 393.237C320.248 393.601 319.61 394.467 319.61 394.467C319.61 394.467 315.125 396.539 314.168 396.994C313.326 397.404 313.713 397.677 313.713 397.677C313.713 397.677 319.36 396.561 320.384 396.357C321.386 396.152 321.91 396.675 321.773 397.654C321.773 397.654 318.768 398.269 316.946 398.816C316.309 398.998 314.054 399.248 314.328 399.977C314.328 399.977 319.269 399.544 320.111 399.385C320.931 399.203 321.477 399.863 321.09 400.705L314.442 401.821C314.442 401.821 313.986 401.981 314.214 402.277C314.396 402.527 317.538 403.073 317.88 403.051C318.221 403.028 319.314 403.005 319.223 403.939C319.223 403.939 319.155 404.257 318.13 404.28C317.106 404.303 312.233 404.576 312.233 404.576C312.233 404.576 309.068 405.1 305.607 403.825C302.146 402.55 301.919 401.024 303.034 402.914L303.399 400.865L303.786 398.041Z" fill="#FFCDA9"/>
<path d="M301.351 403.673H304.994V396.865H301.351V403.673Z" fill="#FFE51C"/>
<path d="M528.517 398.975C528.517 398.975 526.217 396.584 525.17 396.129C525.17 396.129 520.229 392.896 519.432 392.463C519.432 392.463 518.271 393.283 519.387 394.603C520.502 395.924 522.278 397.153 522.278 397.153C522.278 397.153 519.728 397.131 518.248 396.47C516.745 395.833 513.763 394.626 512.806 395.059C511.85 395.469 512.533 396.311 512.533 396.311C512.533 396.311 517.132 398.133 518.112 398.542C518.977 398.884 518.59 399.203 518.59 399.203C518.59 399.203 512.875 398.406 511.873 398.269C510.848 398.133 510.37 398.679 510.552 399.658C510.552 399.658 513.603 400.091 515.425 400.546C516.062 400.705 518.339 400.797 518.112 401.571C518.112 401.571 513.148 401.434 512.305 401.297C511.463 401.161 510.962 401.867 511.395 402.686L518.112 403.415C518.112 403.415 518.567 403.552 518.362 403.848C518.18 404.098 515.083 404.827 514.742 404.827C514.4 404.804 513.307 404.872 513.444 405.806C513.444 405.806 513.535 406.124 514.56 406.079C515.584 406.033 520.457 406.033 520.457 406.033C520.457 406.033 523.644 406.375 527.014 404.918C530.407 403.438 530.543 401.912 529.542 403.848L529.063 401.821L528.517 398.975Z" fill="#FFCDA9"/>
<path d="M579.747 348.018C577.675 344.693 569.82 342.69 566.2 355.235C561.646 371.014 555.999 391.006 527.447 398.178L527.424 404.667C527.424 404.667 562.989 406.853 577.994 369.648C579.861 364.958 583.823 354.552 579.747 348.018Z" fill="#410890"/>
<path opacity="0.21" d="M207.449 527.575C207.449 532.926 161 537.275 103.713 537.275C46.449 537.275 0 532.926 0 527.575C0 522.224 46.449 517.875 103.736 517.875C161.023 517.875 207.449 522.201 207.449 527.575Z" fill="#003A5B"/>
<path d="M163.118 426.412C163.118 426.412 150.982 427.96 151.164 408.834C147.681 403.688 143.15 399.954 140.007 397.745V395.423C140.007 395.423 139.461 395.924 138.596 396.789C137.275 395.924 136.364 395.423 136.364 395.423L136.706 398.793C134.634 401.07 131.811 404.462 128.828 408.857C129.033 427.983 116.874 426.435 116.874 426.435L139.962 427.095V427.209L163.118 426.412Z" fill="#C6C7F0"/>
<path d="M128.304 416.211H151.756C151.529 415.005 151.369 413.707 151.278 412.295H128.782C128.691 413.729 128.509 415.027 128.304 416.211Z" fill="#B0B8F0"/>
<path d="M204.877 395.491V409.836C204.877 412.341 202.85 414.367 200.346 414.367H79.6919C77.1873 414.367 75.1609 412.341 75.1609 409.836V395.378" fill="#DCECFF"/>
<path d="M200.072 333.81H79.9652C77.3012 333.81 75.1609 335.973 75.1609 338.614V396.766H204.877V338.614C204.877 335.973 202.736 333.81 200.072 333.81Z" fill="#1A0835"/>
<path d="M143.491 405.441C142.853 404.303 141.669 403.529 140.281 403.529C138.254 403.529 136.592 405.168 136.592 407.217C136.592 409.244 138.231 410.906 140.281 410.906C141.669 410.906 142.876 410.132 143.491 408.993C144.083 407.605 143.969 406.443 143.491 405.441Z" fill="#C1CAE4"/>
<path d="M142.671 400.387C141.943 399.658 140.782 399.658 140.053 400.387C139.324 401.115 139.324 402.277 140.053 403.005L142.671 400.387Z" fill="#C1CAE4"/>
<path d="M164.689 426.184H115.348V428.188H164.689V426.184Z" fill="#DCECFF"/>
<path d="M199.458 340.663H81.468V390.664H199.458V340.663Z" fill="#0067FF"/>
<path d="M186.047 342.713H109.474V375.159H186.047V342.713Z" fill="#410890"/>
<path d="M183.383 347.13H112.138V349.771H183.383V347.13Z" fill="#3BFAFF"/>
<path d="M183.383 357.103H112.138V359.744H183.383V357.103Z" fill="#3BFAFF"/>
<path d="M183.383 367.075H112.138V369.717H183.383V367.075Z" fill="#3BFAFF"/>
<path d="M191.853 362.931H137.229V386.088H191.853V362.931Z" fill="#3BFAFF"/>
<path d="M161.57 365.3H139.848V383.72H161.57V365.3Z" fill="#00B8FF"/>
<path d="M188.756 365.3H167.034V366.893H188.756V365.3Z" fill="#00B8FF"/>
<path d="M188.756 369.853H167.034V371.447H188.756V369.853Z" fill="#00B8FF"/>
<path d="M188.756 374.407H167.034V376.001H188.756V374.407Z" fill="#00B8FF"/>
<path d="M188.756 378.961H167.034V380.555H188.756V378.961Z" fill="#00B8FF"/>
<path d="M128.008 378.141H100.958V387.682H128.008V378.141Z" fill="#FF5378"/>
<path d="M194.152 351.365H172.522V374.521H194.152V351.365Z" fill="#FFE51C"/>
<path d="M183.724 353.505H174.525V363.364H183.724V353.505Z" fill="#FF9C00"/>
<path d="M191.215 356.602H187.8V360.245H191.215V356.602Z" fill="#FF9C00"/>
<path d="M191.215 363.842H187.8V367.485H191.215V363.842Z" fill="#FF9C00"/>
<path d="M147.089 354.37H131.105V371.493H147.089V354.37Z" fill="#FFE51C"/>
<path d="M145.221 356.306H132.972V356.966H145.221V356.306Z" fill="#410890"/>
<path d="M145.221 359.926H132.972V360.586H145.221V359.926Z" fill="#410890"/>
<path d="M145.221 363.523H132.972V364.184H145.221V363.523Z" fill="#410890"/>
<path d="M145.221 367.144H132.972V367.804H145.221V367.144Z" fill="#410890"/>
<path d="M181.379 431.899C181.834 432.241 193.674 444.194 193.674 444.194V431.899H181.379Z" fill="#FF8700"/>
<path d="M24.4767 431.899C24.0213 432.241 12.1814 444.194 12.1814 444.194V431.899H24.4767Z" fill="#FF8700"/>
<path d="M15.5285 433.516H11.4301V527.575H15.5285V433.516Z" fill="#FF9C00"/>
<path d="M15.5285 519.378H11.4301V527.575H15.5285V519.378Z" fill="#000053"/>
<path d="M4.96112 433.509H205.056V427.589H4.96112V433.509Z" fill="#FFB200"/>
<path d="M190.336 527.571H194.435V433.511H190.336V527.571Z" fill="#FF9C00"/>
<path d="M190.336 527.573H194.435V519.376H190.336V527.573Z" fill="#000053"/>
<path d="M103.964 475.069C103.964 475.069 104.009 500.07 80.762 522.702L79.3048 519.128L91.0309 472.792L103.964 475.069Z" fill="#00143E"/>
<path d="M115.758 518.035L119.925 519.15L136.25 526.687L117.944 526.664L115.758 518.035Z" fill="#000F1F"/>
<path d="M78.8494 518.035L83.0389 519.15L99.3643 526.687L81.0352 526.664L78.8494 518.035Z" fill="#000F1F"/>
<path d="M118.787 530.125C118.969 530.125 119.128 530.102 119.31 530.011C120.016 529.715 120.358 528.918 120.084 528.213L98.8635 475.98C98.5675 475.274 97.7706 474.933 97.042 475.206C96.3362 475.502 95.9946 476.299 96.2679 477.028L117.489 529.26C117.716 529.806 118.24 530.125 118.787 530.125Z" fill="#5884FF"/>
<path d="M83.1983 530.125C83.3804 530.125 83.5398 530.102 83.722 530.011C84.4278 529.715 84.7693 528.918 84.4961 528.213L63.2753 475.98C62.9793 475.274 62.1824 474.933 61.4538 475.206C60.7479 475.502 60.4064 476.299 60.6796 477.005L81.9004 529.237C82.1281 529.806 82.6518 530.125 83.1983 530.125Z" fill="#5884FF"/>
<path d="M23.6116 530.125C24.158 530.125 24.6817 529.806 24.9094 529.26L46.1302 477.028C46.4262 476.322 46.0847 475.502 45.3561 475.206C44.6275 474.91 43.8305 475.252 43.5345 475.98L22.3137 528.213C22.0177 528.918 22.3593 529.738 23.0879 530.011C23.27 530.102 23.4522 530.125 23.6116 530.125Z" fill="#5884FF"/>
<path d="M59.1997 530.125C59.7461 530.125 60.2698 529.806 60.4975 529.26L81.7184 477.028C82.0143 476.322 81.6728 475.502 80.9442 475.206C80.2156 474.91 79.4187 475.252 79.1227 475.98L57.9019 528.213C57.6059 528.918 57.9474 529.738 58.676 530.011C58.8354 530.102 59.0175 530.125 59.1997 530.125Z" fill="#5884FF"/>
<path d="M108.176 446.79L150.731 462.911L119.948 519.128L115.781 518.035C115.781 518.035 115.462 488.048 126.824 476.504H92.9889L74.9102 472.815L69.8099 464.459L71.4038 457.105L85.976 448.657" fill="#001F5E"/>
<path d="M111.728 472.815H35.884V476.185C35.884 478.417 37.6828 480.215 39.9142 480.215H115.758V476.845C115.758 474.614 113.959 472.815 111.728 472.815Z" fill="white"/>
<path d="M85.3159 340.299C84.7922 339.411 84.3823 338.5 84.018 337.589C79.0999 337.43 70.311 338.181 68.8766 345.263C68.8766 345.263 55.7615 355.714 71.2445 369.33L76.0944 369.876L83.0845 364.116L92.6475 350.818C92.6475 350.818 93.7632 350.773 95.1521 350.386C91.1448 347.836 87.7294 344.329 85.3159 340.299Z" fill="#131647"/>
<path d="M93.4443 356.351C93.4443 356.351 96.6775 358.469 97.2923 363.797H90.712L93.4443 356.351Z" fill="#FF907D"/>
<path d="M74.6598 369.33C74.6598 369.33 77.4832 365.482 78.189 361.315C78.189 361.315 73.066 360.268 73.9312 356.533C74.6598 353.437 78.5533 354.484 79.8056 357.148V360.7C79.8056 360.7 81.8093 360.655 82.1736 353.824L84.5188 350.818H92.6246C92.6246 350.818 95.6074 357.626 94.6966 365.983H89.2093C89.2093 365.983 90.3933 368.146 94.2185 368.943C93.8542 370.536 93.376 372.153 92.6474 373.792H84.5644V379.69L79.9195 381.784L75.9121 383.059L72.5195 381.511L71.2672 377.162V369.375H74.6598V369.33Z" fill="#FFCDA9"/>
<path d="M83.9951 351.433C83.9951 351.433 90.5071 353.71 97.2695 352.025L95.1292 350.34C95.1292 350.34 103.053 347.38 100.434 334.88L85.68 337.59H84.0179L84.5416 343.669" fill="#131647"/>
<path d="M89.5054 356.738C89.5054 358.423 90.3706 359.767 91.418 359.767C92.4654 359.767 93.3306 358.4 93.3306 356.738C93.3306 355.053 92.4654 353.71 91.418 353.71C90.3706 353.71 89.5054 355.076 89.5054 356.738Z" stroke="#001F78" stroke-width="0.25" stroke-miterlimit="10"/>
<path d="M79.7374 356.351H89.3688" stroke="#001F78" stroke-width="0.25" stroke-miterlimit="10" stroke-linecap="round" stroke-linejoin="round"/>
<path d="M93.5127 356.738C93.5127 356.738 94.0364 356.738 94.5828 356.989" stroke="#001F78" stroke-width="0.25" stroke-miterlimit="10" stroke-linecap="round" stroke-linejoin="round"/>
<path d="M75.8212 464.459C75.8212 464.459 98.1349 462.82 108.176 446.813C108.176 446.813 101.55 426.275 97.5657 405.35C93.5811 384.403 91.9417 378.255 84.9744 376.616C77.9843 374.976 69.8329 376.616 69.8329 376.616C69.8329 376.616 54.1905 384.835 53.3708 414.8C53.3708 445.606 59.2225 459.154 59.2225 459.154L75.8212 464.459Z" fill="#FF5378"/>
<path d="M80.4204 472.815L66.5312 422.905C66.5312 422.905 59.8143 400.751 35.884 400.751C13.7296 400.751 22.0631 426.298 22.0631 426.298L35.884 472.815H80.4204Z" fill="#D6D9FF"/>
<path d="M132.835 424.772C132.835 424.772 138.755 427.254 143.696 423.52H145.221L148.09 426.093H150.39L148.432 421.403L140.372 418.602H131.719L132.835 424.772Z" fill="#FFCDA9"/>
<path d="M85.2703 381.238C85.2703 381.238 75.8894 382.262 79.487 396.766C83.1983 411.726 95.2432 424.568 95.2432 424.568C95.2432 424.568 116.373 428.962 133.951 425.729V417.851C133.951 417.851 115.849 418.078 103.099 413.456C103.099 413.456 96.154 395.15 94.2869 389.139C92.4426 383.082 89.3688 380.418 85.2703 381.238Z" fill="#410890"/>
<g opacity="0.2">
<path opacity="0.2" d="M224.959 296.059L125.39 295.945C121.268 295.945 117.921 292.598 117.921 288.476L118.012 182.759C118.012 178.638 121.359 175.291 125.481 175.291L225.05 175.405C229.171 175.405 232.518 178.752 232.518 182.873L232.427 288.59C232.427 292.712 229.08 296.059 224.959 296.059Z" fill="#10CEFF"/>
</g>
<g opacity="0.75">
<path opacity="0.75" d="M227.234 175.405L123.293 175.291C120.378 175.291 118.01 177.659 118.01 180.574L117.987 194.759L232.493 194.873L232.516 180.687C232.516 177.773 230.148 175.405 227.234 175.405Z" fill="#00E6FF"/>
</g>
<g opacity="0.81">
<g opacity="0.81">
<path opacity="0.81" d="M220.633 289.706L131.605 289.615C128.213 289.615 125.458 286.86 125.458 283.445L125.526 206.781C125.526 203.388 128.281 200.633 131.697 200.633L220.724 200.724C224.116 200.724 226.871 203.479 226.871 206.895L226.803 283.558C226.803 286.951 224.025 289.706 220.633 289.706Z" fill="#410890"/>
</g>
</g>
<g opacity="0.3">
<path opacity="0.3" d="M133.7 185.036C133.7 187.951 131.332 190.296 128.441 190.296C125.526 190.296 123.181 187.928 123.181 185.036C123.181 182.122 125.549 179.777 128.441 179.777C131.355 179.777 133.7 182.145 133.7 185.036Z" fill="#002AB4"/>
</g>
<g opacity="0.75">
<path opacity="0.75" d="M132.516 185.036C132.516 187.29 130.695 189.112 128.441 189.112C126.187 189.112 124.365 187.29 124.365 185.036C124.365 182.782 126.187 180.961 128.441 180.961C130.695 180.961 132.516 182.782 132.516 185.036Z" fill="#00E6FF"/>
</g>
<path d="M131.742 185.036C131.742 186.858 130.262 188.338 128.441 188.338C126.619 188.338 125.139 186.858 125.139 185.036C125.139 183.215 126.619 181.735 128.441 181.735C130.262 181.735 131.742 183.215 131.742 185.036Z" fill="#FF2232"/>
<path d="M130.421 185.036C130.421 186.129 129.533 187.017 128.441 187.017C127.348 187.017 126.46 186.129 126.46 185.036C126.46 183.943 127.348 183.055 128.441 183.055C129.533 183.055 130.421 183.943 130.421 185.036Z" fill="#B51413"/>
<g opacity="0.3">
<path opacity="0.3" d="M148.933 185.059C148.933 187.974 146.565 190.319 143.673 190.319C140.759 190.319 138.413 187.951 138.413 185.059C138.413 182.145 140.781 179.799 143.673 179.799C146.588 179.799 148.933 182.145 148.933 185.059Z" fill="#002AB4"/>
</g>
<g opacity="0.75">
<path opacity="0.75" d="M147.749 185.059C147.749 187.313 145.927 189.135 143.673 189.135C141.419 189.135 139.597 187.313 139.597 185.059C139.597 182.805 141.419 180.983 143.673 180.983C145.927 180.961 147.749 182.805 147.749 185.059Z" fill="#00E6FF"/>
</g>
<path d="M146.997 185.059C146.997 186.903 145.495 188.383 143.673 188.383C141.829 188.383 140.349 186.881 140.349 185.059C140.349 183.215 141.852 181.735 143.673 181.735C145.517 181.712 146.997 183.215 146.997 185.059Z" fill="#FFC500"/>
<path d="M145.677 185.059C145.677 186.175 144.766 187.063 143.673 187.063C142.557 187.063 141.669 186.152 141.669 185.059C141.669 183.943 142.58 183.055 143.673 183.055C144.789 183.033 145.677 183.943 145.677 185.059Z" fill="#FF9700"/>
<g opacity="0.3">
<path opacity="0.3" d="M164.165 185.059C164.165 187.974 161.797 190.319 158.906 190.319C155.991 190.319 153.646 187.951 153.646 185.059C153.646 182.145 156.014 179.799 158.906 179.799C161.82 179.799 164.165 182.167 164.165 185.059Z" fill="#002AB4"/>
</g>
<g opacity="0.75">
<path opacity="0.75" d="M163.004 185.059C163.004 187.313 161.183 189.135 158.928 189.135C156.674 189.135 154.853 187.313 154.853 185.059C154.853 182.805 156.674 180.983 158.928 180.983C161.16 180.983 163.004 182.805 163.004 185.059Z" fill="#00E6FF"/>
</g>
<path d="M162.253 185.059C162.253 186.903 160.75 188.383 158.928 188.383C157.084 188.383 155.604 186.881 155.604 185.059C155.604 183.215 157.107 181.735 158.928 181.735C160.75 181.735 162.253 183.215 162.253 185.059Z" fill="#3DFF76"/>
<path d="M160.932 185.059C160.932 186.175 160.021 187.063 158.928 187.063C157.813 187.063 156.925 186.152 156.925 185.059C156.925 183.943 157.835 183.055 158.928 183.055C160.021 183.055 160.932 183.943 160.932 185.059Z" fill="#1A9F58"/>
<path d="M134.52 214.75C134.338 214.75 134.133 214.682 133.996 214.522L129.92 210.424C129.784 210.287 129.716 210.105 129.716 209.9C129.716 209.695 129.784 209.513 129.92 209.377L134.019 205.278C134.315 204.982 134.77 204.982 135.066 205.278C135.362 205.574 135.362 206.029 135.066 206.325L131.492 209.9L135.044 213.475C135.34 213.771 135.34 214.226 135.044 214.522C134.907 214.682 134.725 214.75 134.52 214.75Z" fill="#12D77E"/>
<path d="M144.812 214.773C144.629 214.773 144.425 214.705 144.288 214.568C143.992 214.272 143.992 213.817 144.288 213.521L147.863 209.969L144.288 206.394C143.992 206.098 143.992 205.642 144.288 205.346C144.584 205.05 145.039 205.05 145.335 205.346L149.411 209.445C149.707 209.741 149.707 210.196 149.411 210.492L145.313 214.568C145.199 214.682 145.017 214.773 144.812 214.773Z" fill="#12D77E"/>
<path d="M137.935 215.456C137.844 215.456 137.776 215.433 137.685 215.41C137.298 215.274 137.116 214.841 137.252 214.477L140.508 205.597C140.645 205.21 141.077 205.028 141.465 205.164C141.852 205.301 142.034 205.733 141.897 206.098L138.641 214.978C138.527 215.274 138.254 215.456 137.935 215.456Z" fill="#12D77E"/>
<path d="M154.397 214.818C154.397 215.456 153.874 215.98 153.236 215.98C152.599 215.98 152.075 215.456 152.075 214.818C152.075 214.181 152.599 213.657 153.236 213.657C153.896 213.657 154.397 214.181 154.397 214.818Z" fill="#12D77E"/>
<path d="M159.179 214.818C159.179 215.456 158.655 215.98 158.018 215.98C157.38 215.98 156.856 215.456 156.856 214.818C156.856 214.181 157.38 213.657 158.018 213.657C158.678 213.657 159.179 214.181 159.179 214.818Z" fill="#12D77E"/>
<path d="M163.96 214.818C163.96 215.456 163.437 215.98 162.799 215.98C162.162 215.98 161.638 215.456 161.638 214.818C161.638 214.181 162.162 213.657 162.799 213.657C163.437 213.657 163.96 214.181 163.96 214.818Z" fill="#12D77E"/>
<path d="M200.027 223.903L132.471 223.835C132.061 223.835 131.742 223.493 131.742 223.106C131.742 222.696 132.061 222.378 132.471 222.378L200.027 222.446C200.436 222.446 200.755 222.788 200.755 223.175C200.778 223.584 200.436 223.903 200.027 223.903Z" fill="#12D77E"/>
<path d="M210.569 223.926H207.472C207.062 223.926 206.744 223.584 206.744 223.197C206.744 222.788 207.085 222.469 207.472 222.469H210.569C210.979 222.469 211.297 222.81 211.297 223.197C211.32 223.607 210.979 223.926 210.569 223.926Z" fill="#12D77E"/>
<path d="M219.949 223.926H215.897C215.487 223.926 215.168 223.584 215.168 223.197C215.168 222.788 215.487 222.469 215.897 222.469H219.949C220.359 222.469 220.678 222.788 220.678 223.197C220.678 223.607 220.359 223.926 219.949 223.926Z" fill="#12D77E"/>
<path d="M179.99 233.58L132.471 233.535C132.061 233.535 131.742 233.193 131.742 232.806C131.742 232.396 132.084 232.077 132.471 232.077L179.99 232.123C180.4 232.123 180.718 232.464 180.718 232.852C180.741 233.239 180.4 233.58 179.99 233.58Z" fill="#12FFFF"/>
<path d="M194.357 233.58H191.443C191.033 233.58 190.714 233.239 190.714 232.852C190.714 232.442 191.033 232.123 191.443 232.123H194.357C194.767 232.123 195.086 232.464 195.086 232.852C195.109 233.261 194.767 233.58 194.357 233.58Z" fill="#12FFFF"/>
<path d="M179.99 239.136H172.453C172.043 239.136 171.725 238.794 171.725 238.407C171.725 237.997 172.043 237.679 172.453 237.679H179.99C180.4 237.679 180.719 237.997 180.719 238.407C180.741 238.817 180.4 239.136 179.99 239.136Z" fill="#12FFFF"/>
<path d="M166.465 239.113H158.928C158.518 239.113 158.2 238.794 158.2 238.384C158.2 237.975 158.518 237.656 158.928 237.656H166.465C166.875 237.656 167.194 237.997 167.194 238.384C167.194 238.794 166.875 239.113 166.465 239.113Z" fill="#12FFFF"/>
<path d="M151.46 239.09H143.924C143.514 239.09 143.195 238.749 143.195 238.362C143.195 237.952 143.514 237.633 143.924 237.633H151.46C151.87 237.633 152.189 237.975 152.189 238.362C152.189 238.772 151.847 239.09 151.46 239.09Z" fill="#12FFFF"/>
<path d="M205.127 245.921L143.878 245.853C143.468 245.853 143.149 245.511 143.149 245.124C143.149 244.714 143.468 244.395 143.878 244.395L205.104 244.464C205.514 244.464 205.833 244.805 205.833 245.192C205.878 245.602 205.537 245.921 205.127 245.921Z" fill="#FF3181"/>
<path d="M135.18 239.09H132.448C132.038 239.09 131.719 238.772 131.719 238.362C131.719 237.952 132.038 237.633 132.448 237.633H135.18C135.59 237.633 135.909 237.952 135.909 238.362C135.932 238.749 135.59 239.09 135.18 239.09Z" fill="#12FFFF"/>
<path d="M135.18 245.853H132.448C132.038 245.853 131.719 245.511 131.719 245.124C131.719 244.714 132.038 244.395 132.448 244.395H135.18C135.59 244.395 135.909 244.714 135.909 245.124C135.909 245.511 135.59 245.853 135.18 245.853Z" fill="#12FFFF"/>
<path d="M135.18 252.615H132.448C132.038 252.615 131.719 252.274 131.719 251.887C131.719 251.477 132.038 251.158 132.448 251.158H135.18C135.59 251.158 135.909 251.477 135.909 251.887C135.909 252.296 135.59 252.615 135.18 252.615Z" fill="#12FFFF"/>
<path d="M135.18 259.378H132.448C132.038 259.378 131.719 259.036 131.719 258.649C131.719 258.239 132.038 257.92 132.448 257.92H135.18C135.59 257.92 135.909 258.262 135.909 258.649C135.909 259.059 135.59 259.378 135.18 259.378Z" fill="#12FFFF"/>
<path d="M163.824 252.661L143.605 252.638C143.195 252.638 142.876 252.296 142.876 251.909C142.876 251.499 143.218 251.181 143.605 251.181L163.824 251.203C164.234 251.203 164.552 251.545 164.552 251.932C164.575 252.319 164.234 252.661 163.824 252.661Z" fill="#FF3181"/>
<path d="M163.824 259.582L143.605 259.56C143.195 259.56 142.876 259.218 142.876 258.831C142.876 258.421 143.218 258.102 143.605 258.102L163.824 258.125C164.234 258.125 164.552 258.467 164.552 258.854C164.552 259.264 164.234 259.582 163.824 259.582Z" fill="#FF3181"/>
<path d="M163.824 266.504L143.605 266.482C143.195 266.482 142.876 266.14 142.876 265.753C142.876 265.343 143.218 265.024 143.605 265.024L163.824 265.047C164.234 265.047 164.552 265.389 164.552 265.776C164.552 266.163 164.234 266.504 163.824 266.504Z" fill="#FF3181"/>
<path d="M163.801 273.449L143.582 273.426C143.172 273.426 142.854 273.085 142.854 272.697C142.854 272.288 143.195 271.969 143.582 271.969L163.801 271.992C164.211 271.992 164.53 272.333 164.53 272.72C164.552 273.107 164.211 273.449 163.801 273.449Z" fill="#FF3181"/>
<path d="M207.449 273.494L185.113 273.472C184.703 273.472 184.384 273.13 184.384 272.743C184.384 272.333 184.703 272.014 185.113 272.014L207.449 272.037C207.859 272.037 208.178 272.379 208.178 272.766C208.178 273.153 207.859 273.494 207.449 273.494Z" fill="#FFD000"/>
<path d="M207.449 266.55H195.837C195.427 266.55 195.109 266.208 195.109 265.821C195.109 265.411 195.427 265.093 195.837 265.093H207.449C207.859 265.093 208.178 265.411 208.178 265.821C208.178 266.231 207.859 266.55 207.449 266.55Z" fill="#FFD000"/>
<path d="M207.449 259.446H196.839C196.429 259.446 196.11 259.127 196.11 258.717C196.11 258.307 196.429 257.989 196.839 257.989H207.449C207.859 257.989 208.178 258.307 208.178 258.717C208.201 259.127 207.859 259.446 207.449 259.446Z" fill="#FFD000"/>
<g opacity="0.2">
<path opacity="0.2" d="M135.044 327.298L80.1017 327.23C77.5744 327.23 75.5251 325.18 75.5251 322.653L75.5935 214.864C75.5935 212.337 77.6427 210.287 80.17 210.287L135.112 210.356C137.639 210.356 139.689 212.405 139.689 214.932L139.62 322.721C139.62 325.271 137.571 327.321 135.044 327.298Z" fill="#10CEFF"/>
</g>
<g opacity="0.75">
<path opacity="0.75" d="M136.429 210.356L78.8007 210.287C77.0019 210.287 75.5447 211.745 75.5447 213.521V222.218L139.663 222.287V213.589C139.685 211.813 138.228 210.356 136.429 210.356Z" fill="#00E6FF"/>
</g>
<g opacity="0.81">
<g opacity="0.81">
<path opacity="0.81" d="M132.38 323.404L83.9042 323.336C81.8094 323.336 80.1245 321.651 80.1245 319.556L80.1701 229.595C80.1701 227.501 81.855 225.816 83.9497 225.816L132.425 225.884C134.52 225.884 136.205 227.569 136.205 229.664L136.159 319.625C136.159 321.719 134.474 323.404 132.38 323.404Z" fill="#410890"/>
</g>
</g>
<g opacity="0.3">
<path opacity="0.3" d="M85.2019 216.276C85.2019 218.052 83.7447 219.509 81.9687 219.509C80.1927 219.509 78.7355 218.052 78.7355 216.276C78.7355 214.5 80.1927 213.042 81.9687 213.042C83.7447 213.042 85.2019 214.477 85.2019 216.276Z" fill="#002AB4"/>
</g>
<g opacity="0.75">
<path opacity="0.75" d="M84.4734 216.276C84.4734 217.664 83.3577 218.78 81.9688 218.78C80.5799 218.78 79.4642 217.664 79.4642 216.276C79.4642 214.887 80.5799 213.771 81.9688 213.771C83.3577 213.748 84.4734 214.887 84.4734 216.276Z" fill="#00E6FF"/>
</g>
<path d="M83.9952 216.253C83.9952 217.368 83.0844 218.279 81.9687 218.279C80.853 218.279 79.9423 217.368 79.9423 216.253C79.9423 215.137 80.853 214.226 81.9687 214.226C83.0844 214.226 83.9952 215.137 83.9952 216.253Z" fill="#FF2232"/>
<path d="M83.1754 216.253C83.1754 216.936 82.629 217.46 81.9459 217.46C81.2628 217.46 80.7391 216.913 80.7391 216.23C80.7391 215.547 81.2856 215.023 81.9687 215.023C82.629 215.046 83.1754 215.592 83.1754 216.253Z" fill="#B51413"/>
<g opacity="0.3">
<path opacity="0.3" d="M94.5374 216.276C94.5374 218.052 93.0801 219.509 91.3041 219.509C89.5281 219.509 88.0709 218.052 88.0709 216.276C88.0709 214.5 89.5281 213.042 91.3041 213.042C93.1029 213.042 94.5374 214.5 94.5374 216.276Z" fill="#002AB4"/>
</g>
<g opacity="0.75">
<path opacity="0.75" d="M93.8315 216.276C93.8315 217.664 92.7158 218.78 91.3269 218.78C89.938 218.78 88.8223 217.664 88.8223 216.276C88.8223 214.887 89.938 213.771 91.3269 213.771C92.693 213.771 93.8315 214.887 93.8315 216.276Z" fill="#00E6FF"/>
</g>
<path d="M93.3533 216.276C93.3533 217.414 92.4426 218.325 91.3041 218.325C90.1656 218.325 89.2549 217.414 89.2549 216.276C89.2549 215.137 90.1656 214.226 91.3041 214.226C92.4426 214.226 93.3533 215.137 93.3533 216.276Z" fill="#FFC500"/>
<path d="M92.5565 216.276C92.5565 216.959 92.01 217.505 91.3269 217.505C90.6439 217.505 90.0974 216.959 90.0974 216.276C90.0974 215.592 90.6439 215.046 91.3269 215.046C92.01 215.046 92.5565 215.592 92.5565 216.276Z" fill="#FF9700"/>
<g opacity="0.3">
<path opacity="0.3" d="M103.896 216.276C103.896 218.052 102.438 219.509 100.662 219.509C98.8863 219.509 97.4291 218.052 97.4291 216.276C97.4291 214.5 98.8863 213.042 100.662 213.042C102.461 213.042 103.896 214.5 103.896 216.276Z" fill="#002AB4"/>
</g>
<g opacity="0.75">
<path opacity="0.75" d="M103.167 216.276C103.167 217.664 102.051 218.78 100.662 218.78C99.2733 218.78 98.1576 217.664 98.1576 216.276C98.1576 214.887 99.2733 213.771 100.662 213.771C102.051 213.771 103.167 214.887 103.167 216.276Z" fill="#00E6FF"/>
</g>
<path d="M102.711 216.276C102.711 217.414 101.801 218.325 100.662 218.325C99.5238 218.325 98.613 217.414 98.613 216.276C98.613 215.137 99.5238 214.226 100.662 214.226C101.801 214.226 102.711 215.16 102.711 216.276Z" fill="#3DFF76"/>
<path d="M101.915 216.276C101.915 216.959 101.368 217.505 100.685 217.505C100.002 217.505 99.4554 216.959 99.4554 216.276C99.4554 215.592 100.002 215.046 100.685 215.046C101.345 215.046 101.915 215.592 101.915 216.276Z" fill="#1A9F58"/>
<path d="M85.7029 234.514C85.5891 234.514 85.4752 234.468 85.3841 234.377L82.8795 231.872C82.7885 231.781 82.7429 231.668 82.7429 231.554C82.7429 231.44 82.7885 231.326 82.8795 231.235L85.3841 228.73C85.5663 228.548 85.8395 228.548 86.0217 228.73C86.2038 228.912 86.2038 229.186 86.0217 229.368L83.8358 231.554L86.0217 233.74C86.2038 233.922 86.2038 234.195 86.0217 234.377C85.9306 234.468 85.8167 234.514 85.7029 234.514Z" fill="#FFD000"/>
<path d="M92.0101 234.514C91.8962 234.514 91.7824 234.468 91.6913 234.377C91.5091 234.195 91.5091 233.922 91.6913 233.74L93.8771 231.554L91.6913 229.368C91.5091 229.186 91.5091 228.912 91.6913 228.73C91.8735 228.548 92.1467 228.548 92.3288 228.73L94.8334 231.235C94.9245 231.326 94.9701 231.44 94.9701 231.554C94.9701 231.668 94.9245 231.781 94.8334 231.872L92.3288 234.377C92.2605 234.468 92.1467 234.514 92.0101 234.514Z" fill="#FFD000"/>
<path d="M87.7976 234.946C87.752 234.946 87.6837 234.946 87.6382 234.923C87.4105 234.832 87.2739 234.582 87.365 234.354L89.3686 228.912C89.4597 228.685 89.7102 228.548 89.9379 228.639C90.1656 228.73 90.3022 228.981 90.2111 229.208L88.2074 234.65C88.1619 234.832 87.9797 234.946 87.7976 234.946Z" fill="#FFD000"/>
<path d="M97.2012 235.47C96.6775 235.47 96.2677 235.06 96.2677 234.536C96.2677 234.013 96.6775 233.603 97.2012 233.603C97.7249 233.603 98.1348 234.013 98.1348 234.536C98.1348 235.06 97.7022 235.47 97.2012 235.47ZM97.2012 234.058C96.928 234.058 96.7231 234.263 96.7231 234.536C96.7231 234.81 96.928 235.015 97.2012 235.015C97.4745 235.015 97.6794 234.81 97.6794 234.536C97.6794 234.263 97.4517 234.058 97.2012 234.058Z" fill="#FFD000"/>
<path d="M100.138 235.47C99.888 235.47 99.6603 235.379 99.4782 235.197C99.296 235.015 99.205 234.787 99.205 234.536C99.205 234.286 99.296 234.058 99.4782 233.876C99.6603 233.694 99.888 233.603 100.138 233.603C100.662 233.603 101.072 234.013 101.072 234.536C101.072 234.787 100.981 235.015 100.799 235.197C100.617 235.379 100.366 235.47 100.138 235.47ZM100.138 234.058C100.002 234.058 99.888 234.104 99.797 234.195C99.7059 234.286 99.6603 234.4 99.6603 234.536C99.6603 234.673 99.7059 234.787 99.797 234.878C99.888 234.969 100.002 235.015 100.138 235.015C100.275 235.015 100.389 234.969 100.48 234.878C100.571 234.787 100.617 234.673 100.617 234.536C100.617 234.263 100.389 234.058 100.138 234.058Z" fill="#FFD000"/>
<path d="M103.053 235.47C102.529 235.47 102.12 235.06 102.12 234.536C102.12 234.013 102.529 233.603 103.053 233.603C103.577 233.603 103.987 234.013 103.987 234.536C103.987 235.06 103.577 235.47 103.053 235.47ZM103.053 234.058C102.78 234.058 102.575 234.286 102.575 234.536C102.575 234.81 102.803 235.015 103.053 235.015C103.326 235.015 103.531 234.81 103.531 234.536C103.531 234.286 103.326 234.058 103.053 234.058Z" fill="#FFD000"/>
<path d="M125.913 240.115L84.4505 240.069C84.2 240.069 83.9951 239.864 83.9951 239.614C83.9951 239.363 84.2 239.159 84.4505 239.159L125.913 239.204C126.164 239.204 126.368 239.409 126.368 239.659C126.368 239.933 126.164 240.115 125.913 240.115Z" fill="#12D77E"/>
<path d="M108.973 291.163L84.4505 291.118C84.2 291.118 83.9951 290.913 83.9951 290.662C83.9951 290.412 84.2 290.207 84.4505 290.207L108.973 290.252C109.223 290.252 109.428 290.457 109.428 290.708C109.428 290.958 109.223 291.163 108.973 291.163Z" fill="#12D77E"/>
<path d="M108.973 296.491L84.4505 296.446C84.2 296.446 83.9951 296.241 83.9951 295.99C83.9951 295.74 84.2 295.535 84.4505 295.535L108.973 295.58C109.223 295.58 109.428 295.785 109.428 296.036C109.428 296.286 109.223 296.491 108.973 296.491Z" fill="#12D77E"/>
<path d="M108.973 301.796L84.4505 301.751C84.2 301.751 83.9951 301.546 83.9951 301.295C83.9951 301.045 84.2 300.84 84.4505 300.84L108.973 300.886C109.223 300.886 109.428 301.091 109.428 301.341C109.428 301.614 109.223 301.796 108.973 301.796Z" fill="#12D77E"/>
<path d="M108.973 307.124L84.4505 307.079C84.2 307.079 83.9951 306.874 83.9951 306.623C83.9951 306.373 84.2 306.168 84.4505 306.168L108.973 306.214C109.223 306.214 109.428 306.419 109.428 306.669C109.428 306.919 109.223 307.124 108.973 307.124Z" fill="#12D77E"/>
<path d="M108.973 312.43L84.4505 312.384C84.2 312.384 83.9951 312.179 83.9951 311.929C83.9951 311.678 84.2 311.473 84.4505 311.473L108.973 311.519C109.223 311.519 109.428 311.724 109.428 311.974C109.428 312.247 109.223 312.43 108.973 312.43Z" fill="#12D77E"/>
<path d="M108.973 317.758L84.4505 317.712C84.2 317.712 83.9951 317.507 83.9951 317.257C83.9951 317.006 84.2 316.801 84.4505 316.801L108.973 316.847C109.223 316.847 109.428 317.052 109.428 317.302C109.428 317.553 109.223 317.758 108.973 317.758Z" fill="#12D77E"/>
<path d="M132.38 240.138H130.49C130.239 240.138 130.034 239.933 130.034 239.682C130.034 239.432 130.239 239.227 130.49 239.227H132.38C132.63 239.227 132.835 239.432 132.835 239.682C132.835 239.933 132.63 240.138 132.38 240.138Z" fill="#12D77E"/>
<path d="M113.618 246.058L84.4505 246.035C84.2 246.035 83.9951 245.83 83.9951 245.579C83.9951 245.329 84.2 245.124 84.4505 245.124L113.618 245.147C113.868 245.147 114.073 245.352 114.073 245.602C114.073 245.853 113.868 246.058 113.618 246.058Z" fill="#12FFFF"/>
<path d="M122.429 246.058H120.631C120.38 246.058 120.175 245.853 120.175 245.602C120.175 245.352 120.38 245.147 120.631 245.147H122.429C122.68 245.147 122.885 245.352 122.885 245.602C122.885 245.853 122.68 246.058 122.429 246.058Z" fill="#12FFFF"/>
<path d="M113.618 249.473H108.996C108.745 249.473 108.54 249.268 108.54 249.018C108.54 248.767 108.745 248.562 108.996 248.562H113.618C113.868 248.562 114.073 248.767 114.073 249.018C114.05 249.268 113.868 249.473 113.618 249.473Z" fill="#12FFFF"/>
<path d="M105.307 249.45H100.685C100.435 249.45 100.23 249.245 100.23 248.995C100.23 248.744 100.435 248.539 100.685 248.539H105.307C105.558 248.539 105.763 248.744 105.763 248.995C105.763 249.268 105.558 249.45 105.307 249.45Z" fill="#12FFFF"/>
<path d="M96.0856 249.45H91.4634C91.213 249.45 91.0081 249.245 91.0081 248.995C91.0081 248.744 91.213 248.539 91.4634 248.539H96.0856C96.336 248.539 96.541 248.744 96.541 248.995C96.541 249.245 96.336 249.45 96.0856 249.45Z" fill="#12FFFF"/>
<path d="M129.032 253.64L91.4406 253.594C91.1902 253.594 90.9852 253.389 90.9852 253.139C90.9852 252.888 91.1902 252.683 91.4406 252.683L129.032 252.729C129.283 252.729 129.488 252.934 129.488 253.184C129.488 253.435 129.283 253.64 129.032 253.64Z" fill="#FF3181"/>
<path d="M86.1126 249.427H84.4505C84.2 249.427 83.9951 249.222 83.9951 248.972C83.9951 248.722 84.2 248.517 84.4505 248.517H86.1126C86.3631 248.517 86.568 248.722 86.568 248.972C86.568 249.245 86.3631 249.427 86.1126 249.427Z" fill="#12FFFF"/>
<path d="M86.1126 253.594H84.4505C84.2 253.594 83.9951 253.389 83.9951 253.139C83.9951 252.888 84.2 252.683 84.4505 252.683H86.1126C86.3631 252.683 86.568 252.888 86.568 253.139C86.568 253.389 86.3631 253.594 86.1126 253.594Z" fill="#12FFFF"/>
<path d="M86.1126 257.738H84.4505C84.2 257.738 83.9951 257.533 83.9951 257.283C83.9951 257.032 84.2 256.827 84.4505 256.827H86.1126C86.3631 256.827 86.568 257.032 86.568 257.283C86.5453 257.533 86.3631 257.738 86.1126 257.738Z" fill="#12FFFF"/>
<path d="M86.0899 261.882H84.4278C84.1773 261.882 83.9724 261.677 83.9724 261.427C83.9724 261.176 84.1773 260.971 84.4278 260.971H86.0899C86.3404 260.971 86.5453 261.176 86.5453 261.427C86.5453 261.7 86.3404 261.882 86.0899 261.882Z" fill="#12FFFF"/>
<path d="M103.69 257.761L91.2813 257.738C91.0309 257.738 90.8259 257.533 90.8259 257.283C90.8259 257.032 91.0309 256.827 91.2813 256.827L103.69 256.85C103.941 256.85 104.146 257.055 104.146 257.306C104.146 257.556 103.941 257.761 103.69 257.761Z" fill="#FF3181"/>
<path d="M103.69 262.019L91.2813 261.996C91.0309 261.996 90.8259 261.791 90.8259 261.541C90.8259 261.29 91.0309 261.085 91.2813 261.085L103.69 261.108C103.941 261.108 104.146 261.313 104.146 261.563C104.146 261.814 103.941 262.019 103.69 262.019Z" fill="#FF3181"/>
<path d="M103.69 266.277L91.2813 266.254C91.0309 266.254 90.8259 266.049 90.8259 265.798C90.8259 265.548 91.0309 265.343 91.2813 265.343L103.69 265.366C103.941 265.366 104.146 265.571 104.146 265.821C104.123 266.072 103.918 266.277 103.69 266.277Z" fill="#FF3181"/>
<path d="M103.668 270.534L91.2586 270.512C91.0081 270.512 90.8032 270.307 90.8032 270.056C90.8032 269.806 91.0081 269.601 91.2586 269.601L103.668 269.624C103.918 269.624 104.123 269.829 104.123 270.079C104.123 270.329 103.918 270.534 103.668 270.534Z" fill="#FF3181"/>
<path d="M108.973 284.628C108.723 284.628 108.518 284.424 108.518 284.173C108.518 283.923 108.723 283.718 108.973 283.718L130.945 283.695C131.196 283.695 131.401 283.9 131.401 284.15C131.401 284.401 131.196 284.606 130.945 284.606L108.973 284.628Z" fill="#FF3181"/>
<path d="M123.796 288.772C123.545 288.772 123.34 288.568 123.34 288.317C123.34 288.067 123.545 287.862 123.796 287.862L131.036 287.839C131.287 287.839 131.492 288.044 131.492 288.294C131.492 288.545 131.287 288.75 131.036 288.75L123.796 288.772Z" fill="#FF3181"/>
<path d="M123.796 293.03C123.545 293.03 123.34 292.825 123.34 292.575C123.34 292.324 123.545 292.12 123.796 292.12L131.036 292.097C131.287 292.097 131.492 292.302 131.492 292.552C131.492 292.803 131.287 293.008 131.036 293.008L123.796 293.03Z" fill="#FF3181"/>
<path d="M123.796 297.288C123.545 297.288 123.34 297.083 123.34 296.833C123.34 296.582 123.545 296.377 123.796 296.377L131.036 296.355C131.287 296.355 131.492 296.559 131.492 296.81C131.492 297.06 131.287 297.265 131.036 297.265L123.796 297.288Z" fill="#FF3181"/>
<path d="M123.796 301.546C123.545 301.546 123.34 301.341 123.34 301.091C123.34 300.84 123.545 300.635 123.796 300.635L131.036 300.612C131.287 300.612 131.492 300.817 131.492 301.068C131.492 301.318 131.287 301.523 131.036 301.523L123.796 301.546Z" fill="#FF3181"/>
<path d="M130.467 270.557L116.76 270.534C116.51 270.534 116.305 270.329 116.305 270.079C116.305 269.829 116.51 269.624 116.76 269.624L130.467 269.646C130.718 269.646 130.922 269.851 130.922 270.102C130.9 270.352 130.718 270.557 130.467 270.557Z" fill="#FFD000"/>
<path d="M110.749 278.413L97.0419 278.39C96.7915 278.39 96.5865 278.185 96.5865 277.934C96.5865 277.684 96.7915 277.479 97.0419 277.479L110.749 277.502C110.999 277.502 111.204 277.707 111.204 277.957C111.204 278.23 110.999 278.413 110.749 278.413Z" fill="#FFD000"/>
<path d="M110.749 280.963L97.0419 280.94C96.7915 280.94 96.5865 280.735 96.5865 280.484C96.5865 280.234 96.7915 280.029 97.0419 280.029L110.749 280.052C110.999 280.052 111.204 280.257 111.204 280.507C111.204 280.758 110.999 280.963 110.749 280.963Z" fill="#FFD000"/>
<path d="M130.467 266.299H123.34C123.09 266.299 122.885 266.094 122.885 265.844C122.885 265.593 123.09 265.389 123.34 265.389H130.467C130.717 265.389 130.922 265.593 130.922 265.844C130.922 266.094 130.717 266.299 130.467 266.299Z" fill="#FFD000"/>
<path d="M130.467 261.95H123.955C123.705 261.95 123.5 261.746 123.5 261.495C123.5 261.245 123.705 261.04 123.955 261.04H130.467C130.717 261.04 130.922 261.245 130.922 261.495C130.922 261.746 130.717 261.95 130.467 261.95Z" fill="#FFD000"/>
<path d="M114.255 266.299H107.129C106.878 266.299 106.673 266.094 106.673 265.844C106.673 265.593 106.878 265.389 107.129 265.389H114.255C114.506 265.389 114.711 265.593 114.711 265.844C114.711 266.094 114.506 266.299 114.255 266.299Z" fill="#FFD000"/>
<path d="M114.255 261.95H107.743C107.493 261.95 107.288 261.746 107.288 261.495C107.288 261.245 107.493 261.04 107.743 261.04H114.255C114.506 261.04 114.711 261.245 114.711 261.495C114.711 261.746 114.506 261.95 114.255 261.95Z" fill="#FFD000"/>
<path d="M119.333 266.299H117.079C116.828 266.299 116.623 266.094 116.623 265.844C116.623 265.593 116.828 265.389 117.079 265.389H119.333C119.583 265.389 119.788 265.593 119.788 265.844C119.788 266.094 119.583 266.299 119.333 266.299Z" fill="#FFD000"/>
<path d="M119.333 261.928H117.261C117.011 261.928 116.806 261.723 116.806 261.472C116.806 261.222 117.011 261.017 117.261 261.017H119.333C119.583 261.017 119.788 261.222 119.788 261.472C119.788 261.723 119.583 261.928 119.333 261.928Z" fill="#FFD000"/>
<path d="M116.532 306.897H114.278C114.028 306.897 113.823 306.692 113.823 306.441C113.823 306.191 114.028 305.986 114.278 305.986H116.532C116.783 305.986 116.988 306.191 116.988 306.441C116.988 306.692 116.783 306.897 116.532 306.897Z" fill="#FFD000"/>
<path d="M116.532 302.548H114.46C114.21 302.548 114.005 302.343 114.005 302.092C114.005 301.842 114.21 301.637 114.46 301.637H116.532C116.783 301.637 116.988 301.842 116.988 302.092C116.988 302.343 116.783 302.548 116.532 302.548Z" fill="#FFD000"/>
<path d="M116.532 316.687H114.278C114.028 316.687 113.823 316.482 113.823 316.232C113.823 315.982 114.028 315.777 114.278 315.777H116.532C116.783 315.777 116.988 315.982 116.988 316.232C116.988 316.505 116.783 316.687 116.532 316.687Z" fill="#FFD000"/>
<path d="M116.532 312.338H114.46C114.21 312.338 114.005 312.134 114.005 311.883C114.005 311.633 114.21 311.428 114.46 311.428H116.532C116.783 311.428 116.988 311.633 116.988 311.883C116.988 312.134 116.783 312.338 116.532 312.338Z" fill="#FFD000"/>
<path d="M121.769 316.687H119.515C119.265 316.687 119.06 316.482 119.06 316.232C119.06 315.982 119.265 315.777 119.515 315.777H121.769C122.02 315.777 122.225 315.982 122.225 316.232C122.225 316.505 122.02 316.687 121.769 316.687Z" fill="#FFD000"/>
<path d="M121.769 312.338H119.697C119.447 312.338 119.242 312.134 119.242 311.883C119.242 311.633 119.447 311.428 119.697 311.428H121.769C122.02 311.428 122.225 311.633 122.225 311.883C122.225 312.134 122.02 312.338 121.769 312.338Z" fill="#FFD000"/>
<path d="M127.006 316.687H124.752C124.501 316.687 124.297 316.482 124.297 316.232C124.297 315.982 124.501 315.777 124.752 315.777H127.006C127.256 315.777 127.461 315.982 127.461 316.232C127.461 316.505 127.256 316.687 127.006 316.687Z" fill="#FFD000"/>
<path d="M127.006 312.338H124.934C124.684 312.338 124.479 312.134 124.479 311.883C124.479 311.633 124.684 311.428 124.934 311.428H127.006C127.257 311.428 127.462 311.633 127.462 311.883C127.462 312.134 127.257 312.338 127.006 312.338Z" fill="#FFD000"/>
<path d="M132.243 316.687H129.989C129.738 316.687 129.533 316.482 129.533 316.232C129.533 315.982 129.738 315.777 129.989 315.777H132.243C132.493 315.777 132.698 315.982 132.698 316.232C132.698 316.505 132.493 316.687 132.243 316.687Z" fill="#FFD000"/>
<path d="M132.243 312.338H130.171C129.92 312.338 129.716 312.134 129.716 311.883C129.716 311.633 129.92 311.428 130.171 311.428H132.243C132.493 311.428 132.698 311.633 132.698 311.883C132.698 312.134 132.493 312.338 132.243 312.338Z" fill="#FFD000"/>
<path opacity="0.09" d="M458.524 552.667C458.524 557.266 450.145 561 439.785 561C429.448 561 421.046 557.266 421.046 552.667C421.046 548.067 429.425 544.333 439.785 544.333C450.145 544.333 458.524 548.067 458.524 552.667Z" fill="#017ABF"/>
<path d="M458.342 529.806L455.314 530.512C452.536 527.939 446.639 526.163 439.786 526.163C432.955 526.163 427.035 527.939 424.257 530.512L421.251 529.806L422.686 551.961C423.688 555.763 430.951 558.723 439.786 558.723C448.62 558.723 455.883 555.763 456.885 551.961L458.342 529.806Z" fill="#B0E6FF"/>
<path d="M427.49 548.864V552.53C427.49 552.53 430.495 554.169 435.869 554.124V550.458C435.869 550.458 431.429 550.754 427.49 548.864Z" fill="#BEEFFF"/>
<path d="M458.524 528.599C458.524 533.199 450.145 536.933 439.785 536.933C429.448 536.933 421.046 533.199 421.046 528.599C421.046 524 429.425 520.266 439.785 520.266C450.145 520.266 458.524 524 458.524 528.599Z" fill="#D4FAFF"/>
<path d="M454.426 527.757C454.426 531.355 447.868 534.269 439.785 534.269C431.702 534.269 425.145 531.355 425.145 527.757C425.145 524.16 431.702 521.245 439.785 521.245C447.868 521.245 454.426 524.16 454.426 527.757Z" fill="#A0D8FF"/>
<path d="M439.125 529.531L405.131 498.337C405.131 498.337 404.835 505.327 409.457 509.016C414.079 512.727 417.79 511.407 418.36 517.213C418.929 523.019 422.845 526.343 426.283 526.844C433.296 527.869 434.936 531.626 439.125 529.531Z" fill="#FFC400"/>
<path d="M439.125 529.533L405.131 498.339C405.131 498.339 412.053 497.451 416.151 501.732C420.227 506.013 419.248 509.838 425.077 509.906C430.906 509.974 434.549 513.595 435.345 516.965C436.985 523.864 440.856 525.161 439.125 529.533Z" fill="#FFB200"/>
<path d="M439.786 529.988V412.887C439.786 412.887 426.238 424.34 427.217 439.322C428.219 454.304 437.031 459.017 427.171 470.06C417.312 481.103 417.813 494.082 422.754 501.39C432.887 516.259 428.674 525.731 439.786 529.988Z" fill="#00FFEA"/>
<path d="M439.786 529.988V412.887C439.786 412.887 453.333 424.34 452.354 439.322C451.352 454.304 442.541 459.017 452.4 470.06C462.259 481.103 461.758 494.082 456.817 501.39C446.707 516.259 450.92 525.731 439.786 529.988Z" fill="#00EEEB"/>
<path d="M444.612 530.148L468.862 457.196C468.862 457.196 458.046 461.522 455.564 471.062C453.083 480.602 457.591 485.361 449.166 490.188C440.742 495.015 438.351 503.212 439.922 508.79C443.155 520.175 438.556 525.207 444.612 530.148Z" fill="#FF5378"/>
<path d="M444.612 530.148L468.861 457.196C468.861 457.196 474.941 467.123 471.207 476.253C467.495 485.384 461.006 486.499 464.877 495.402C468.748 504.328 465.742 512.32 461.143 515.826C451.762 523.021 452.422 529.806 444.612 530.148Z" fill="#B90235"/>
</svg>
