<svg width="40" height="32" viewBox="0 0 40 32" fill="none" xmlns="http://www.w3.org/2000/svg">
<path d="M36.4277 31.1921C37.3269 31.1921 38.1059 30.8975 38.7683 30.3157L27.4357 19.0679C27.1638 19.2612 26.9003 19.4491 26.6514 19.6278C25.8033 20.2479 25.115 20.7318 24.5864 21.0786C24.058 21.4261 23.3548 21.7804 22.4771 22.142C21.5989 22.5041 20.7806 22.6846 20.0216 22.6846H19.9994H19.9771C19.218 22.6846 18.3998 22.5042 17.5216 22.142C16.6434 21.7804 15.9403 21.4261 15.4123 21.0786C14.8838 20.7318 14.1959 20.248 13.3474 19.6278C13.1109 19.4557 12.8487 19.2669 12.5652 19.0649L1.23047 30.3157C1.8927 30.8975 2.6723 31.1921 3.57135 31.1921H36.4277Z" fill="url(#paint0_linear)"/>
<path d="M2.25468 11.9855C1.40668 11.4244 0.654683 10.7818 0 10.058V27.1705L9.98844 17.2571C7.99019 15.8726 5.41553 14.1174 2.25468 11.9855Z" fill="url(#paint1_linear)"/>
<path d="M37.768 11.9855C34.7277 14.0279 32.1437 15.7861 30.0156 17.2611L40.0001 27.1709V10.058C39.3599 10.7672 38.616 11.4094 37.768 11.9855Z" fill="url(#paint2_linear)"/>
<path d="M36.4285 0H3.57214C2.42588 0 1.54462 0.384162 0.927265 1.15169C0.3094 1.91959 0.000976562 2.87992 0.000976562 4.03162C0.000976562 4.9619 0.410272 5.96987 1.2285 7.05583C2.04673 8.14136 2.91739 8.99402 3.84004 9.61423C4.34585 9.96891 5.8712 11.0214 8.41607 12.7712C9.78986 13.716 10.9846 14.5396 12.0112 15.2502C12.8863 15.8554 13.641 16.3795 14.2641 16.8144C14.3356 16.8642 14.4481 16.944 14.5974 17.05C14.7583 17.1646 14.9618 17.3102 15.2129 17.4901C15.6965 17.8373 16.0983 18.1178 16.4182 18.3322C16.7378 18.5466 17.1249 18.7861 17.5791 19.0521C18.0329 19.3177 18.4609 19.5174 18.8627 19.6502C19.2645 19.783 19.6365 19.8496 19.9787 19.8496H20.0009H20.0231C20.3652 19.8496 20.7373 19.783 21.1392 19.6502C21.5408 19.5174 21.9685 19.3181 22.4227 19.0521C22.8764 18.7861 23.263 18.5461 23.5836 18.3322C23.9036 18.1178 24.3053 17.8373 24.789 17.4901C25.0396 17.3102 25.2431 17.1646 25.404 17.0503C25.5534 16.9439 25.6658 16.8646 25.7378 16.8144C26.2232 16.4791 26.9796 15.9572 27.9966 15.2564C29.8471 13.9803 32.5725 12.1021 36.1841 9.61423C37.2703 8.86125 38.1778 7.9526 38.9071 6.88956C39.6351 5.82651 40.0001 4.71143 40.0001 3.54467C40.0001 2.56985 39.6463 1.73572 38.94 1.04099C38.233 0.347116 37.3957 0 36.4285 0Z" fill="url(#paint3_linear)"/>
<defs>
<linearGradient id="paint0_linear" x1="1.23047" y1="31.1921" x2="39.1356" y2="20.349" gradientUnits="userSpaceOnUse">
<stop stop-color="#4AD4FF"/>
<stop offset="1" stop-color="#00A0FB"/>
</linearGradient>
<linearGradient id="paint1_linear" x1="1.48839e-07" y1="27.1705" x2="10.8799" y2="26.5836" gradientUnits="userSpaceOnUse">
<stop stop-color="#4AD4FF"/>
<stop offset="1" stop-color="#00A0FB"/>
</linearGradient>
<linearGradient id="paint2_linear" x1="30.0156" y1="27.1709" x2="40.8912" y2="26.5845" gradientUnits="userSpaceOnUse">
<stop stop-color="#4AD4FF"/>
<stop offset="1" stop-color="#00A0FB"/>
</linearGradient>
<linearGradient id="paint3_linear" x1="0.000977159" y1="19.8496" x2="42.2321" y2="11.985" gradientUnits="userSpaceOnUse">
<stop stop-color="#4AD4FF"/>
<stop offset="1" stop-color="#00A0FB"/>
</linearGradient>
</defs>
</svg>
