<svg width="978" height="400" viewBox="0 0 978 400" xmlns="http://www.w3.org/2000/svg"><title>Hero</title><g id="Hero" fill="none"><path d="M841.19 112.928c0-8.284-6.715-15-15-15-8.283 0-15 6.716-15 15 0 8.284 6.717 15 15 15 8.285 0 15-6.716 15-15z" id="Fill-2" fill="#59AFE1"/><path d="M841.19 112.928c0-8.284-6.715-15-15-15-8.283 0-15 6.716-15 15 0 8.284 6.717 15 15 15 8.285 0 15-6.716 15-15z" id="Stroke-3" stroke="#54A3D6" stroke-width="3" stroke-linecap="round" stroke-linejoin="round"/><path d="M605.023 53.78c0-11.596-9.402-21-21-21s-21 9.404-21 21c0 11.6 9.402 21 21 21s21-9.4 21-21z" id="Fill-4" fill="#59AFE1"/><path d="M605.023 53.78c0-11.596-9.402-21-21-21s-21 9.404-21 21c0 11.6 9.402 21 21 21s21-9.4 21-21z" id="Stroke-5" stroke="#54A3D6" stroke-width="3" stroke-linecap="round" stroke-linejoin="round"/><path d="M826.19 106.694v6.234l4.78 4.778" id="Fill-6" fill="#59AFE1"/><path d="M826.19 106.694v6.234l4.78 4.778" id="Stroke-7" stroke="#54A3D6" stroke-width="3" stroke-linecap="round" stroke-linejoin="round"/><path d="M826.19 97.928v2.307" id="Fill-8" fill="#59AFE1"/><path d="M826.19 97.928v2.307" id="Stroke-9" stroke="#54A3D6" stroke-width="3" stroke-linecap="round" stroke-linejoin="round"/><path d="M841.19 112.928h-2.306" id="Fill-10" fill="#59AFE1"/><path d="M841.19 112.928h-2.306" id="Stroke-11" stroke="#54A3D6" stroke-width="3" stroke-linecap="round" stroke-linejoin="round"/><path d="M826.19 127.928v-2.307" id="Fill-12" fill="#59AFE1"/><path d="M826.19 127.928v-2.307" id="Stroke-13" stroke="#54A3D6" stroke-width="3" stroke-linecap="round" stroke-linejoin="round"/><path d="M811.19 112.928h2.31" id="Fill-14" fill="#59AFE1"/><path d="M811.19 112.928h2.31" id="Stroke-15" stroke="#54A3D6" stroke-width="3" stroke-linecap="round" stroke-linejoin="round"/><path d="M836.798 102.322l-1.63 1.63" id="Fill-16" fill="#59AFE1"/><path d="M836.798 102.322l-1.63 1.63" id="Stroke-17" stroke="#54A3D6" stroke-width="3" stroke-linecap="round" stroke-linejoin="round"/><path d="M836.798 123.535l-1.63-1.63" id="Fill-18" fill="#59AFE1"/><path d="M836.798 123.535l-1.63-1.63" id="Stroke-19" stroke="#54A3D6" stroke-width="3" stroke-linecap="round" stroke-linejoin="round"/><path d="M815.585 123.535l1.63-1.63" id="Fill-20" fill="#59AFE1"/><path d="M815.585 123.535l1.63-1.63" id="Stroke-21" stroke="#54A3D6" stroke-width="3" stroke-linecap="round" stroke-linejoin="round"/><path d="M815.585 102.322l1.63 1.63" id="Fill-22" fill="#59AFE1"/><path d="M815.585 102.322l1.63 1.63" id="Stroke-23" stroke="#54A3D6" stroke-width="3" stroke-linecap="round" stroke-linejoin="round"/><path d="M244.87 111.16v-54c0-4.97 12.087-9 27-9 14.91 0 27 4.03 27 9v54c0 4.972-12.09 9-27 9-14.913 0-27-4.028-27-9z" id="Fill-24" fill="#53A8D8"/><path d="M244.87 111.16v-54c0-4.97 12.087-9 27-9 14.91 0 27 4.03 27 9v54c0 4.972-12.09 9-27 9-14.913 0-27-4.028-27-9z" id="Stroke-25" stroke="#54A3D6" stroke-width="3" stroke-linecap="round" stroke-linejoin="round"/><path d="M298.87 57.16c0 4.972-12.09 9-27 9-14.913 0-27-4.028-27-9 0-4.97 12.087-9 27-9 14.91 0 27 4.03 27 9z" id="Fill-26" fill="#53A8D8"/><path d="M298.87 57.16c0 4.972-12.09 9-27 9-14.913 0-27-4.028-27-9 0-4.97 12.087-9 27-9 14.91 0 27 4.03 27 9z" id="Stroke-27" stroke="#54A3D6" stroke-width="3" stroke-linecap="round" stroke-linejoin="round"/><path d="M298.87 75.16c0 4.972-12.09 9-27 9-14.913 0-27-4.028-27-9" id="Fill-28" fill="#53A8D8"/><path d="M298.87 75.16c0 4.972-12.09 9-27 9-14.913 0-27-4.028-27-9" id="Stroke-29" stroke="#54A3D6" stroke-width="3" stroke-linecap="round" stroke-linejoin="round"/><path d="M244.87 57.16v18" id="Fill-30" fill="#53A8D8"/><path d="M244.87 57.16v18" id="Stroke-31" stroke="#54A3D6" stroke-width="3" stroke-linecap="round" stroke-linejoin="round"/><path d="M298.87 57.16v18" id="Fill-32" fill="#53A8D8"/><path d="M298.87 57.16v18" id="Stroke-33" stroke="#54A3D6" stroke-width="3" stroke-linecap="round" stroke-linejoin="round"/><path d="M298.87 93.16c0 4.972-12.09 9-27 9-14.913 0-27-4.028-27-9" id="Fill-34" fill="#53A8D8"/><path d="M298.87 93.16c0 4.972-12.09 9-27 9-14.913 0-27-4.028-27-9" id="Stroke-35" stroke="#54A3D6" stroke-width="3" stroke-linecap="round" stroke-linejoin="round"/><path d="M244.87 75.16v18" id="Fill-36" fill="#53A8D8"/><path d="M244.87 75.16v18" id="Stroke-37" stroke="#54A3D6" stroke-width="3" stroke-linecap="round" stroke-linejoin="round"/><path d="M298.87 75.16v18" id="Fill-38" fill="#53A8D8"/><path d="M298.87 75.16v18" id="Stroke-39" stroke="#54A3D6" stroke-width="3" stroke-linecap="round" stroke-linejoin="round"/><path d="M298.87 111.16c0 4.972-12.09 9-27 9-14.913 0-27-4.028-27-9" id="Fill-40" fill="#53A8D8"/><path d="M298.87 111.16c0 4.972-12.09 9-27 9-14.913 0-27-4.028-27-9" id="Stroke-41" stroke="#54A3D6" stroke-width="3" stroke-linecap="round" stroke-linejoin="round"/><path d="M244.87 93.16v18" id="Fill-42" fill="#53A8D8"/><path d="M244.87 93.16v18" id="Stroke-43" stroke="#54A3D6" stroke-width="3" stroke-linecap="round" stroke-linejoin="round"/><path d="M298.87 93.16v18" id="Fill-44" fill="#53A8D8"/><path d="M298.87 93.16v18" id="Stroke-45" stroke="#54A3D6" stroke-width="3" stroke-linecap="round" stroke-linejoin="round"/><path d="M420.936 141.024v9h54c4.97 0 9-4.03 9-9s-4.03-9-9-9c0-4.97-4.03-9-9-9 0-7.456-6.044-13.5-13.5-13.5-7.455 0-13.5 6.044-13.5 13.5-9.94 0-18 8.06-18 18z" id="Fill-46" fill="#59AFE1"/><path d="M420.936 141.024v9h54c4.97 0 9-4.03 9-9s-4.03-9-9-9c0-4.97-4.03-9-9-9 0-7.456-6.044-13.5-13.5-13.5-7.455 0-13.5 6.044-13.5 13.5-9.94 0-18 8.06-18 18z" id="Stroke-47" stroke="#54A3D6" stroke-width="3" stroke-linecap="round" stroke-linejoin="round"/><path d="M119.677 144.103v9h54c4.97 0 9-4.03 9-9s-4.03-9-9-9c0-4.97-4.03-9-9-9 0-7.456-6.044-13.5-13.5-13.5-7.455 0-13.5 6.044-13.5 13.5-9.94 0-18 8.06-18 18z" id="Fill-48" fill="#59AFE1"/><path d="M119.677 144.103v9h54c4.97 0 9-4.03 9-9s-4.03-9-9-9c0-4.97-4.03-9-9-9 0-7.456-6.044-13.5-13.5-13.5-7.455 0-13.5 6.044-13.5 13.5-9.94 0-18 8.06-18 18z" id="Stroke-49" stroke="#54A3D6" stroke-width="3" stroke-linecap="round" stroke-linejoin="round"/><path d="M329.56 239.436c0 17.397 14.103 31.5 31.5 31.5s31.5-14.103 31.5-31.5-14.103-31.5-31.5-31.5-31.5 14.103-31.5 31.5z" id="Fill-50" fill="#59AFE1"/><path d="M329.56 239.436c0 17.397 14.103 31.5 31.5 31.5s31.5-14.103 31.5-31.5-14.103-31.5-31.5-31.5-31.5 14.103-31.5 31.5z" id="Stroke-51" stroke="#54A3D6" stroke-width="3" stroke-linecap="round" stroke-linejoin="round"/><path d="M349.81 237.186c0 6.213 5.037 11.25 11.25 11.25s11.25-5.037 11.25-11.25-5.037-11.25-11.25-11.25-11.25 5.037-11.25 11.25z" id="Fill-52" fill="#59AFE1"/><path d="M349.81 237.186c0 6.213 5.037 11.25 11.25 11.25s11.25-5.037 11.25-11.25-5.037-11.25-11.25-11.25-11.25 5.037-11.25 11.25z" id="Stroke-53" stroke="#54A3D6" stroke-width="3" stroke-linecap="round" stroke-linejoin="round"/><path d="M379.06 265.31c-5.014 3.533-11.246 5.626-18 5.626s-12.986-2.093-18-5.625c0-9.32 8.06-16.874 18-16.874s18 7.555 18 16.875z" id="Fill-54" fill="#59AFE1"/><path d="M379.06 265.31c-5.014 3.533-11.246 5.626-18 5.626s-12.986-2.093-18-5.625c0-9.32 8.06-16.874 18-16.874s18 7.555 18 16.875z" id="Stroke-55" stroke="#54A3D6" stroke-width="3" stroke-linecap="round" stroke-linejoin="round"/><path d="M372.073 239.486c-7.683-11.068-11.074-2.297-14.314-10.668 1.324 6.718-4.07 9.2-7.948 8.414l-.002-.046c0-6.213 5.037-11.25 11.25-11.25s11.25 5.037 11.25 11.25c0 .788-.083 1.557-.237 2.3z" id="Fill-56" fill="#53A8D8"/><path d="M372.073 239.486c-7.683-11.068-11.074-2.297-14.314-10.668 1.324 6.718-4.07 9.2-7.948 8.414l-.002-.046c0-6.213 5.037-11.25 11.25-11.25s11.25 5.037 11.25 11.25c0 .788-.083 1.557-.237 2.3z" id="Stroke-57" stroke="#54A3D6" stroke-width="3" stroke-linecap="round" stroke-linejoin="round"/><path d="M507.37 333.532h-36v-31.5l13.5-13.5h22.5v45z" id="Fill-58" fill="#59AFE1"/><path d="M507.37 333.532h-36v-31.5l13.5-13.5h22.5v45z" id="Stroke-59" stroke="#54A3D6" stroke-width="3" stroke-linecap="round" stroke-linejoin="round"/><path d="M484.87 288.532v13.5h-13.5l13.5-13.5z" id="Fill-60" fill="#59AFE1"/><path d="M484.87 288.532v13.5h-13.5l13.5-13.5z" id="Stroke-61" stroke="#54A3D6" stroke-width="3" stroke-linecap="round" stroke-linejoin="round"/><path d="M507.37 333.532h-36v-31.5l13.5-13.5h22.5v45z" id="Fill-62" fill="#59AFE1"/><path d="M507.37 333.532h-36v-31.5l13.5-13.5h22.5v45z" id="Stroke-63" stroke="#54A3D6" stroke-width="3" stroke-linecap="round" stroke-linejoin="round"/><path d="M471.37 302.032h13.5v-13.5l-13.5 13.5z" id="Fill-64" fill="#53A8D8"/><path d="M471.37 302.032h13.5v-13.5l-13.5 13.5z" id="Stroke-65" stroke="#54A3D6" stroke-width="3" stroke-linecap="round" stroke-linejoin="round"/><path d="M523.702 345.632h-36v-31.5l13.5-13.5h22.5v45z" id="Fill-66" fill="#59AFE1"/><path d="M523.702 345.632h-36v-31.5l13.5-13.5h22.5v45z" id="Stroke-67" stroke="#54A3D6" stroke-width="3" stroke-linecap="round" stroke-linejoin="round"/><path d="M501.202 300.632v13.5h-13.5l13.5-13.5z" id="Fill-68" fill="#59AFE1"/><path d="M501.202 300.632v13.5h-13.5l13.5-13.5z" id="Stroke-69" stroke="#54A3D6" stroke-width="3" stroke-linecap="round" stroke-linejoin="round"/><path d="M523.702 345.632h-36v-31.5l13.5-13.5h22.5v45z" id="Fill-70" fill="#59AFE1"/><path d="M523.702 345.632h-36v-31.5l13.5-13.5h22.5v45z" id="Stroke-71" stroke="#54A3D6" stroke-width="3" stroke-linecap="round" stroke-linejoin="round"/><path d="M487.702 314.132h13.5v-13.5l-13.5 13.5z" id="Fill-72" fill="#53A8D8"/><path d="M487.702 314.132h13.5v-13.5l-13.5 13.5z" id="Stroke-73" stroke="#54A3D6" stroke-width="3" stroke-linecap="round" stroke-linejoin="round"/><path d="M540.035 357.733h-36v-31.5l13.5-13.5h22.5v45z" id="Fill-74" fill="#59AFE1"/><path d="M540.035 357.733h-36v-31.5l13.5-13.5h22.5v45z" id="Stroke-75" stroke="#54A3D6" stroke-width="3" stroke-linecap="round" stroke-linejoin="round"/><path d="M517.535 312.733v13.5h-13.5l13.5-13.5z" id="Fill-76" fill="#59AFE1"/><path d="M517.535 312.733v13.5h-13.5l13.5-13.5z" id="Stroke-77" stroke="#54A3D6" stroke-width="3" stroke-linecap="round" stroke-linejoin="round"/><path d="M540.035 357.733h-36v-31.5l13.5-13.5h22.5v45z" id="Fill-78" fill="#59AFE1"/><path d="M540.035 357.733h-36v-31.5l13.5-13.5h22.5v45z" id="Stroke-79" stroke="#54A3D6" stroke-width="3" stroke-linecap="round" stroke-linejoin="round"/><path d="M504.035 326.233h13.5v-13.5l-13.5 13.5z" id="Fill-80" fill="#53A8D8"/><path d="M504.035 326.233h13.5v-13.5l-13.5 13.5z" id="Stroke-81" stroke="#54A3D6" stroke-width="3" stroke-linecap="round" stroke-linejoin="round"/><path d="M430.924 74.962h-36v-31.5l13.5-13.5h22.5v45z" id="Fill-82" fill="#59AFE1"/><path d="M430.924 74.962h-36v-31.5l13.5-13.5h22.5v45z" id="Stroke-83" stroke="#54A3D6" stroke-width="3" stroke-linecap="round" stroke-linejoin="round"/><path d="M408.424 29.962v13.5h-13.5l13.5-13.5z" id="Fill-84" fill="#59AFE1"/><path d="M408.424 29.962v13.5h-13.5l13.5-13.5z" id="Stroke-85" stroke="#54A3D6" stroke-width="3" stroke-linecap="round" stroke-linejoin="round"/><path d="M430.924 74.962h-36v-31.5l13.5-13.5h22.5v45z" id="Fill-86" fill="#59AFE1"/><path d="M430.924 74.962h-36v-31.5l13.5-13.5h22.5v45z" id="Stroke-87" stroke="#54A3D6" stroke-width="3" stroke-linecap="round" stroke-linejoin="round"/><path d="M394.924 43.462h13.5v-13.5l-13.5 13.5z" id="Fill-88" fill="#53A8D8"/><path d="M394.924 43.462h13.5v-13.5l-13.5 13.5z" id="Stroke-89" stroke="#54A3D6" stroke-width="3" stroke-linecap="round" stroke-linejoin="round"/><path d="M688.364 102.24l-12.728 12.728m0-12.728l12.728 12.728m-462.114-80.506v18m-9-9h18" id="Stroke-90" stroke="#54A3D6" stroke-width="3" stroke-linecap="round" stroke-linejoin="round"/><path d="M214.177 279.532c0 17.397-14.103 31.5-31.5 31.5s-31.5-14.103-31.5-31.5 14.103-31.5 31.5-31.5 31.5 14.103 31.5 31.5z" id="Fill-91" fill="#59AFE1"/><path d="M214.177 279.532c0 17.397-14.103 31.5-31.5 31.5s-31.5-14.103-31.5-31.5 14.103-31.5 31.5-31.5 31.5 14.103 31.5 31.5z" id="Stroke-92" stroke="#54A3D6" stroke-width="3" stroke-linecap="round" stroke-linejoin="round"/><path d="M190.597 290.27l6.572-.863s-2.7-6.694-3.282-13.13h-.01c.028.33.05.666.05 1.005 0 6.213-5.037 11.25-11.25 11.25 2.845 0 5.526.636 7.92 1.74z" id="Fill-93" fill="#53A8D8"/><path d="M190.597 290.27l6.572-.863s-2.7-6.694-3.282-13.13h-.01c.028.33.05.666.05 1.005 0 6.213-5.037 11.25-11.25 11.25 2.845 0 5.526.636 7.92 1.74z" id="Stroke-94" stroke="#54A3D6" stroke-width="3" stroke-linecap="round" stroke-linejoin="round"/><path d="M174.754 290.272c2.394-1.103 5.076-1.74 7.923-1.74-6.213 0-11.25-5.037-11.25-11.25 0-.34.022-.674.05-1.006h-.018c-.582 6.437-3.283 13.13-3.283 13.13l6.577.866z" id="Fill-95" fill="#53A8D8"/><path d="M174.754 290.272c2.394-1.103 5.076-1.74 7.923-1.74-6.213 0-11.25-5.037-11.25-11.25 0-.34.022-.674.05-1.006h-.018c-.582 6.437-3.283 13.13-3.283 13.13l6.577.866z" id="Stroke-96" stroke="#54A3D6" stroke-width="3" stroke-linecap="round" stroke-linejoin="round"/><path d="M164.677 305.408c5.015 3.53 11.246 5.624 18 5.624s12.986-2.093 18-5.624c0-9.32-8.06-16.876-18-16.876s-18 7.556-18 16.875z" id="Fill-97" fill="#59AFE1"/><path d="M164.677 305.408c5.015 3.53 11.246 5.624 18 5.624s12.986-2.093 18-5.624c0-9.32-8.06-16.876-18-16.876s-18 7.556-18 16.875z" id="Stroke-98" stroke="#54A3D6" stroke-width="3" stroke-linecap="round" stroke-linejoin="round"/><path d="M193.927 277.282c0 6.213-5.036 11.25-11.25 11.25-6.213 0-11.25-5.037-11.25-11.25s5.037-11.25 11.25-11.25c6.214 0 11.25 5.037 11.25 11.25z" id="Fill-99" fill="#59AFE1"/><path d="M193.927 277.282c0 6.213-5.036 11.25-11.25 11.25-6.213 0-11.25-5.037-11.25-11.25s5.037-11.25 11.25-11.25c6.214 0 11.25 5.037 11.25 11.25z" id="Stroke-100" stroke="#54A3D6" stroke-width="3" stroke-linecap="round" stroke-linejoin="round"/><path d="M188.966 267.953c-1.795-1.213-3.96-1.92-6.29-1.92-3.674 0-6.93 1.77-8.982 4.497 2.053 2.726 5.308 4.497 8.983 4.497 2.33 0 4.494-.707 6.29-1.92 1.036-.7 1.94-1.577 2.692-2.576-.753-.997-1.657-1.877-2.694-2.577z" id="Fill-101" fill="#53A8D8"/><path d="M188.966 267.953c-1.795-1.213-3.96-1.92-6.29-1.92-3.674 0-6.93 1.77-8.982 4.497 2.053 2.726 5.308 4.497 8.983 4.497 2.33 0 4.494-.707 6.29-1.92 1.036-.7 1.94-1.577 2.692-2.576-.753-.997-1.657-1.877-2.694-2.577z" id="Stroke-102" stroke="#54A3D6" stroke-width="3" stroke-linecap="round" stroke-linejoin="round"/><path d="M303.37 332.36c0 17.395-14.104 31.5-31.5 31.5s-31.5-14.105-31.5-31.5c0-17.398 14.102-31.5 31.5-31.5s31.5 14.102 31.5 31.5z" id="Fill-103" fill="#59AFE1"/><path d="M303.37 332.36c0 17.395-14.104 31.5-31.5 31.5s-31.5-14.105-31.5-31.5c0-17.398 14.102-31.5 31.5-31.5s31.5 14.102 31.5 31.5z" id="Stroke-104" stroke="#54A3D6" stroke-width="3" stroke-linecap="round" stroke-linejoin="round"/><path d="M253.87 358.234c5.013 3.53 11.245 5.625 18 5.625s12.985-2.095 18-5.626c0-9.32-8.06-16.875-18-16.875-9.943 0-18 7.554-18 16.874z" id="Fill-105" fill="#59AFE1"/><path d="M253.87 358.234c5.013 3.53 11.245 5.625 18 5.625s12.985-2.095 18-5.626c0-9.32-8.06-16.875-18-16.875-9.943 0-18 7.554-18 16.874z" id="Stroke-106" stroke="#54A3D6" stroke-width="3" stroke-linecap="round" stroke-linejoin="round"/><path d="M283.12 330.11c0 6.212-5.038 11.25-11.25 11.25-6.215 0-11.25-5.038-11.25-11.25 0-6.215 5.035-11.25 11.25-11.25 6.212 0 11.25 5.035 11.25 11.25z" id="Fill-107" fill="#59AFE1"/><path d="M283.12 330.11c0 6.212-5.038 11.25-11.25 11.25-6.215 0-11.25-5.038-11.25-11.25 0-6.215 5.035-11.25 11.25-11.25 6.212 0 11.25 5.035 11.25 11.25z" id="Stroke-108" stroke="#54A3D6" stroke-width="3" stroke-linecap="round" stroke-linejoin="round"/><path d="M278.157 320.78c-1.795-1.213-3.96-1.92-6.288-1.92-3.677 0-6.93 1.77-8.984 4.496 2.053 2.727 3.745.244 7.276 2.128 7.5 4 11.375 1 10.688-2.126-.75-1-1.656-1.88-2.693-2.58z" id="Fill-109" fill="#53A8D8"/><path d="M278.157 320.78c-1.795-1.213-3.96-1.92-6.288-1.92-3.677 0-6.93 1.77-8.984 4.496 2.053 2.727 3.745.244 7.276 2.128 7.5 4 11.375 1 10.688-2.126-.75-1-1.656-1.88-2.693-2.58z" id="Stroke-110" stroke="#54A3D6" stroke-width="3" stroke-linecap="round" stroke-linejoin="round"/><path d="M801.22 244.392h18v17.105h-18v-17.105z" id="Fill-112" fill="#59AFE1"/><path d="M801.22 244.392h18v17.105h-18v-17.105z" id="Stroke-113" stroke="#54A3D6" stroke-width="3" stroke-linecap="round" stroke-linejoin="round"/><path d="M679.908 244.392h18v17.105h-18v-17.105z" id="Fill-114" fill="#59AFE1"/><path d="M679.908 244.392h18v17.105h-18v-17.105z" id="Stroke-115" stroke="#54A3D6" stroke-width="3" stroke-linecap="round" stroke-linejoin="round"/><path d="M69.942 46.998c-4.42 2.272-9.847.53-12.118-3.892-2.272-4.42-.53-9.846 3.89-12.118 4.422-2.272 9.848-.53 12.12 3.892 2.27 4.42.53 9.846-3.892 12.118z" id="Fill-117" fill="#53A8D8"/><path d="M69.942 46.998c-4.42 2.272-9.847.53-12.118-3.892-2.272-4.42-.53-9.846 3.89-12.118 4.422-2.272 9.848-.53 12.12 3.892 2.27 4.42.53 9.846-3.892 12.118z" id="Stroke-118" stroke="#54A3D6" stroke-width="3" stroke-linecap="round" stroke-linejoin="round"/><path d="M660.02 138.86c-4.422 2.272-9.847.53-12.12-3.892-2.27-4.42-.528-9.847 3.893-12.118 4.42-2.272 9.846-.53 12.118 3.89 2.273 4.423.53 9.848-3.89 12.12z" id="Fill-119" fill="#53A8D8"/><path d="M660.02 138.86c-4.422 2.272-9.847.53-12.12-3.892-2.27-4.42-.528-9.847 3.893-12.118 4.42-2.272 9.846-.53 12.118 3.89 2.273 4.423.53 9.848-3.89 12.12z" id="Stroke-120" stroke="#54A3D6" stroke-width="3" stroke-linecap="round" stroke-linejoin="round"/><path d="M693.02 199.86c-4.42 2.27-9.845.53-12.117-3.892-2.272-4.42-.53-9.846 3.892-12.118 4.42-2.272 9.847-.53 12.118 3.892 2.272 4.42.53 9.846-3.892 12.118z" id="Fill-121" fill="#53A8D8"/><path d="M693.02 199.86c-4.42 2.27-9.845.53-12.117-3.892-2.272-4.42-.53-9.846 3.892-12.118 4.42-2.272 9.847-.53 12.118 3.892 2.272 4.42.53 9.846-3.892 12.118z" id="Stroke-122" stroke="#54A3D6" stroke-width="3" stroke-linecap="round" stroke-linejoin="round"/><path d="M814.274 199.86c-4.42 2.27-9.846.53-12.118-3.892-2.272-4.42-.53-9.846 3.892-12.118 4.42-2.272 9.846-.53 12.118 3.892 2.272 4.42.53 9.846-3.892 12.118z" id="Fill-123" fill="#53A8D8"/><path d="M814.274 199.86c-4.42 2.27-9.846.53-12.118-3.892-2.272-4.42-.53-9.846 3.892-12.118 4.42-2.272 9.846-.53 12.118 3.892 2.272 4.42.53 9.846-3.892 12.118z" id="Stroke-124" stroke="#54A3D6" stroke-width="3" stroke-linecap="round" stroke-linejoin="round"/><path d="M908.94 199.86c-4.42 2.27-9.846.53-12.118-3.892-2.27-4.42-.53-9.846 3.892-12.118 4.42-2.272 9.847-.53 12.12 3.892 2.27 4.42.528 9.846-3.893 12.118z" id="Fill-125" fill="#53A8D8"/><path d="M908.94 199.86c-4.42 2.27-9.846.53-12.118-3.892-2.27-4.42-.53-9.846 3.892-12.118 4.42-2.272 9.847-.53 12.12 3.892 2.27 4.42.528 9.846-3.893 12.118z" id="Stroke-126" stroke="#54A3D6" stroke-width="3" stroke-linecap="round" stroke-linejoin="round"/><path d="M815.02 346.056c-4.422 2.272-9.847.53-12.12-3.892-2.27-4.42-.528-9.846 3.893-12.118 4.42-2.272 9.846-.53 12.118 3.892 2.273 4.42.53 9.846-3.89 12.118z" id="Fill-129" fill="#59AFE1"/><path d="M815.02 346.056c-4.422 2.272-9.847.53-12.12-3.892-2.27-4.42-.528-9.846 3.893-12.118 4.42-2.272 9.846-.53 12.118 3.892 2.273 4.42.53 9.846-3.89 12.118z" id="Stroke-130" stroke="#54A3D6" stroke-width="3" stroke-linecap="round" stroke-linejoin="round"/><path d="M865.353 346.056c-4.42 2.272-9.847.53-12.118-3.892-2.272-4.42-.53-9.846 3.89-12.118 4.422-2.272 9.848-.53 12.12 3.892 2.27 4.42.53 9.846-3.892 12.118z" id="Fill-131" fill="#59AFE1"/><path d="M865.353 346.056c-4.42 2.272-9.847.53-12.118-3.892-2.272-4.42-.53-9.846 3.89-12.118 4.422-2.272 9.848-.53 12.12 3.892 2.27 4.42.53 9.846-3.892 12.118z" id="Stroke-132" stroke="#54A3D6" stroke-width="3" stroke-linecap="round" stroke-linejoin="round"/><path d="M815.02 309.86c-4.422 2.272-9.847.53-12.12-3.892-2.27-4.42-.528-9.847 3.893-12.118 4.42-2.272 9.846-.53 12.118 3.89 2.273 4.423.53 9.848-3.89 12.12z" id="Fill-134" fill="#53A8D8"/><path d="M815.02 309.86c-4.422 2.272-9.847.53-12.12-3.892-2.27-4.42-.528-9.847 3.893-12.118 4.42-2.272 9.846-.53 12.118 3.89 2.273 4.423.53 9.848-3.89 12.12z" id="Stroke-135" stroke="#54A3D6" stroke-width="3" stroke-linecap="round" stroke-linejoin="round"/><path d="M865.353 309.86c-4.42 2.272-9.847.53-12.118-3.892-2.272-4.42-.53-9.847 3.89-12.118 4.422-2.272 9.848-.53 12.12 3.89 2.27 4.423.53 9.848-3.892 12.12z" id="Fill-136" fill="#53A8D8"/><path d="M865.353 309.86c-4.42 2.272-9.847.53-12.118-3.892-2.272-4.42-.53-9.847 3.89-12.118 4.422-2.272 9.848-.53 12.12 3.89 2.27 4.423.53 9.848-3.892 12.12z" id="Stroke-137" stroke="#54A3D6" stroke-width="3" stroke-linecap="round" stroke-linejoin="round"/><path d="M971.607 309.86c-4.42 2.272-9.847.53-12.12-3.892-2.27-4.42-.528-9.847 3.893-12.118 4.42-2.272 9.847-.53 12.118 3.89 2.272 4.423.53 9.848-3.89 12.12z" id="Fill-138" fill="#53A8D8"/><path d="M971.607 309.86c-4.42 2.272-9.847.53-12.12-3.892-2.27-4.42-.528-9.847 3.893-12.118 4.42-2.272 9.847-.53 12.118 3.89 2.272 4.423.53 9.848-3.89 12.12z" id="Stroke-139" stroke="#54A3D6" stroke-width="3" stroke-linecap="round" stroke-linejoin="round"/><path d="M776.567 30.43c9.804 0 17.754 7.948 17.754 17.753 0 6.678-3.685 12.49-9.132 15.522l1.33 8.15-8.206-6.003c-.575.057-1.157.086-1.745.086-9.807 0-17.756-7.95-17.756-17.755s7.95-17.754 17.757-17.754z" id="Fill-141" fill="#59AFE1"/><path d="M776.567 30.43c9.804 0 17.754 7.948 17.754 17.753 0 6.678-3.685 12.49-9.132 15.522l1.33 8.15-8.206-6.003c-.575.057-1.157.086-1.745.086-9.807 0-17.756-7.95-17.756-17.755s7.95-17.754 17.757-17.754z" id="Stroke-142" stroke="#54A3D6" stroke-width="3" stroke-linecap="round" stroke-linejoin="round"/><path d="M753.376 33.067c-9.806 0-17.755 7.95-17.755 17.755 0 6.677 3.687 12.49 9.134 15.522l-1.33 8.15 8.206-6.003c.574.057 1.157.087 1.746.087 9.805 0 17.754-7.95 17.754-17.755s-7.95-17.755-17.754-17.755z" id="Fill-143" fill="#53A8D8"/><path d="M753.376 33.067c-9.806 0-17.755 7.95-17.755 17.755 0 6.677 3.687 12.49 9.134 15.522l-1.33 8.15 8.206-6.003c.574.057 1.157.087 1.746.087 9.805 0 17.754-7.95 17.754-17.755s-7.95-17.755-17.754-17.755z" id="Stroke-144" stroke="#54A3D6" stroke-width="3" stroke-linecap="round" stroke-linejoin="round"/><g id="Lines" stroke="#54A3D6" stroke-width="3" stroke-linecap="round" stroke-linejoin="round"><path d="M828 301.855h15.667m-137.602-110h87.333m33.602 0h62m-149.333 110h54.844m83.823 0h54.844m-24.984 18.098c0-9.996 8.103-18.098 18.098-18.098h25.21m-43.307 18.098c0 9.995-8.103 18.098-18.098 18.098h-13.55m-292.524-281.298v-10.9m-3.846 1.633l3.846-3.847 3.846 3.847m-9.63 5.554h-2.937c-.702 0-1.27.567-1.27 1.268v6.347c0 .7.568 1.27 1.27 1.27h17.44c.702 0 1.27-.57 1.27-1.27v-6.347c0-.7-.568-1.27-1.27-1.27h-2.936" id="Stroke-140"/><path d="M83.435 27.854c23.57 13.02 50.53 19.318 77.68 17.834l.04.01c4.943-.533 9.38 3.042 9.912 7.984s-3.006 9.328-7.42 9.885c-27.932 1.795-55.738-3.728-80.66-15.684m-81.957-49.86c34.606 54.895 95.097 85.467 157.05 83.825l42.92-.448m-117.565-53.545c-18.252-10.083-25.172-16.071-37.495-29.831m568.975 400.473v-195.892c0-5.937 4.814-10.75 10.75-10.75h46.57m-37.32 206.17v-85.42c0-5.937 4.814-10.75 10.75-10.75h29.9m152.435 36.195h15.667" id="Stroke-133"/><path d="M801.22 222.56l8.94-9.06 9.06 8.94m-9.06-8.94v18.72m-93.17-188.18l9.06 8.94-8.94 9.058m8.94-9.06h-111.72m-69.506-8.94l9.06 8.94-8.94 9.06m8.94-9.06h-111.72m-248.736 111.815h54.892c5.937 0 10.75-4.814 10.75-10.75v-19.9m335.845 264.355v-256.893c0-5.937 4.813-10.75 10.75-10.75h33.002m-366.798 3.288v153.64m78.44-122.99h-54.892c-5.938 0-10.75-4.815-10.75-10.752v-19.897m-91.24 30.65c-5.937 0-10.75 4.812-10.75 10.75v58.873m167.63-69.624c5.94 0 10.752 4.813 10.752 10.75v18.874m439.958-80.488h-21.892c-5.937 0-10.75-4.813-10.75-10.75v-19.899m-311.672 231.396h-84.893c-5.937 0-10.75-4.813-10.75-10.75v-19.9m-338.29-285.996c8.135 11.056 17.506 20.845 27.82 29.27" id="Stroke-116"/><path d="M765.924 251.995l12.366 3.017-3.016 12.365m-581.21-194.977l9.053 8.947-8.946 9.054m485.799 132.159l8.94-9.06 9.06 8.94m-9.06-8.94v18.72" id="Stroke-111"/><path d="M762.862 319.953c0-9.996-8.102-18.098-18.098-18.098h-69.2m87.298 18.098c0 9.995 8.104 18.098 18.1 18.098h13.55m-73.34-81c8.065 4.44 17.33 6.97 27.186 6.97 10.075 0 19.532-2.642 27.72-7.27" id="Stroke-1"/></g></g></svg>