<svg width="128" height="119" viewBox="0 0 128 119" fill="none" xmlns="http://www.w3.org/2000/svg">
<path d="M106.378 111.612C99.3144 118.661 87.4529 120.283 78.7679 115.378C72.3613 111.759 68.0322 105.312 61.9205 101.251C54.7634 96.4798 45.8103 95.3941 37.2191 94.657C26.4432 93.7322 15.1982 93.0084 6.56678 85.4626C2.82739 82.1923 0.307654 77.6622 0.0261944 72.7031C-0.563531 61.9004 8.91228 55.8558 17.5437 51.406C24.9287 47.5996 33.1044 43.2973 35.9056 35.4834C37.5675 30.8461 37.018 25.7262 37.8624 20.8744C39.3099 12.5914 45.1804 5.20644 52.9138 1.93614C57.8594 -0.154698 63.4752 -0.529978 68.6889 0.703083C69.721 0.944334 70.7396 1.18559 71.785 1.35982C77.1863 2.27122 82.3464 4.46928 86.6621 7.8468C94.4894 13.9719 99.2876 23.7828 99.3144 33.7277C99.3412 45.0665 93.6182 56.9146 98.0814 67.3554C100.789 73.6815 106.78 78.0241 110.144 84.0151C115.063 92.7002 113.441 104.562 106.378 111.612Z" fill="url(#paint0_linear)"/>
<path d="M15.4928 37.4671C22.0334 35.1752 29.2039 34.7731 35.463 31.8111C46.5874 26.5438 53.1682 13.9719 64.7214 9.6964C75.3901 5.74257 88.6589 10.8893 93.9128 21.0218C97.1831 27.3211 97.5048 34.8803 101.07 41.0188C106.136 49.7441 116.671 53.9258 122.581 62.1149C128.666 70.5587 128.626 82.9027 122.488 91.2393C116.336 99.5758 104.555 103.275 94.7036 99.9377C87.2918 97.418 81.0595 91.4403 73.2724 90.73C66.1957 90.0598 59.5479 93.9601 53.8651 98.1819C48.1689 102.417 42.6469 107.336 35.7579 109.052C24.3923 111.88 12.1019 107.336 15.3454 91.8826C16.2299 87.6473 18.3342 83.5997 18.227 79.2571C17.9455 68.5617 2.88072 62.718 2.65287 52.0092C2.50544 45.0799 8.95221 39.759 15.4928 37.4671Z" fill="url(#paint1_linear)"/>
<path d="M84.8333 38.1667H57.75V35.0417C57.75 34.4659 57.2841 34 56.7083 34H50.4583C49.8825 34 49.4166 34.4659 49.4166 35.0417V38.1667H43.1666C40.8687 38.1667 39 40.0354 39 42.3333V71.5C39 73.798 40.8687 75.6667 43.1667 75.6667H57.7528C57.7079 77.3319 57.3888 79.9935 56.2008 81.2433C55.7644 81.703 55.2629 81.9167 54.6251 81.9167C54.0493 81.9167 53.5834 82.3826 53.5834 82.9584C53.5834 83.5342 54.0493 84.0001 54.6251 84.0001H73.3751C73.9509 84.0001 74.4168 83.5342 74.4168 82.9584C74.4168 82.3826 73.9509 81.9167 73.3751 81.9167C72.7373 81.9167 72.2357 81.703 71.7994 81.2433C70.6114 79.9935 70.2922 77.3319 70.2474 75.6667H84.8335C87.1313 75.6667 89 73.798 89 71.5V42.3333C89 40.0354 87.1313 38.1667 84.8333 38.1667ZM50.4583 46.5C51.0341 46.5 51.5 46.0341 51.5 45.4583V36.0833H55.6667V45.4583C55.6667 46.0341 56.1326 46.5 56.7084 46.5H57.75L53.5833 52.0552L49.4167 46.5H50.4583ZM58.3095 81.9167C59.5674 79.9881 59.8108 77.2108 59.8422 75.6667H68.1577C68.1892 77.2109 68.4325 79.9881 69.6904 81.9167H58.3095ZM86.9167 71.5C86.9167 72.6484 85.9818 73.5833 84.8334 73.5833H43.1667C42.0183 73.5833 41.0834 72.6484 41.0834 71.5V67.3333H86.9167V71.5ZM86.9167 65.25H41.0833V42.3333C41.0833 41.1849 42.0182 40.25 43.1667 40.25H49.4167V44.4167H47.3333C46.9386 44.4167 46.5785 44.6395 46.4015 44.9925C46.2255 45.3455 46.2631 45.7677 46.5001 46.083L52.7501 54.4163C52.9464 54.6788 53.2557 54.8334 53.5832 54.8334C53.9107 54.8334 54.22 54.6788 54.4163 54.4163L60.6663 46.083C60.9033 45.7677 60.941 45.3455 60.7649 44.9925C60.5879 44.6395 60.2278 44.4167 59.8331 44.4167H57.75V40.25H84.8333C85.9817 40.25 86.9166 41.1849 86.9166 42.3333V65.25H86.9167Z" fill="white"/>
<path d="M64.0003 72.5416C65.1509 72.5416 66.0836 71.6089 66.0836 70.4583C66.0836 69.3077 65.1509 68.375 64.0003 68.375C62.8497 68.375 61.917 69.3077 61.917 70.4583C61.917 71.6089 62.8497 72.5416 64.0003 72.5416Z" fill="white"/>
<path d="M81.9604 50.2812L80.9736 50.034L81.4965 49.1602C81.7427 48.7512 81.6775 48.2263 81.3398 47.8886L79.2778 45.8266C78.9401 45.4878 78.4152 45.4248 78.0062 45.67L77.1324 46.1928L76.8853 45.2061C76.7703 44.7422 76.3532 44.4167 75.8751 44.4167H72.9576C72.4795 44.4167 72.0624 44.7422 71.9475 45.2061L71.7003 46.1928L70.8265 45.67C70.4186 45.4258 69.8937 45.4889 69.5549 45.8266L67.4929 47.8886C67.1552 48.2263 67.09 48.7512 67.3362 49.1602L67.8591 50.034L66.8724 50.2812C66.4085 50.3961 66.083 50.8132 66.083 51.2914V54.2088C66.083 54.687 66.4085 55.1041 66.8724 55.219L67.8591 55.4662L67.3362 56.34C67.09 56.749 67.1552 57.2739 67.4929 57.6116L69.5549 59.6736C69.8926 60.0103 70.4165 60.0754 70.8265 59.8302L71.7003 59.3074L71.9475 60.2941C72.0624 60.758 72.4795 61.0835 72.9576 61.0835H75.8751C76.3532 61.0835 76.7703 60.758 76.8853 60.2941L77.1324 59.3074L78.0062 59.8302C78.4142 60.0744 78.9411 60.0113 79.2778 59.6736L81.3398 57.6116C81.6775 57.2739 81.7427 56.749 81.4965 56.34L80.9736 55.4662L81.9604 55.219C82.4242 55.1041 82.7497 54.687 82.7497 54.2088V51.2914C82.7497 50.8132 82.4242 50.3961 81.9604 50.2812ZM80.6664 53.395L79.6512 53.6493C79.3094 53.7337 79.0337 53.986 78.9187 54.3186C78.8587 54.4946 78.7916 54.6634 78.7122 54.8283C78.5586 55.1447 78.5749 55.5169 78.756 55.818L79.2921 56.7132L78.3796 57.6257L77.4844 57.0896C77.1822 56.9065 76.81 56.8913 76.4946 57.0458C76.3298 57.1252 76.1609 57.1923 75.985 57.2524C75.6523 57.3673 75.4 57.643 75.3156 57.9848L75.0613 59.0001H73.7715L73.5172 57.9848C73.4327 57.643 73.1805 57.3673 72.8479 57.2524C72.6719 57.1923 72.503 57.1252 72.3382 57.0458C72.0208 56.8922 71.6484 56.9085 71.3484 57.0896L70.4532 57.6257L69.5407 56.7132L70.0769 55.818C70.2579 55.5169 70.2742 55.1446 70.1206 54.8283C70.0412 54.6634 69.9741 54.4946 69.9141 54.3186C69.7991 53.986 69.5234 53.7336 69.1816 53.6493L68.1664 53.395V52.1051L69.1816 51.8508C69.5234 51.7664 69.7991 51.5141 69.9141 51.1815C69.9741 51.0055 70.0412 50.8367 70.1206 50.6718C70.2742 50.3554 70.2579 49.9832 70.0769 49.6821L69.5407 48.7869L70.4532 47.8744L71.3484 48.4105C71.6485 48.5916 72.0198 48.6079 72.3382 48.4542C72.503 48.3749 72.6719 48.3078 72.8479 48.2477C73.1805 48.1328 73.4328 47.8571 73.5172 47.5153L73.7715 46.5H75.0613L75.3156 47.5153C75.4001 47.8571 75.6523 48.1328 75.985 48.2477C76.1609 48.3078 76.3298 48.3749 76.4946 48.4542C76.811 48.6088 77.1844 48.5916 77.4844 48.4105L78.3796 47.8744L79.2921 48.7869L78.756 49.6821C78.5749 49.9832 78.5586 50.3555 78.7122 50.6718C78.7916 50.8367 78.8587 51.0055 78.9187 51.1815C79.0337 51.5141 79.3094 51.7665 79.6512 51.8508L80.6664 52.1051V53.395Z" fill="white"/>
<path d="M74.417 49.625C72.6938 49.625 71.292 51.0268 71.292 52.75C71.292 54.4732 72.6938 55.875 74.417 55.875C76.1402 55.875 77.542 54.4732 77.542 52.75C77.542 51.0268 76.1402 49.625 74.417 49.625ZM74.417 53.7917C73.8423 53.7917 73.3753 53.3248 73.3753 52.75C73.3753 52.1752 73.8422 51.7083 74.417 51.7083C74.9918 51.7083 75.4587 52.1752 75.4587 52.75C75.4587 53.3248 74.9917 53.7917 74.417 53.7917Z" fill="white"/>
<path d="M60.875 56.9167H46.2917C45.7159 56.9167 45.25 57.3827 45.25 57.9584C45.25 58.5341 45.7159 59 46.2917 59H60.875C61.4508 59 61.9167 58.5341 61.9167 57.9583C61.9167 57.3827 61.4508 56.9167 60.875 56.9167Z" fill="white"/>
<path d="M54.625 61.0833H46.2917C45.7159 61.0833 45.25 61.5492 45.25 62.125C45.25 62.7007 45.7159 63.1666 46.2917 63.1666H54.625C55.2008 63.1666 55.6667 62.7007 55.6667 62.125C55.6667 61.5492 55.2008 61.0833 54.625 61.0833Z" fill="white"/>
<defs>
<linearGradient id="paint0_linear" x1="43.9488" y1="128.446" x2="86.2043" y2="-21.2029" gradientUnits="userSpaceOnUse">
<stop stop-color="#7818C6"/>
<stop offset="0.5363" stop-color="#FF65A5"/>
<stop offset="1" stop-color="#FFC641"/>
</linearGradient>
<linearGradient id="paint1_linear" x1="88.2045" y1="9.46669" x2="40.1518" y2="124.45" gradientUnits="userSpaceOnUse">
<stop stop-color="#7818C6"/>
<stop offset="0.5363" stop-color="#FF65A5"/>
<stop offset="1" stop-color="#FFC641"/>
</linearGradient>
</defs>
</svg>
