<svg width="127" height="118" viewBox="0 0 127 118" fill="none" xmlns="http://www.w3.org/2000/svg">
<path d="M126.198 90.4612C123.458 100.336 113.699 107.769 103.518 107.755C96.0083 107.742 88.9209 104.162 81.4383 103.6C72.6745 102.941 64.1697 106.48 56.1555 110.142C46.1105 114.75 35.7248 119.769 24.276 117.369C19.3149 116.327 14.7899 113.543 12.064 109.236C6.12149 99.8557 11.5324 89.6658 16.9842 81.3274C21.6455 74.1821 26.7702 66.2276 25.3391 57.8069C24.4941 52.8148 21.4411 48.5084 19.751 43.7358C16.8888 35.603 18.4153 26.0303 23.6491 19.2004C27.0019 14.8255 31.7995 11.6574 37.0742 10.1351C38.11 9.8334 39.1459 9.53168 40.1544 9.16139C45.4154 7.25507 51.1126 6.6242 56.6462 7.46079C66.6775 9.01053 75.8774 15.3604 80.8795 24.2611C86.5903 34.4099 87.4353 47.8913 96.6352 54.9954C102.223 59.2881 109.72 60.1658 115.73 63.8276C124.439 69.1351 128.937 80.5868 126.198 90.4612Z" fill="url(#paint0_linear)"/>
<path d="M115.253 49.9759C111.846 56.0103 106.735 61.0436 103.982 67.4071C99.075 78.7216 102.332 92.5733 96.4718 103.435C91.0608 113.447 77.7584 118.288 67.2228 114.078C60.667 111.458 55.5014 105.945 48.8365 103.655C39.3504 100.377 28.733 104.148 18.9742 101.844C8.91563 99.458 0.901465 90.0773 0.0700635 79.7228C-0.747709 69.3546 5.6718 58.8081 15.2125 54.8309C22.3952 51.8548 30.9682 52.28 37.2651 47.6856C43.0031 43.5301 45.4428 36.2065 46.942 29.267C48.4549 22.3137 49.3817 14.949 53.4297 9.12028C60.0945 -0.507331 72.2657 -5.15656 79.9119 8.68142C82.0108 12.4803 83.0739 16.9239 85.977 20.1331C93.1598 28.0326 108.261 22.5331 115.403 30.5013C120.037 35.6442 118.674 43.9415 115.253 49.9759Z" fill="url(#paint1_linear)"/>
<path d="M90.357 36.548C90.357 35.1432 89.2138 34 87.809 34H38.548C37.1432 34 36 35.1432 36 36.548V38.2466C36 38.273 36.0127 38.2951 36.0153 38.3205V83.2593C36.0153 83.729 36.3949 84.1087 36.8646 84.1087H89.523C89.9926 84.1087 90.3723 83.729 90.3723 83.2593V38.2466C90.3723 38.2203 90.3596 38.1982 90.357 38.1727V36.548ZM38.548 35.6987H39.4143C38.9455 35.6987 38.5701 36.0783 38.5701 36.548C38.5701 37.0177 38.954 37.3973 39.4236 37.3973C39.8925 37.3973 40.273 37.0177 40.273 36.548C40.273 36.0783 39.8925 35.6987 39.4236 35.6987H41.9623C41.4935 35.6987 41.1181 36.0783 41.1181 36.548C41.1181 37.0177 41.5019 37.3973 41.9716 37.3973C42.4405 37.3973 42.821 37.0177 42.821 36.548C42.821 36.0783 42.4405 35.6987 41.9716 35.6987H44.5103C44.0414 35.6987 43.666 36.0783 43.666 36.548C43.666 37.0177 44.0499 37.3973 44.5196 37.3973C44.9884 37.3973 45.3689 37.0177 45.3689 36.548C45.3689 36.0783 44.9884 35.6987 44.5196 35.6987H87.8099C88.2787 35.6987 88.6592 36.0792 88.6592 36.548V37.3973H44.5196H41.9716H39.4236H37.6995V36.548C37.6987 36.0792 38.0792 35.6987 38.548 35.6987ZM88.6736 82.41H37.7139V39.096H88.6736V82.41Z" fill="white"/>
<path d="M40.2683 67.985H86.1312C86.6008 67.985 86.9805 67.6054 86.9805 67.1357V41.6576C86.9805 41.1879 86.6008 40.8082 86.1312 40.8082H40.2683C39.7986 40.8082 39.4189 41.1879 39.4189 41.6576V67.1357C39.4189 67.6045 39.7986 67.985 40.2683 67.985ZM47.0875 61.1947C47.0782 61.1947 47.0714 61.1896 47.0629 61.1896C46.4378 61.1896 45.8586 61.3713 45.3549 61.6677V54.3958H45.3651V54.3983C45.3651 56.9064 46.7351 59.096 48.7624 60.274V61.1896C48.7539 61.1896 48.7463 61.1947 48.7386 61.1947H47.0875ZM47.0629 50.9883H48.759C48.7607 50.9883 48.7616 50.9891 48.7633 50.9891C49.2329 50.9891 49.6126 50.6095 49.6126 50.1398C49.6126 49.671 49.9939 49.2905 50.4628 49.2905C50.9282 49.2905 51.3053 49.6667 51.3104 50.1313C51.3104 50.1347 51.3095 50.1372 51.3095 50.1398C51.3095 50.6095 51.6892 50.9891 52.1589 50.9891H52.1606H52.1614C52.6311 50.9891 53.0107 50.6095 53.0107 50.1398C53.0107 50.1372 53.0099 50.1347 53.0099 50.1313C53.015 49.6667 53.3929 49.2905 53.8584 49.2905C54.3272 49.2905 54.7077 49.671 54.7077 50.1398C54.7077 50.1415 54.7086 50.1432 54.7086 50.1449C54.7086 50.1474 54.7077 50.1491 54.7077 50.1508C54.7077 50.6205 55.0874 51.0002 55.557 51.0002H57.2718C58.2078 51.0002 58.9679 51.7612 58.9679 52.6963V52.6971H45.3549V52.6963C45.3549 51.7544 46.121 50.9883 47.0629 50.9883ZM57.2565 61.1896C57.2472 61.1896 57.2404 61.1947 57.2319 61.1947H55.557V60.274C57.5844 59.0968 58.9535 56.9081 58.9543 54.4009C58.9543 54.4 58.9543 54.4 58.9543 54.4V54.3958H58.9679V61.6686C58.4626 61.3722 57.8833 61.1896 57.2565 61.1896ZM47.0638 54.3958H57.2557V54.3966V54.3975V54.3983C57.2557 57.2088 54.9701 59.4943 52.1597 59.4943C49.3493 59.4943 47.0638 57.2088 47.0638 54.3983V54.3958ZM52.1597 61.193C52.7466 61.193 53.314 61.1097 53.8584 60.9687V61.6873L53.6911 61.8537L52.5402 61.2787C52.5224 61.2694 52.5012 61.2711 52.4833 61.2626C52.429 61.2405 52.3738 61.2295 52.3168 61.2176C52.2633 61.2074 52.2141 61.1981 52.1606 61.1981C52.1079 61.1981 52.0578 61.2091 52.0043 61.2176C51.9474 61.2295 51.8922 61.2397 51.8387 61.2626C51.82 61.2711 51.7996 61.2694 51.7809 61.2787L50.6301 61.8537L50.4611 61.6873V60.9687C51.0046 61.1097 51.572 61.193 52.1597 61.193ZM49.8606 63.4878C49.8691 63.4963 49.8793 63.4989 49.8878 63.5057C49.9532 63.566 50.0254 63.6127 50.1052 63.6501C50.129 63.6611 50.1528 63.6721 50.1774 63.6806C50.2674 63.7129 50.3617 63.735 50.4594 63.7358H50.4611H50.4619C50.4636 63.7358 50.4645 63.735 50.4662 63.735C50.5851 63.7341 50.7006 63.7036 50.811 63.6526C50.8212 63.6484 50.8314 63.6509 50.8407 63.6458L52.1597 62.9876L53.4787 63.6458C53.4881 63.6509 53.4983 63.6484 53.5085 63.6526C53.6189 63.7036 53.7352 63.7341 53.8533 63.735C53.855 63.735 53.8558 63.7358 53.8575 63.7358H53.8584H53.8601C53.9577 63.735 54.052 63.7129 54.1421 63.6806C54.1667 63.6721 54.1905 63.6611 54.2142 63.6501C54.2941 63.6127 54.3663 63.566 54.4317 63.5057C54.4402 63.498 54.4504 63.4955 54.4589 63.4878L54.7077 63.239V63.7367H53.8584H53.8575H50.4619H50.4611H49.6126V63.2398L49.8606 63.4878ZM49.6126 65.4354H54.7077V66.2864H49.6126V65.4354ZM56.4064 64.586C56.4064 64.5843 56.4055 64.5826 56.4055 64.5801C56.4055 64.5784 56.4064 64.5767 56.4064 64.575V62.8933H57.2565C57.2625 62.8933 57.2676 62.8899 57.2735 62.8899C58.2027 62.8993 58.9552 63.6552 58.9552 64.586V66.2864H56.4064V64.586ZM57.271 49.3015H56.2526C55.9044 48.3095 54.9676 47.5918 53.8584 47.5918C53.2035 47.5918 52.6124 47.8466 52.1606 48.2534C51.7087 47.8466 51.1167 47.5918 50.4628 47.5918C49.3569 47.5918 48.4235 48.3036 48.0711 49.2896H47.0629C46.7639 49.2896 46.4786 49.3406 46.2025 49.4136C47.3627 47.3149 49.5981 45.8906 52.1614 45.8906C54.7281 45.8906 56.9669 47.3209 58.1263 49.4247C57.8511 49.3516 57.5682 49.3015 57.271 49.3015ZM45.3642 64.586C45.3642 63.6552 46.1176 62.8993 47.0459 62.8899C47.0519 62.8899 47.057 62.8933 47.0629 62.8933H47.9139V64.586V66.2864H45.3642V64.586ZM41.1176 42.5069H85.2818V66.2864H60.6539V64.6472C60.6556 64.6268 60.6666 64.6073 60.6666 64.586V52.6963C60.6666 48.0071 56.8514 44.1911 52.1614 44.1911C47.4714 44.1911 43.6562 48.0063 43.6562 52.6963V64.586C43.6562 64.6022 43.6647 64.6149 43.6656 64.6319V66.2864H41.1176V42.5069Z" fill="white"/>
<path d="M65.738 56.9446H81.0361C81.5058 56.9446 81.8854 56.565 81.8854 56.0953C81.8854 55.6256 81.5058 55.246 81.0361 55.246H65.738C65.2683 55.246 64.8887 55.6256 64.8887 56.0953C64.8887 56.565 65.2683 56.9446 65.738 56.9446Z" fill="white"/>
<path d="M65.738 59.4919H81.0361C81.5058 59.4919 81.8854 59.1122 81.8854 58.6425C81.8854 58.1729 81.5058 57.7932 81.0361 57.7932H65.738C65.2683 57.7932 64.8887 58.1729 64.8887 58.6425C64.8887 59.1122 65.2683 59.4919 65.738 59.4919Z" fill="white"/>
<path d="M65.738 62.0406H75.0849C75.5545 62.0406 75.9342 61.6609 75.9342 61.1912C75.9342 60.7216 75.5545 60.3419 75.0849 60.3419H65.738C65.2683 60.3419 64.8887 60.7216 64.8887 61.1912C64.8887 61.6609 65.2683 62.0406 65.738 62.0406Z" fill="white"/>
<path d="M82.7314 72.6582C82.7314 71.019 81.398 69.6855 79.7588 69.6855C78.1196 69.6855 76.7861 71.019 76.7861 72.6582C76.7861 74.2974 78.1196 75.6308 79.7588 75.6308C81.398 75.6308 82.7314 74.2966 82.7314 72.6582ZM78.4848 72.6582C78.4848 71.9558 79.0564 71.3842 79.7588 71.3842C80.4612 71.3842 81.0328 71.9558 81.0328 72.6582C81.0328 73.3606 80.4612 73.9322 79.7588 73.9322C79.0564 73.9322 78.4848 73.3606 78.4848 72.6582Z" fill="white"/>
<path d="M68.2977 53.5396C70.1713 53.5396 71.695 52.0159 71.695 50.1423C71.695 48.2687 70.1713 46.745 68.2977 46.745C66.4241 46.745 64.9004 48.2687 64.9004 50.1423C64.9004 52.0159 66.4241 53.5396 68.2977 53.5396ZM68.2977 48.4437C69.2345 48.4437 69.9964 49.2055 69.9964 50.1423C69.9964 51.0791 69.2345 51.841 68.2977 51.841C67.3609 51.841 66.599 51.0791 66.599 50.1423C66.599 49.2055 67.3609 48.4437 68.2977 48.4437Z" fill="white"/>
<path d="M66.1592 72.6582C66.1592 71.019 64.8257 69.6855 63.1865 69.6855C61.5473 69.6855 60.2139 71.019 60.2139 72.6582C60.2139 74.2974 61.5473 75.6308 63.1865 75.6308C64.8257 75.6308 66.1592 74.2966 66.1592 72.6582ZM61.9125 72.6582C61.9125 71.9558 62.4841 71.3842 63.1865 71.3842C63.8889 71.3842 64.4605 71.9558 64.4605 72.6582C64.4605 73.3606 63.8889 73.9322 63.1865 73.9322C62.4841 73.9322 61.9125 73.3606 61.9125 72.6582Z" fill="white"/>
<path d="M49.5859 72.6582C49.5859 71.019 48.2525 69.6855 46.6133 69.6855C44.9741 69.6855 43.6406 71.019 43.6406 72.6582C43.6406 74.2974 44.9741 75.6308 46.6133 75.6308C48.2525 75.6308 49.5859 74.2966 49.5859 72.6582ZM45.3393 72.6582C45.3393 71.9558 45.9109 71.3842 46.6133 71.3842C47.3157 71.3842 47.8873 71.9558 47.8873 72.6582C47.8873 73.3606 47.3157 73.9322 46.6133 73.9322C45.9109 73.9322 45.3393 73.3606 45.3393 72.6582Z" fill="white"/>
<path d="M52.1541 76.4791H41.1179C40.6482 76.4791 40.2686 76.8588 40.2686 77.3285C40.2686 77.7981 40.6482 78.1778 41.1179 78.1778H52.1541C52.6237 78.1778 53.0034 77.7981 53.0034 77.3285C53.0034 76.8588 52.6229 76.4791 52.1541 76.4791Z" fill="white"/>
<path d="M85.2771 76.4791H74.2409C73.7713 76.4791 73.3916 76.8588 73.3916 77.3285C73.3916 77.7981 73.7713 78.1778 74.2409 78.1778H85.2771C85.7468 78.1778 86.1264 77.7981 86.1264 77.3285C86.1264 76.8588 85.7468 76.4791 85.2771 76.4791Z" fill="white"/>
<path d="M68.7039 76.4791H57.6677C57.198 76.4791 56.8184 76.8588 56.8184 77.3285C56.8184 77.7981 57.198 78.1778 57.6677 78.1778H68.7039C69.1735 78.1778 69.5532 77.7981 69.5532 77.3285C69.5532 76.8588 69.1735 76.4791 68.7039 76.4791Z" fill="white"/>
<path d="M66.1725 79.0271H60.2009C59.7312 79.0271 59.3516 79.4067 59.3516 79.8764C59.3516 80.3461 59.7312 80.7258 60.2009 80.7258H66.1725C66.6422 80.7258 67.0218 80.3461 67.0218 79.8764C67.0218 79.4067 66.6413 79.0271 66.1725 79.0271Z" fill="white"/>
<path d="M82.7343 79.0271H76.7839C76.3142 79.0271 75.9346 79.4067 75.9346 79.8764C75.9346 80.3461 76.3142 80.7258 76.7839 80.7258H82.7343C83.204 80.7258 83.5836 80.3461 83.5836 79.8764C83.5836 79.4067 83.2031 79.0271 82.7343 79.0271Z" fill="white"/>
<path d="M49.6103 79.0271H43.6667C43.197 79.0271 42.8174 79.4067 42.8174 79.8764C42.8174 80.3461 43.197 80.7258 43.6667 80.7258H49.6103C50.08 80.7258 50.4596 80.3461 50.4596 79.8764C50.4596 79.4067 50.0791 79.0271 49.6103 79.0271Z" fill="white"/>
<defs>
<linearGradient id="paint0_linear" x1="67.8265" y1="6.7719" x2="68.3847" y2="124.933" gradientUnits="userSpaceOnUse">
<stop stop-color="#33338E"/>
<stop offset="0.5447" stop-color="#6E5ACC"/>
<stop offset="1" stop-color="#22B5CC"/>
</linearGradient>
<linearGradient id="paint1_linear" x1="0.00191581" y1="57.8001" x2="118.373" y2="57.8001" gradientUnits="userSpaceOnUse">
<stop stop-color="#33338E"/>
<stop offset="0.5447" stop-color="#6E5ACC"/>
<stop offset="1" stop-color="#22B5CC"/>
</linearGradient>
</defs>
</svg>
