<svg xmlns="http://www.w3.org/2000/svg" width="85" height="68" viewBox="0 0 85 68"><g fill="none" fill-rule="evenodd"><path fill="#FFFFFF" d="M58.09 57.402c-.53.765-.73 1.707-1.2 2.521-.46.805-1.37 1.519-2.27 1.27-.83-.228-1.25-1.13-1.46-1.965-.33-1.3-.38-2.758.36-3.88.12-.19.28-.378.48-.487.67-.377 1.48.16 2.06.665l2.12 1.768c-.04.028-.06.068-.09.108"/><path fill="#2E3358" d="M10.77 4.494a1.157 1.157 0 0 1 0 2.313c-.65 0-1.17-.516-1.17-1.152 0-.645.52-1.161 1.17-1.161M15.02 4.494a1.157 1.157 0 0 1 0 2.313c-.65 0-1.17-.516-1.17-1.152 0-.645.52-1.161 1.17-1.161M6.52 4.494a1.157 1.157 0 0 1 0 2.313c-.65 0-1.17-.516-1.17-1.152 0-.645.52-1.161 1.17-1.161"/><path fill="#EFB341" d="M76.6 18.262v-4.586H7.95v53.603H.6V9.417h83.5v57.862h-7.5z"/><path fill="#FFFFFF" d="M51.7 34.899h.18c-.03-.04-.05-.08-.08-.11-.03.04-.06.08-.1.11zm-27.56 4.645c-.64.715-1.28 1.43-1.92 2.134h-3.18c.4.507.79 1.003 1.18 1.51.08.098.16.198.29.209h.02v1.627h6.72v-1.977a8.459 8.459 0 0 1-1.62-1.37 8.993 8.993 0 0 1-1.49-2.134zm32.75 20.38c.47-.815.67-1.758 1.2-2.522.03-.04.05-.08.09-.108l-2.12-1.768c-.58-.506-1.39-1.043-2.06-.665-.2.109-.36.297-.48.487-.74 1.12-.69 2.58-.36 3.88.21.835.63 1.737 1.46 1.966.9.248 1.81-.466 2.27-1.27zM7.95 18.261H76.6v49.017H7.95V18.262z"/><path fill="#FFFFFF" d="M27.25 45.024h-6.72v-1.628c.12 0 .22-.1.32-.199.46-.506.91-1.012 1.37-1.519h3.41a8.494 8.494 0 0 0 1.62 1.37v1.976z"/><path fill="#D4DCF2" d="M7.95 13.676H76.6v4.586H7.95zM84.1 5.873v3.544H15.02v-2.61a1.157 1.157 0 1 0 0-2.314V1.595h64.77c2.38 0 4.31 1.916 4.31 4.278M6.52 4.494c-.65 0-1.17.516-1.17 1.161 0 .636.52 1.152 1.17 1.152a1.157 1.157 0 1 0 0-2.313zm8.5 4.923H.6V5.874c0-2.363 1.93-4.279 4.31-4.279h10.11v2.899c-.65 0-1.17.516-1.17 1.161 0 .636.52 1.152 1.17 1.152v2.61zm-4.25-2.61a1.157 1.157 0 1 0 0-2.313c-.65 0-1.17.516-1.17 1.161 0 .636.52 1.152 1.17 1.152z"/><path stroke="#2E3358" stroke-width="1.2" d="M84.1 9.418V5.874c0-2.363-1.93-4.278-4.31-4.278H4.91C2.53 1.596.6 3.51.6 5.874v61.405h83.5V9.418zM.35 9.418H84.1"/><path stroke="#2E3358" stroke-width="1.2" d="M7.95 67.448V13.676H76.6v53.772M8.1 18.262h68M13.22 24.714h8.88"/><path stroke="#F97226" stroke-width="1.2" d="M13.22 54.583h33.55M13.22 57.81h27.46M13.22 61.115h29.96"/><path stroke="#2E3358" stroke-width="1.2" d="M13.22 48.538h8.88M17.22 28.189H28.1M17.27 31.544h8.87"/><path stroke="#F97226" stroke-width="1.2" d="M39.48 23.603h13.5M39.52 26.958h11.5"/><path stroke="#2E3358" stroke-width="1.2" d="M17.22 41.679h9.88M17.27 45.024H28.1M21.22 34.899h38.26M21.27 38.244h21.58"/><path stroke="#F97226" stroke-linecap="round" stroke-linejoin="round" stroke-width="1.2" d="M56.06 55.526c-.58-.506-1.39-1.042-2.06-.665-.2.108-.36.298-.48.487-.74 1.121-.689 2.58-.36 3.88.21.835.63 1.737 1.46 1.966.9.248 1.81-.466 2.27-1.27.47-.815.67-1.757 1.2-2.522.03-.04.05-.079.09-.109a.23.23 0 0 1 .11-.06c.19-.03.27.218.3.408.07.585.22 1.151.46 1.697.12.278.3.586.6.665.54.13.92-.506 1.08-1.042.3-1.042.5-2.114.59-3.196.02-.219.11-.508.33-.497.17.01.26.189.31.348.11.346.18.704.22 1.062.02.347.14.824.5.794.09 0 .18-.06.25-.11.95-.744.3-2.372.99-3.346.52 1.093.88 2.265 1.04 3.466M17.85 40.15c.4.506.8 1.022 1.19 1.529.4.506.79 1.002 1.18 1.51.08.098.16.197.29.208h.02c.12 0 .22-.1.32-.2.46-.505.91-1.012 1.37-1.518.64-.705 1.28-1.42 1.92-2.135.39.775.89 1.5 1.49 2.135a8.52 8.52 0 0 0 1.62 1.37M50.45 32.923c.45.625.89 1.252 1.35 1.866.03.03.05.07.08.11.53.714 1.07 1.43 1.62 2.135"/><path stroke="#F97226" stroke-linecap="round" stroke-linejoin="round" stroke-width="1.2" d="M49.63 37.092a35.47 35.47 0 0 0 2.07-2.193c.04-.03.07-.07.1-.11.48-.545.94-1.101 1.39-1.677M29.86 30.928c.77.06 1.55-.01 2.3-.208.56-.14 1.12-.368 1.57-.745.79-.655 1.15-1.687 1.47-2.66"/></g></svg>