<svg class="head__decor head__decor--down-rate-1" xmlns="http://www.w3.org/2000/svg" width="75" height="180" viewBox="0 0 75 180"><defs><linearGradient id="a" x1="4" x2="4" y1="165.6" y2="17.14" gradientTransform="matrix(1 0 0 -1 35.22 174.008)" gradientUnits="userSpaceOnUse"><stop offset="0" stop-color="#f9b326"></stop><stop offset=".63" stop-color="#f98826" stop-opacity=".93"></stop><stop offset="1" stop-color="#f97226" stop-opacity=".9"></stop></linearGradient><linearGradient id="b" x1="23.3" x2="23.3" y1="72.03" y2=".34" gradientTransform="matrix(1 0 0 -1 35.22 174.008)" gradientUnits="userSpaceOnUse"><stop offset="0" stop-color="#f9b326"></stop><stop offset=".63" stop-color="#f98826" stop-opacity=".93"></stop><stop offset="1" stop-color="#f97226" stop-opacity=".9"></stop></linearGradient><linearGradient id="c" x1="23.3" x2="23.3" y1="72.03" y2=".34" gradientTransform="matrix(1 0 0 -1 -6.74 98.34)" gradientUnits="userSpaceOnUse"><stop offset="0" stop-color="#f9b326"></stop><stop offset=".63" stop-color="#f98826" stop-opacity=".93"></stop><stop offset="1" stop-color="#f97226" stop-opacity=".9"></stop></linearGradient></defs><g class="head__decor-inner head__decor-inner--up-rate-1"><ellipse cx="39.199" cy="154.866" fill="#ef6895" rx="3.98" ry="2.01"></ellipse><path fill="url(#a)" d="M35.219 8.406v146.46c0 1.11 1.78 2 4 2 2.22 0 4-.9 4-2V8.406z" opacity=".9" style="isolation:isolate"></path><ellipse cx="39.199" cy="8.126" fill="#ffe179" rx="3.98" ry="2.01"></ellipse></g><g class="head__decor-inner head__decor-inner--down-rate-1"><ellipse cx="58.499" cy="171.736" fill="#ef6895" rx="3.9" ry="1.97"></ellipse><path fill="url(#b)" d="M54.599 102.006v69.66c-.07.58.65 2 4 2 2.83 0 3.85-1.35 3.85-1.89v-69.8z" opacity=".9" style="isolation:isolate"></path><ellipse cx="58.499" cy="102.476" fill="#ffe179" rx="3.9" ry="1.97"></ellipse></g><g class="head__decor-inner head__decor-inner--down-rate-2"><ellipse cx="16.538" cy="96.068" fill="#ef6895" rx="3.9" ry="1.97"></ellipse><path fill="url(#c)" d="M12.639 26.338v69.66c-.07.58.65 2 4 2 2.83 0 3.85-1.35 3.85-1.89v-69.8z" opacity=".9" style="isolation:isolate"></path><ellipse cx="16.538" cy="26.808" fill="#ffe179" rx="3.9" ry="1.97"></ellipse></g></svg>