<svg width="119" height="125" viewBox="0 0 119 125" xmlns="http://www.w3.org/2000/svg" xmlns:xlink="http://www.w3.org/1999/xlink"><defs><linearGradient id="a" y1="19.36" x2="59.54" y2="19.36" gradientTransform="matrix(1, 0, 0, -1, 0, 123.89)" gradientUnits="userSpaceOnUse"><stop offset="0" stop-color="#ffe86e"/><stop offset="0.25" stop-color="#fdd95a" stop-opacity="0.89"/><stop offset="0.76" stop-color="#fabe35" stop-opacity="0.68"/><stop offset="1" stop-color="#f9b326" stop-opacity="0.6"/></linearGradient><linearGradient id="b" y1="39.6" x2="119.09" y2="39.6" gradientTransform="matrix(1, 0, 0, -1, 0, 123.89)" gradientUnits="userSpaceOnUse"><stop offset="0" stop-color="#f9b326"/><stop offset="0.63" stop-color="#f98826" stop-opacity="0.93"/><stop offset="1" stop-color="#f97226" stop-opacity="0.9"/></linearGradient><linearGradient id="c" y1="43.37" x2="59.54" y2="43.37" xlink:href="#a"/><linearGradient id="d" y1="63.6" x2="119.09" y2="63.6" xlink:href="#b"/><linearGradient id="e" y1="69.37" x2="59.54" y2="69.37" xlink:href="#a"/><linearGradient id="f" y1="89.6" x2="119.09" y2="89.6" xlink:href="#b"/></defs><title>js3_1</title><polygon points="119.09 90.6 59.54 56.3 59.54 50.14 119.09 84.44 119.09 90.6" fill="#ffad5c"/><polygon points="119.09 90.46 119.09 84.3 59.54 118.59 59.54 124.75 119.09 90.46" fill="#ffad5c"/><polygon points="59.54 56.3 59.54 50.14 0 84.44 0 90.6 59.54 56.3" fill="#ffad5c"/><polygon points="59.54 124.75 0 90.46 0 84.3 59.54 118.59 59.54 124.75" fill="url(#a)"/><polygon points="119.09 84.3 59.54 118.59 0 84.3 24.5 70.18 59.54 50 119.09 84.3" opacity="0.9" fill="url(#b)" style="isolation:isolate"/><polygon points="119.09 66.6 59.54 32.3 59.54 26.14 119.09 60.44 119.09 66.6" fill="#ffad5c"/><polygon points="119.09 66.46 119.09 60.3 59.54 94.59 59.54 100.75 119.09 66.46" fill="#ffad5c"/><polygon points="59.54 32.3 59.54 26.14 0 60.44 0 66.6 59.54 32.3" fill="#ffad5c"/><polygon points="59.54 100.75 0 66.46 0 60.3 59.54 94.59 59.54 100.75" fill="url(#c)"/><polygon points="119.09 60.3 59.54 94.59 0 60.3 24.5 46.18 59.54 26 119.09 60.3" opacity="0.9" fill="url(#d)" style="isolation:isolate"/><polygon points="119.09 40.6 59.54 6.3 59.54 0.14 119.09 34.44 119.09 40.6" fill="#ffad5c"/><polygon points="119.09 40.46 119.09 34.3 59.54 68.59 59.54 74.75 119.09 40.46" fill="#ffad5c"/><polygon points="59.54 6.3 59.54 0.14 0 34.44 0 40.6 59.54 6.3" fill="#ffad5c"/><polygon points="59.54 74.75 0 40.46 0 34.3 59.54 68.59 59.54 74.75" fill="url(#e)"/><polygon points="119.09 34.3 59.54 68.59 0 34.3 24.5 20.18 59.54 0 119.09 34.3" opacity="0.9" fill="url(#f)" style="isolation:isolate"/></svg>