<svg width="381" height="329" viewBox="0 0 381 329" xmlns="http://www.w3.org/2000/svg" fill="none"><path fill="#C8D4EC" fill-rule="evenodd" d="M195.046 121.489a4.34 4.34 0 00-6.124 0 4.293 4.293 0 000 6.084 4.34 4.34 0 006.124 0 4.291 4.291 0 000-6.084zm-18.393-12.258c8.468-8.444 22.194-8.444 30.662 0 8.473 8.449 8.473 22.151 0 30.6-8.468 8.444-22.194 8.444-30.662 0-8.472-8.449-8.472-22.151 0-30.6z" clip-rule="evenodd"/><path fill="#C8D4EC" fill-rule="evenodd" d="M217.854 98.744c-14.288-14.248-37.455-14.248-51.742 0-14.283 14.243-14.283 37.331 0 51.574 14.287 14.248 37.454 14.248 51.742 0 14.283-14.243 14.283-37.331 0-51.574zm-64.011-12.258c21.065-21.006 55.214-21.006 76.28 0 21.069 21.011 21.069 55.079 0 76.09-21.066 21.006-55.215 21.006-76.28 0-21.07-21.011-21.07-55.079 0-76.09z" clip-rule="evenodd"/><path fill="#C8D4EC" fill-rule="evenodd" d="M243.111 73.556c-28.236-28.156-74.019-28.157-102.256 0l-6.134-6.129 6.134 6.13c-28.231 28.152-28.231 73.793 0 101.946l-6.134 6.129 6.134-6.129c28.237 28.157 74.02 28.157 102.256 0 28.231-28.153 28.231-73.794 0-101.947zM128.586 61.298c35.015-34.915 91.78-34.915 126.794 0 35.018 34.92 35.018 91.542 0 126.463-35.014 34.916-91.779 34.916-126.794 0-35.018-34.921-35.018-91.542 0-126.462z" clip-rule="evenodd"/><path fill="#C8D4EC" fill-rule="evenodd" d="M268.009 48.73c-41.987-41.87-110.065-41.87-152.051 0-41.982 41.864-41.982 109.737 0 151.602 41.986 41.869 110.064 41.869 152.051 0 41.982-41.865 41.982-109.738 0-151.603zM103.689 36.47c48.764-48.628 127.824-48.628 176.589 0 48.769 48.633 48.769 127.486 0 176.119-48.765 48.628-127.825 48.628-176.589 0l5.868-5.863-5.868 5.863c-48.769-48.633-48.769-127.486 0-176.119z" clip-rule="evenodd"/><path fill="#FEFEFE" fill-rule="evenodd" d="M208.159 120.118c.16.176.321.343.465.527l-.313.279c-1.024 1.182-2.857 1.381-4.338.878-1.489-.51-2.698-1.588-3.826-2.674l-.249-.367c.385-.263.785-.503 1.209-.726 1.225-.655 2.562-1.158 3.602-2.076.264-.231.505-.503.713-.798.016 1.988 1.385 3.504 2.737 4.957zm4.939-29.32l-.064.08c-.76-.582-.808-1.796-.28-2.586.537-.79 1.505-1.205 2.458-1.325.952-.128 1.937 0 2.825.367 1.033.415 1.906 1.134 2.85 1.724 1.497.942 3.218 1.58 4.987 1.637.4.016.801 0 1.201 0 .64-.008 1.281.024 1.873.247.969.36 1.745 1.533 1.225 2.427-.184.311-.489.527-.793.71-1.569.958-3.466 1.301-5.291 1.054-1.329-.176-2.618-.663-3.698-1.469-1.097-.822-2.049-1.963-3.394-2.243-.713-.144-1.441-.024-2.17-.04-.616-.024-1.288-.168-1.729-.583zm-9.413-4.725c.448.527.832 1.197.728 1.876-.112.79-.856 1.38-1.641 1.532-.784.152-1.593-.048-2.345-.303-1.425-.495-2.794-1.213-4.291-1.365-1.841-.192-3.682.495-5.531.351-2.354-.191-4.363-1.692-6.22-3.137-.544-.415-1.713-.718-1.225-1.19.617-1.308 2.258-2.035 3.65-1.62 1.017.304 1.81 1.11 2.818 1.461 1.433.495 2.994-.016 4.483-.311 3.418-.679 7.34.04 9.574 2.706z" clip-rule="evenodd"/><path fill="#FEFEFE" fill-rule="evenodd" d="M206.158 111.609c1.113.399 2.273.71 3.45.63.881-.055 1.777-.359 2.442-.917l.504.199c2.409 2.722 4.259 5.843 5.603 9.188a37.963 37.963 0 012.122 7.352c.848 4.542.96 9.259.432 13.825-1.233 10.721-5.563 20.827-10.254 30.557-2.026 4.207-4.187 8.589-4.043 13.259-9.782-5.644-17.442-21.968-20.484-36.991-1.065-5.188-1.561-10.225-1.409-14.616.064-1.716.192-3.432.416-5.132.512-3.896 1.521-7.719 3.346-11.184 2.634-4.973 6.676-8.924 12.168-10.217-.072.239-.128.495-.04.726.08.248.304.415.52.575a21.967 21.967 0 005.227 2.746zm2.466 9.036c-.145-.184-.305-.351-.465-.527-1.353-1.453-2.721-2.969-2.737-4.957a4.578 4.578 0 01-.713.798c-1.04.918-2.377 1.421-3.602 2.076-.424.223-.825.463-1.209.726l.248.367c1.129 1.086 2.338 2.164 3.827 2.674 1.481.503 3.314.304 4.338-.878l.313-.279z" clip-rule="evenodd"/><path fill="#4459A8" fill-rule="evenodd" d="M272.07 279.289c-.736-1.492-1.257-4.246-.272-5.588 1.481-2.019 4.603-1.293 6.988-.51 2.218.726 4.723 1.309 6.804.263 2.082-1.046 2.93-4.43.953-5.66-1.073-.662-2.449-.439-3.706-.391-3.907.144-7.589-1.62-11.207-3.081a37.347 37.347 0 00-3.37-1.189c-.665-2.555-.665-2.555.256-6.442.168-.711.352-1.429.536-2.156l.865.216c2.794.287 5.667.271 8.365-.527 2.698-.79 5.219-2.435 6.668-4.845.304-.503.552-1.03.76-1.581 9.686 7.408 20.029 15.909 22.206 27.875.568 3.097.536 6.274.496 9.428-.04 3.352-.112 6.825-1.537 9.858-2.033 4.326-6.42 6.993-10.654 9.236a186.548 186.548 0 01-11.711 5.699c-2.378 1.054-4.819 2.068-7.397 2.379-2.041.24-2.361-.359-4.779.567-.48-.24-1.016-.423-1.513-.575-1.48-.447-2.969-.886-4.45-1.333-.425-.591.072-1.469.744-1.74.681-.272 1.433-.144 2.162-.104a9.142 9.142 0 004.058-.671c1.049-.423 2.089-1.149 2.369-2.243.329-1.277-.568-2.618-1.737-3.256-1.168-.631-2.537-.719-3.866-.791-1.753-.104-5.787-1.405-7.533-1.508-9.341-1.517-31.771 4.079-46.26-1.525-2.033-.782-3.754-2.227-5.467-3.576l-.104.048c1.433 3.249 2.065 6.689.616 9.834-1.288 2.802-3.962 4.662-6.532 6.362-2.577 1.716-5.235 3.425-7.972 4.949-5.564 3.09-11.463 5.412-17.747 5.404-5.66-.007-11.119-1.931-16.666-3.001-11.143-2.155-22.614-.894-33.957-1.006-11.343-.103-23.318-1.868-32.148-8.972-10.758-8.661-14.56-23.732-13.152-37.454.753-7.24 2.81-14.472 6.973-20.451 4.162-5.979 10.582-10.601 17.811-11.615l.032-.136c.72.176 1.448.288 2.193.328 1.305.08 2.633-.056 3.834-.559.825-.343 1.537-.83 2.186-1.421 9.501-.918 18.651-1.301 27.824-1.157 7.805.119 15.626.614 23.695 1.484 6.124.663 12.255 1.541 18.411 1.381 16.938-.447 33.188-8.908 49.51-4.358l.544.008c-.016 1.038.104 2.083.281 3.113.488 2.834 1.424 5.644 3.121 7.967 1.69 2.314 4.211 4.119 7.053 4.55.112 5.228.232 8.349.84 14.616l.425.646c-1.553.711-2.802 2.243-2.29 3.808l.072.431c-.28.048-.544.128-.792.247-1.097.527-1.825 1.621-2.242 2.762-.408 1.15-.544 2.363-.776 3.561-.36 1.828-.961 3.648-.889 5.515.08 1.868 1.057 4.614 3.891 4.742.776-.008 1.657.2 2.297-.239.921-.639 1.129-1.892 1.233-3.01.112-1.213.2-2.434.264-3.656l1.409.08c-.04.431-.048.87-.048 1.293l-.072 8.23c-.008.83 0 1.716.456 2.403.464.686.993 1.062 2.225 1.269 1.537.096 2.81-.431 3.547-1.78.216-.399.288-.838.288-1.293l1.961-.032c.008.647.024 1.293.032 1.932.024 1.117.064 2.307.712 3.209.433.598 1.209.91 2.026.958a3.055 3.055 0 001.601-.232c.12-.048.24-.104.36-.168.016-.008.024-.008.032-.016a4.6 4.6 0 001.873-2.027c.608-1.301.664-2.778.576-4.223.328-.471 1.601-.63 2.154-.471.544.16 1 .535 1.44.902 1.473 1.198 3.074 2.363 4.947 2.65 1.874.296 4.059-.59 4.635-2.394.361-1.15.008-2.419-.536-3.497-.552-1.077-1.297-2.059-1.785-3.169-.737-1.676-1.121-3.879-2.858-4.462a2.406 2.406 0 00-1.537.016l-.048-.128z" clip-rule="evenodd"/><path fill="#C8D4EC" fill-rule="evenodd" d="M318.434 158.346c.361 1.868.713 3.744 1.065 5.62.768 4.055 1.505 8.389.056 12.237-.056.159-.12.311-.184.471-.809 1.891-2.153 3.528-3.754 4.821-3.45 2.778-8.181 3.911-12.52 3.001-4.339-.91-8.213-3.855-10.238-7.783-1.009-1.955-1.577-4.103-2.033-6.242-1.369-6.394-1.794-13.283.88-19.245.56-1.238 1.337-2.467 2.289-3.465 1.313-1.373 2.954-2.307 4.827-2.243l.144.16a121.33 121.33 0 01-2.289 1.948c-1.465 4.27 1.833 9.123 5.035 12.3 2.93 2.906 7.253 5.452 11.007 3.736 2.017-.918 3.338-2.857 4.555-4.709l.624-.958.536.351z" clip-rule="evenodd"/><path fill="#C8D4EC" fill-rule="evenodd" d="M286.167 153.988c2.257-2.53 4.931-4.678 7.829-6.226-.953.998-1.729 2.227-2.29 3.464-2.673 5.963-2.249 12.852-.88 19.246.456 2.14 1.024 4.287 2.033 6.243 2.025 3.927 5.9 6.873 10.238 7.783 4.339.91 9.07-.224 12.52-3.002 1.601-1.293 2.946-2.929 3.754-4.821.064-.16.128-.312.184-.471-.424 7.272-2.649 14.72-7.845 19.82-3.986 3.92-10.006 6.003-15.393 5.061-1.777-.311-3.49-.95-5.035-1.963-2.297-1.501-4.074-3.664-5.603-5.939-4.819-7.177-7.469-15.974-6.428-24.547.648-5.324 3.234-10.505 6.916-14.648z" clip-rule="evenodd"/><path fill="#C8D4EC" fill-rule="evenodd" d="M274.905 161.3c.392-.551.832-1.078 1.313-1.565 1.44-1.461 3.193-2.554 4.93-3.64 1.121-.702 3.547-1.405 5.02-2.107-3.683 4.143-6.268 9.323-6.917 14.647-1.04 8.574 1.609 17.37 6.428 24.547 1.529 2.275 3.306 4.438 5.604 5.939 1.545 1.013 3.258 1.652 5.035 1.963-3.594 3.832-10.567 4.901-16.594 3.177-4.883-8.126-11.495-15.31-14.937-24.139-1.802-4.638-2.666-9.579-4.219-14.312-3.882-11.798-12.191-22.104-22.918-28.41-3.97-2.331-8.261-4.143-12.263-6.386l.096-.16c3.602 1.078 7.316 1.757 10.894 2.914 16.546 5.364 29.218 24.482 37.327 27.053l1.201.479zm-109.019-34.126c.008-.143.024-.295.032-.439.449-5.571 5.156-10.504 10.719-11.231l.608-.16c1.305 5.149 3.715 9.875 7.693 13.619a54.996 54.996 0 00-.416 5.132c-.152 4.391.344 9.428 1.409 14.616l-.08.016c-2.466-.104-4.675-1.493-6.716-2.882-3.363-2.29-6.701-4.725-9.254-7.886-2.466-3.057-4.155-6.889-3.995-10.785zm-85.58 18.879c2.042.95 3.65 3.041 4.603 5.173 2.674 5.963 2.242 12.851.88 19.245-.463 2.14-1.024 4.287-2.032 6.243-2.034 3.927-5.9 6.873-10.247 7.783-4.338.91-9.07-.224-12.52-3.002a13.645 13.645 0 01-2.52-2.65v-.008a4.335 4.335 0 00-.385-.559 10.96 10.96 0 01-.849-1.604c-1.697-3.959-.92-8.486-.128-12.708.36-1.876.713-3.752 1.065-5.62l.536-.351.625.958c1.216 1.852 2.537 3.791 4.554 4.709 3.755 1.717 8.077-.83 11.007-3.735 3.21-3.177 6.5-8.031 5.043-12.301a124.55 124.55 0 01-2.29-1.948l.145-.16a5.335 5.335 0 012.497.535h.016z" clip-rule="evenodd"/><path fill="#C8D4EC" fill-rule="evenodd" d="M101.999 154.291c-1.217 2.682-1.817 5.548-2.033 8.485h-.008c-.313 2.738-2.33 5.005-3.507 7.504-3.69 7.846-6.051 16.228-8.405 24.57-.56 1.996-1.129 3.999-1.313 6.067-.224 2.546.136 5.116.673 7.623l-.977.223c-6.708-.854-12.832-4.653-17.322-9.698-4.499-5.045-7.493-11.264-9.606-17.674-.288-.862-.584-1.764-1.033-2.546.713.99 1.57 1.884 2.522 2.65 3.45 2.778 8.18 3.912 12.52 3.002 4.346-.91 8.212-3.856 10.246-7.783 1.008-1.956 1.569-4.103 2.033-6.243 1.36-6.394 1.793-13.283-.88-19.246-.953-2.131-2.562-4.222-4.604-5.172 3.162.838 6.052.654 9.214 1.492 1.905.511 3.826 1.022 5.58 1.916 1.76.894 6.027 3.066 6.9 4.83zm12.775-6.57c-.456.894-.872 1.716-1.224 2.451l-.385.016c.145 4.869 1.633 9.603 3.611 14.049.984 2.227 2.137 4.438 3.914 6.107 1.777 1.668 4.299 2.706 6.676 2.171 1.145-.256 2.177-.846 3.194-1.429 2.594-1.501 5.331-3.145 6.644-5.835.745-1.517.961-3.241 1.137-4.926.304-2.793.56-5.587.776-8.389l.441.032c2.217 3.999 2.873 8.701 2.401 13.283a28.564 28.564 0 01-.576 3.488c-1.281 5.604-4.035 10.768-7.125 15.614-1.497 2.355-3.154 4.718-5.539 6.154-1.209.735-2.618 1.206-4.035 1.118-2.025-.136-3.802-1.389-5.243-2.818-3.362-3.329-5.435-7.703-7.3-12.046-2.682-6.234-5.099-12.843-4.675-19.621.16-2.554.768-5.164 2.329-7.192 1.169-1.509 3.074-2.682 4.939-2.251l.04.024z" clip-rule="evenodd"/><path fill="#C8D4EC" fill-rule="evenodd" d="M116.56 144.305a268.725 268.725 0 00-1.785 3.417l-.04-.024c-1.865-.431-3.77.742-4.939 2.251-1.561 2.027-2.169 4.637-2.329 7.192-.425 6.777 1.993 13.386 4.674 19.621 1.866 4.342 3.939 8.716 7.301 12.045 1.441 1.429 3.218 2.682 5.243 2.818 1.417.088 2.826-.383 4.035-1.118 2.385-1.437 4.042-3.799 5.539-6.154 3.09-4.846 5.843-10.01 7.124-15.614.264-1.149.457-2.315.577-3.488l.208.024c.816 5.26 1.625 10.656.544 15.877-.048.239-.104.479-.16.71-.977 4.095-3.026 7.863-5.051 11.567-3.098 5.659-6.524 11.646-12.312 14.536-1.729.862-3.706 1.412-5.595 1.021-2.225-.463-3.986-2.123-5.491-3.823-8.133-9.188-12.432-21.281-13.849-33.454-.344-2.946-.512-5.971-.288-8.933.216-2.937.817-5.803 2.033-8.485 2.362-5.22 7.517-9.507 13.224-9.507l1.337-.479z" clip-rule="evenodd"/><path fill="#C8D4EC" fill-rule="evenodd" d="M99.966 162.776c-.224 2.961-.056 5.987.289 8.932 1.417 12.173 5.715 24.267 13.848 33.455 1.505 1.7 3.266 3.36 5.491 3.823 1.89.391 3.867-.159 5.596-1.021 5.787-2.89 9.213-8.877 12.311-14.537 2.026-3.703 4.075-7.471 5.051-11.566l.128.032c.713 4.358 1.745 9.323 2.466 13.682.424 2.594.856 5.244.432 7.846-.464 2.834-1.913 5.405-3.514 7.791a58 58 0 01-6.108 7.672 56.846 56.846 0 01-5.235 4.949c-3.578 2.977-7.54 5.571-10.486 9.172-1.321 1.604-2.498 3.464-4.027 4.821-.648.591-1.36 1.078-2.185 1.421-1.201.503-2.53.638-3.834.559a11.908 11.908 0 01-2.194-.328c-2.585-.606-5.003-1.987-7.004-3.751-2.57-2.259-4.53-5.109-6.236-8.071-3.29-5.707-5.691-11.91-7.164-18.32-.064-.263-.12-.526-.184-.798-.536-2.506-.897-5.077-.673-7.623.185-2.067.753-4.071 1.313-6.067 2.354-8.341 4.715-16.723 8.405-24.57 1.177-2.498 3.194-4.765 3.507-7.503h.007z" clip-rule="evenodd"/><path fill="#C8D4EC" fill-rule="evenodd" d="M192.142 227.473c-.705 1.142-1.577 2.147-2.69 2.922-2.513 1.756-5.843 1.995-8.837 1.341-3.002-.655-5.756-2.116-8.461-3.56-1.209-.647-2.49-1.381-3.515-2.299l-1.008 1.173c-4.659 2.371-10.358 1.149-15.113-1.022-.257-.112-.409-.551-.257-.622l-.064-.128c-2.129 1.117-4.618 1.564-6.996 1.205a9.924 9.924 0 01-.936-.175c-3.619-.862-6.708-3.624-7.973-7.113l-.336-.311a58.066 58.066 0 006.107-7.671c1.601-2.387 3.05-4.957 3.514-7.791.425-2.602-.008-5.253-.432-7.847-.72-4.358-1.753-9.323-2.465-13.682l-.128-.032c.056-.231.112-.471.16-.71 1.08-5.221.272-10.617-.545-15.877l-.208-.024c.473-4.582-.184-9.284-2.401-13.283l-.441-.032c.369-4.861.601-9.731.689-14.6.024-1.077.04-2.179.08-3.281l.848.032c1.137-.662 2.266-1.325 3.403-1.987 3.394-1.988 6.828-3.992 10.614-5.053 3.786-1.07 7.669-1.724 11.135.127-.16 3.896 1.529 7.728 3.994 10.785 2.554 3.161 5.892 5.595 9.254 7.886 2.041 1.389 4.25 2.778 6.716 2.882l.08-.016c3.042 15.023 10.702 31.347 20.484 36.991-.144-4.67 2.018-9.052 4.043-13.259 4.691-9.731 9.021-19.836 10.254-30.557.528-4.566.416-9.283-.432-13.825l.4-.072c1.497 1.125 3.074 2.115 4.707 3.025 4.002 2.243 8.293 4.055 12.263 6.386 10.727 6.306 19.036 16.612 22.918 28.41 1.553 4.733 2.418 9.674 4.219 14.312 3.442 8.829 10.054 16.013 14.937 24.139 1.777 2.962 3.362 6.155 3.65 9.587.296 3.44-.928 7.184-3.794 9.116l-.504.423a30.812 30.812 0 017.348 17.53c.192 2.314.096 4.733-.712 6.88a9.663 9.663 0 01-.761 1.581c-1.449 2.411-3.97 4.055-6.668 4.845-2.698.799-5.571.814-8.365.527l-.865-.215c.817-3.209 1.577-6.49.649-9.619-.913-3.074-3.442-5.54-6.42-6.761-2.978-1.214-6.356-1.27-9.494-.543-2.561.59-5.179 1.852-6.38 4.183-.864 1.676-.864 3.648-.824 5.531.024 1.278.048 2.427.064 3.489-2.842-.431-5.363-2.235-7.052-4.55-1.697-2.323-2.634-5.133-3.122-7.967-.176-1.029-.297-2.075-.281-3.113 0-.247.016-.495.033-.742.168-2.084.96-4.047 2.025-5.859-3.819 1.995-11.159 1.492-15.121-.224a14.374 14.374 0 01-4.611-3.209l-1.265.99c-3.45 2.483-7.949 3.025-12.199 2.794-4.251-.24-8.446-1.166-12.696-1.325l-.216-.136z" clip-rule="evenodd"/><path fill="#23315D" fill-rule="evenodd" d="M168.639 225.877c1.024.919 2.305 1.653 3.514 2.3 2.706 1.444 5.459 2.905 8.461 3.56 2.994.654 6.324.415 8.837-1.341 1.113-.775 1.986-1.78 2.69-2.922l.216.136c4.251.159 8.445 1.085 12.696 1.325 4.251.231 8.749-.311 12.199-2.794l1.265-.99a14.385 14.385 0 004.611 3.209c3.962 1.716 11.303 2.219 15.121.224-1.065 1.812-1.857 3.776-2.025 5.859-.016.248-.032.495-.032.742l-.544-.008c-16.322-4.55-32.572 3.912-49.511 4.359-6.155.16-12.287-.718-18.411-1.381-8.069-.87-15.889-1.365-23.694-1.485v-.072a21.25 21.25 0 001.024-9.18l.145-.934c2.377.359 4.867-.088 6.996-1.205l.064.127c-.152.072 0 .511.256.623 4.755 2.171 10.454 3.393 15.113 1.022l1.009-1.174z" clip-rule="evenodd"/><path fill="#F16536" fill-rule="evenodd" d="M270.717 317.405l-.08 1.525c-.864 1.038-1.945 1.995-3.274 2.275a3.08 3.08 0 01-.536.072l.032.958c-.56 1.333-1.817 2.33-3.226 2.682l.152.59c-.96 1.685-3.042 2.459-4.987 2.491-1.945.04-3.85-.527-5.763-.87-5.628-1.022-11.607-.208-16.963-2.235-3.866-1.461-7.3-4.367-11.439-4.59-2.257-.128-4.522.583-6.756.255-1.449-.207-2.793-.838-4.178-1.269-1.777-.551-3.626-.79-5.468-1.03-3.77-.479-7.54-.958-11.318-1.445l-.064-.103c2.737-1.525 5.395-3.233 7.972-4.949 2.57-1.701 5.244-3.561 6.532-6.362 1.449-3.146.817-6.586-.616-9.835l.104-.048c1.713 1.349 3.434 2.794 5.467 3.576 14.489 5.604 36.919.008 46.26 1.525 1.745.104 5.78 1.405 7.533 1.509 1.329.072 2.698.159 3.866.79 1.169.639 2.066 1.98 1.737 3.257-.28 1.093-1.32 1.82-2.369 2.243a9.141 9.141 0 01-4.058.67c-.729-.039-1.481-.167-2.162.104-.672.272-1.169 1.15-.744 1.74 1.481.447 2.97.886 4.45 1.333.497.152 1.033.336 1.513.575.753.383 1.385.918 1.561 1.716.232 1.062-.536 2.164-1.545 2.587-.512.215-1.072.287-1.633.263zm-9.501-20.898c-.817-.048-1.593-.359-2.026-.958-.648-.902-.688-2.091-.712-3.209-.008-.638-.024-1.285-.032-1.932l-.096-5.1c-.024-1.485-.032-3.05.672-4.351.705-1.309 2.394-2.219 3.731-1.556 1.096.542 1.528 1.868 1.801 3.065a47.966 47.966 0 011.04 6.569c.024.272.048.535.064.807.088 1.445.032 2.921-.576 4.222a4.597 4.597 0 01-1.873 2.028c-.008.008-.016.008-.032.016-.112.064-.232.12-.36.168a3.82 3.82 0 01-1.601.231zm-4.867-16.811c.424 2.945-.465 5.963-.072 8.916.08.599.208 1.23.208 1.828 0 .455-.072.894-.288 1.294-.737 1.349-2.01 1.875-3.547 1.78-1.232-.208-1.761-.583-2.225-1.27-.456-.686-.464-1.572-.456-2.402l.072-8.23c0-.423.008-.862.048-1.293.048-.423.128-.847.288-1.246.48-1.221 1.689-2.131 3.002-2.235.616-.056 1.265.064 1.769.423.76.543 1.065 1.517 1.201 2.435zm-9.166 7.208c-.64.439-1.521.232-2.297.24-2.834-.128-3.811-2.874-3.891-4.742-.072-1.868.529-3.688.889-5.516.232-1.197.368-2.411.776-3.56.417-1.142 1.145-2.235 2.242-2.762.248-.12.512-.2.792-.247.937-.16 1.961.135 2.506.902.456.662.512 1.508.536 2.307a81.652 81.652 0 01-.056 6.713 92.583 92.583 0 01-.264 3.656c-.104 1.117-.312 2.371-1.233 3.009z" clip-rule="evenodd"/><path fill="#F16536" fill-rule="evenodd" d="M272.119 279.416a2.406 2.406 0 011.537-.016c1.737.582 2.121 2.786 2.857 4.462.489 1.109 1.233 2.091 1.785 3.169.545 1.078.897 2.347.537 3.496-.577 1.804-2.762 2.69-4.635 2.395-1.873-.287-3.474-1.453-4.947-2.65-.44-.367-.897-.743-1.441-.902-.552-.16-1.825 0-2.153.471-.016-.272-.04-.535-.064-.806a47.958 47.958 0 00-1.041-6.57c-.272-1.197-.704-2.522-1.801-3.065-1.337-.663-3.026.247-3.73 1.556-.705 1.301-.697 2.866-.673 4.351l.096 5.101-1.961.031c0-.598-.128-1.229-.208-1.828-.392-2.953.496-5.97.072-8.916-.136-.918-.44-1.892-1.201-2.435-.504-.359-1.152-.479-1.769-.423-1.313.104-2.521 1.014-3.002 2.235-.16.4-.24.823-.288 1.246l-1.409-.08c.112-2.235.128-4.47.056-6.713-.024-.799-.08-1.645-.536-2.307-.544-.767-1.569-1.062-2.505-.902l-.073-.431c-.512-1.565.737-3.098 2.29-3.808a4.62 4.62 0 01.936-.319c1.922-.431 3.955-.048 5.876-.495 1.961-.447 3.626-1.708 5.531-2.347 2.586-.878 5.34-.559 8.005.216 1.145.335 2.274.75 3.37 1.189 3.618 1.461 7.301 3.225 11.207 3.081 1.257-.048 2.634-.271 3.706.391 1.978 1.23 1.129 4.614-.952 5.66-2.081 1.046-4.587.463-6.804-.264-2.386-.782-5.508-1.508-6.989.511-.984 1.341-.464 4.095.273 5.588l.048.128z" clip-rule="evenodd"/><path fill="#F16536" fill-rule="evenodd" d="M247.487 265.43c-.608-6.266-.728-9.387-.84-14.616-.016-1.061-.04-2.211-.064-3.488-.04-1.884-.04-3.856.824-5.532 1.201-2.331 3.819-3.592 6.38-4.183 3.138-.726 6.516-.67 9.494.543 2.978 1.221 5.507 3.688 6.42 6.761.928 3.129.168 6.41-.649 9.619-.184.726-.368 1.445-.536 2.155-.92 3.888-.92 3.888-.256 6.442-2.666-.774-5.419-1.093-8.005-.215-1.905.638-3.57 1.899-5.531 2.346-1.921.447-3.955.064-5.876.495a4.625 4.625 0 00-.936.32l-.425-.647zM8.142 121.028l.008-.511a16.249 16.249 0 00-5.307-4.055c-.849-.4-1.89-.958-1.841-1.892.032-.487.384-.91.8-1.182 1.153-.75 2.682-.511 4.01-.143 1.906.526 3.787 1.285 5.324 2.53-2.122-2.562-3.674-3.752-5.796-6.314-.448-.543-1.905-1.692-2.057-2.371-.144-.686 1.305-2.442 1.953-2.698.504-.192 1.065-.008 1.553.208 4.387 1.947 7.252 6.633 11.855 7.974 1.33.383 2.73.463 4.107.543 1.793.104 12.44-1.381 14.224-1.285a8.734 8.734 0 01-1.088-2.036c-.184-.503-.328-1.069-.12-1.564.248-.607.928-.91 1.569-1.054.584-.12 1.216-.152 1.745.112.296.143.536.375.784.59a15.509 15.509 0 005.347 3.074c8.454 4.143 4.571 6.122 8.454 11.191 2.561 3.337 15.77 16.372 23.982 23.532.817.711 1.585 1.365 2.29 1.948 1.456 4.271-1.834 9.124-5.044 12.301-2.93 2.906-7.252 5.452-11.006 3.736-2.017-.918-3.338-2.858-4.555-4.71a798.28 798.28 0 01-.624-.958c-3.218-4.901-6.444-9.81-9.67-14.711-2.658-4.056-5.98-8.518-10.815-8.933-3.186-.271-6.236 1.341-9.43 1.469-1.649.064-3.29-.279-4.907-.615a8061.03 8061.03 0 00-6.131-1.269c-1.217-.247-2.474-.519-3.49-1.229-.873-.607-1.497-1.493-2.178-2.315a20.999 20.999 0 00-7.5-5.747l-.489-.2c-1.024-.303-1.048-1.908-.248-2.618.793-.711 1.962-.775 3.034-.798.416-.008.84-.016 1.257 0zm122.05-47.895c.28 1.077-.056 2.203-.424 3.249a40.213 40.213 0 01-2.202 5.076c-.2.392-.408.79-.448 1.23-.032.399.08.798.2 1.181.585 1.988.849 3.137 1.433 5.125-1.993 2.147-3.986 4.302-5.979 6.45-.337.359-.673.718-.985 1.101 1.697-3.943-.592-10.696.04-14.95.248-1.685 1.097-3.21 1.929-4.703l2.089-3.735c.441-.783.977-1.637 1.866-1.836 1.104-.248 2.209.726 2.481 1.812z" clip-rule="evenodd"/><path fill="#F16536" fill-rule="evenodd" d="M147.107 95.436c.504-.902 1.953-.806 2.682-.072.72.742.92 1.828 1.088 2.85l.841 5.188c.104.655.216 1.317.128 1.98-.08.615-.328 1.189-.576 1.756-.961 2.251-1.922 4.494-2.89 6.745-.473 1.102-.953 2.211-1.649 3.185-.817 1.158-1.913 2.084-2.834 3.161-3.17 3.752-3.81 8.821-4.01 13.826-.04 1.102-.056 2.203-.08 3.281a254.363 254.363 0 01-1.465 22.989c-.176 1.685-.393 3.409-1.137 4.925-1.313 2.691-4.05 4.335-6.644 5.836-1.017.582-2.049 1.173-3.194 1.429-2.377.534-4.899-.503-6.676-2.172-1.777-1.668-2.93-3.879-3.914-6.106-1.978-4.447-3.467-9.18-3.611-14.049l.385-.016c.352-.735.768-1.557 1.224-2.451a275.24 275.24 0 011.785-3.416c2.578-4.854 5.676-10.505 7.373-14.05 1.513-3.153 3.066-6.513 2.698-9.994-.161-1.564-.713-3.065-1.257-4.542l-4.179-11.375c-.632-1.716-1.273-3.576-.792-5.348.248-.918.768-1.708 1.385-2.443v-.008c.312-.383.648-.742.984-1.101 1.993-2.148 3.987-4.303 5.98-6.45 1.417-1.525 2.914-3.105 4.867-3.84 3.082-1.157 6.492.048 9.558 1.246 1.24.487 2.529 1.812 3.226 2.937.704 1.134 1.697 2.93-.993 4.51a3.8 3.8 0 01.776.743c.185.247.377.59.521.998l.4-.152zm221.359 25.592c.424-.016.848-.008 1.264 0 1.065.024 2.234.087 3.034.798.793.71.777 2.315-.256 2.618l-.488.2a21.066 21.066 0 00-7.501 5.747c-.672.822-1.305 1.708-2.169 2.315-1.025.71-2.282.982-3.498 1.229l-6.132 1.269c-1.617.336-3.258.679-4.907.615-3.186-.128-6.244-1.74-9.422-1.469-4.843.415-8.165 4.878-10.822 8.933-3.226 4.901-6.444 9.81-9.67 14.711l-.625.958c-1.216 1.852-2.537 3.792-4.554 4.71-3.755 1.716-8.077-.83-11.007-3.736-3.202-3.177-6.5-8.03-5.035-12.301.704-.583 1.473-1.237 2.289-1.948 8.213-7.16 21.413-20.195 23.975-23.532 3.882-5.069 0-7.048 8.453-11.191a15.484 15.484 0 005.355-3.073c.24-.216.489-.448.777-.591.536-.264 1.16-.232 1.745-.112.64.144 1.321.447 1.569 1.054.208.495.072 1.061-.12 1.564a8.18 8.18 0 01-1.089 2.036c1.785-.096 12.44 1.389 14.225 1.285 1.385-.08 2.777-.16 4.106-.543 4.603-1.341 7.477-6.027 11.855-7.974.489-.216 1.057-.399 1.553-.208.649.256 2.106 2.012 1.953 2.698-.152.679-1.608 1.828-2.049 2.371-2.121 2.562-3.674 3.752-5.795 6.314 1.529-1.245 3.41-2.003 5.315-2.53 1.329-.367 2.858-.607 4.018.143.409.272.769.695.793 1.182.048.934-.985 1.493-1.833 1.892a16.285 16.285 0 00-5.315 4.055l.008.511zm-164.052-33.08c.104-.678-.28-1.349-.729-1.876-2.233-2.666-6.155-3.384-9.573-2.706-1.489.296-3.05.807-4.483.312-1.009-.352-1.801-1.158-2.818-1.461-1.393-.415-3.034.311-3.65 1.62-.488.471.68.775 1.225 1.19 1.857 1.445 3.866 2.945 6.219 3.137 1.85.144 3.691-.543 5.532-.351 1.497.151 2.866.87 4.29 1.365.753.255 1.561.455 2.346.303.784-.152 1.529-.742 1.641-1.533zm-29.05 14.297a4.024 4.024 0 01-1.513.431c-1.385.088-2.729-.479-3.954-1.15-.689-.375-1.377-.814-1.817-1.468-1.193-1.796 0-4.295-.689-6.338-.28-.815-.84-1.501-1.288-2.243-2.05-3.417-1.425-7.871.32-11.447.624-1.278 1.433-2.547 2.673-3.225.945-.52 2.058-.615 3.098-.375l2.114-.128c-.305-7.232 4.298-14.121 10.558-17.777 6.268-3.648 13.912-4.39 21.093-3.36 6.572.95 12.415 3.488 17.915 8.796 7.444 7.184 5.499 21.856 3.202 26.598v.135c-.401 0-.801.016-1.201 0-1.769-.056-3.49-.694-4.987-1.636-.945-.59-1.817-1.31-2.85-1.724a5.517 5.517 0 00-2.826-.368c-.952.12-1.921.535-2.457 1.326-.528.79-.48 2.003.28 2.586l.064-.08c.44.415 1.113.559 1.729.583.729.016 1.457-.104 2.169.04 1.345.28 2.298 1.42 3.395 2.243 1.08.806 2.369 1.293 3.698 1.468l-.12 1.086c2.049 3.185 2.609 7.28 1.497 10.904-1.481 4.782-5.604 8.47-6.821 13.323l-.488.263c-1.345-3.344-3.194-6.465-5.603-9.187l-.505-.2c-.664.559-1.56.862-2.441.918-1.177.08-2.337-.232-3.45-.631a21.895 21.895 0 01-5.227-2.746c-.216-.159-.441-.327-.521-.574-.088-.232-.032-.487.04-.727-5.491 1.293-9.533 5.245-12.167 10.218-1.825 3.464-2.834 7.288-3.346 11.183-3.978-3.744-6.388-8.469-7.693-13.618-1.048-4.167-1.377-8.613-1.232-13.027l-.649-.072z" clip-rule="evenodd"/><path stroke="#111840" stroke-linecap="round" stroke-width="2" d="M202.54 105.078a4.336 4.336 0 00-2.09 2.483c-.072.239-.128.495-.04.726.08.248.305.415.521.575a21.895 21.895 0 005.227 2.746c1.113.399 2.273.711 3.45.631.881-.056 1.777-.359 2.441-.918.225-.184.417-.399.585-.639.888-1.301.64-3.073-.016-4.502-.665-1.421-1.681-2.658-2.338-4.087-1.016-2.203-1.12-4.71-1.088-7.136m-24.255 34.005c-3.978-3.744-6.388-8.469-7.693-13.618-1.048-4.167-1.376-8.613-1.232-13.027m-.024-18.049c.656-2.067.384-4.494-1.009-6.162-.704-.846-1.713-1.429-2.786-1.676-1.04-.24-2.153-.144-3.098.375-1.24.678-2.049 1.947-2.673 3.225-1.745 3.576-2.37 8.03-.32 11.446.448.743 1.008 1.43 1.288 2.243.689 2.044-.504 4.543.689 6.339.44.654 1.128 1.093 1.817 1.468 1.225.671 2.569 1.238 3.954 1.15a4.024 4.024 0 001.513-.431c.777-.415 1.393-1.094 1.545-1.948m-2.601-23.995c-.305-7.232 4.298-14.121 10.558-17.777 6.268-3.648 13.912-4.39 21.093-3.36 6.572.95 12.415 3.488 17.915 8.796 7.444 7.184 5.499 21.856 3.202 26.597m-8.43 29.887c1.217-4.854 5.34-8.542 6.821-13.323 1.112-3.624.552-7.719-1.497-10.904"/><path stroke="#111840" stroke-linecap="round" stroke-width="2" d="M200.451 107.562c-5.492 1.293-9.534 5.244-12.168 10.217-1.825 3.465-2.834 7.288-3.346 11.184a54.996 54.996 0 00-.416 5.132c-.152 4.391.344 9.428 1.409 14.616 3.042 15.023 10.702 31.347 20.484 36.991-.144-4.67 2.017-9.052 4.043-13.259 4.691-9.73 9.021-19.836 10.254-30.557.528-4.566.416-9.283-.432-13.825a37.963 37.963 0 00-2.122-7.352c-1.344-3.345-3.194-6.466-5.603-9.188M169.528 82.6c1.537 1.222 2.514 3.05 3.002 4.95.488 1.9.528 3.888.472 5.852m-3.362-3.098a6.687 6.687 0 012.81-1.15M192.126 92.739c2.609-1.11 5.771-.807 8.117.782m13.296 3.265c.24-.136.48-.264.728-.376a4.948 4.948 0 013.418-.223 4.963 4.963 0 012.73 2.076M183.16 83.838c-.488.47.681.774 1.225 1.19 1.857 1.444 3.866 2.945 6.22 3.136 1.849.144 3.69-.542 5.531-.35 1.497.15 2.866.87 4.291 1.364.752.256 1.561.455 2.345.303.785-.151 1.529-.742 1.641-1.532.104-.679-.28-1.35-.728-1.876-2.234-2.666-6.156-3.385-9.574-2.706-1.489.295-3.05.806-4.483.311-1.008-.351-1.801-1.157-2.818-1.46-1.392-.416-3.033.31-3.65 1.62zm29.594 4.454c.537-.79 1.505-1.205 2.458-1.325.952-.128 1.937 0 2.825.367 1.033.415 1.906 1.134 2.85 1.724 1.497.942 3.218 1.581 4.987 1.637.4.016.801 0 1.201 0 .64-.008 1.281.024 1.873.247.969.36 1.745 1.533 1.225 2.427-.184.311-.489.527-.793.71-1.569.959-3.466 1.302-5.291 1.054-1.329-.175-2.618-.662-3.698-1.468-1.097-.823-2.049-1.964-3.394-2.244-.713-.143-1.441-.024-2.17-.04-.616-.023-1.288-.167-1.729-.582-.357-.425-1.1-1.375-.344-2.507zM182.92 99.684c.28 2.283 1.529 4.438 3.37 5.827m2.994-42.22c.84.544 1.488 1.342 2.049 2.18a18.803 18.803 0 013.05 8.254m11.383 2.18l8.997 1.652m-6.204-5.413c1.569.24 3.114.64 4.611 1.19M121.788 96.546c.312-.384.648-.743.984-1.102 1.993-2.147 3.987-4.303 5.98-6.45 1.417-1.524 2.914-3.105 4.867-3.84 3.082-1.157 6.492.049 9.558 1.246 1.24.487 2.529 1.812 3.225 2.938.705 1.133 1.697 2.929-.992 4.51m-31.859 56.323c.352-.734.768-1.556 1.224-2.45a282.315 282.315 0 011.785-3.417c2.578-4.853 5.676-10.505 7.373-14.049 1.513-3.153 3.066-6.513 2.697-9.994-.16-1.564-.712-3.065-1.256-4.542l-4.179-11.375c-.632-1.716-1.273-3.576-.792-5.348.248-.918.768-1.708 1.385-2.442"/><path stroke="#111840" stroke-linecap="round" stroke-width="2" d="M127.775 97.67c2.249-2.147 4.506-4.294 6.764-6.441.52-.495 1.056-.998 1.729-1.261 1.585-.615 3.314.295 4.771 1.173 1.12.678 2.233 1.357 3.354 2.035.344.208.696.423 1.016.67.289.216.561.456.777.743.184.248.376.59.52.998.44 1.213.521 3.001-.792 4.574"/><path stroke="#111840" stroke-linecap="round" stroke-width="2" d="M132.185 104.241a81.495 81.495 0 013.506-3.767c.76-.767 1.561-1.54 2.553-1.988 2.498-1.126 5.428.104 7.669 1.676.593.423 1.185.886 1.505 1.533.6 1.221.064 2.666-.464 3.911l-2.162 5.053c-.168.391-.344.799-.664 1.078-.304.263-.704.375-1.097.455-1.2.239-2.649.064-3.33-.95-.672-1.014-.288-2.379.225-3.488a19.662 19.662 0 011.809-3.145m-27.001 43.089c-1.865-.431-3.77.742-4.939 2.251-1.561 2.028-2.169 4.638-2.329 7.192-.425 6.777 1.993 13.387 4.675 19.621 1.865 4.343 3.938 8.717 7.3 12.046 1.441 1.429 3.218 2.682 5.243 2.818 1.417.087 2.826-.383 4.035-1.118 2.385-1.437 4.042-3.8 5.539-6.154 3.09-4.846 5.844-10.01 7.124-15.614.265-1.15.457-2.315.577-3.488.472-4.582-.184-9.284-2.402-13.283m-17.771-55.415v-.008c1.697-3.943-.592-10.696.04-14.95.249-1.685 1.097-3.21 1.93-4.703l2.089-3.735c.44-.783.977-1.637 1.865-1.836 1.105-.248 2.209.726 2.482 1.812.28 1.077-.056 2.203-.425 3.249a40.212 40.212 0 01-2.201 5.076c-.2.392-.408.79-.448 1.23-.032.399.08.798.2 1.181.584 1.988.848 3.137 1.433 5.125l-6.965 7.56z"/><path stroke="#111840" stroke-linecap="round" stroke-width="2" d="M115.744 144.791c-.176-.008-.345-.008-.521-.008-5.707 0-10.862 4.287-13.224 9.507-1.216 2.683-1.817 5.548-2.033 8.486-.224 2.961-.056 5.987.288 8.932 1.417 12.173 5.716 24.267 13.849 33.455 1.505 1.7 3.266 3.36 5.491 3.823 1.889.391 3.866-.159 5.595-1.021 5.788-2.89 9.214-8.877 12.312-14.537 2.025-3.703 4.074-7.471 5.051-11.566.056-.232.112-.471.16-.711 1.081-5.22.272-10.616-.544-15.877"/><path stroke="#111840" stroke-linecap="round" stroke-width="2" d="M99.957 162.777c-.312 2.738-2.33 5.005-3.506 7.503-3.69 7.847-6.052 16.229-8.405 24.57-.56 1.996-1.129 4-1.313 6.067-.224 2.546.136 5.117.672 7.623.064.272.12.535.184.798 1.473 6.41 3.875 12.613 7.165 18.32 1.705 2.962 3.666 5.811 6.236 8.07 2.001 1.765 4.418 3.145 7.004 3.752.72.176 1.449.288 2.193.327 1.305.08 2.634-.055 3.835-.558.824-.344 1.536-.831 2.185-1.421 1.529-1.357 2.706-3.217 4.026-4.822 2.946-3.6 6.909-6.194 10.487-9.171a56.722 56.722 0 005.235-4.95 58.09 58.09 0 006.108-7.671c1.601-2.386 3.049-4.957 3.514-7.791.424-2.602-.008-5.252-.433-7.846-.72-4.359-1.753-9.324-2.465-13.682M4.587 124.645a21 21 0 017.5 5.747c.681.822 1.305 1.708 2.178 2.315 1.016.71 2.273.982 3.49 1.229 2.05.423 4.09.846 6.132 1.27 1.617.335 3.258.678 4.907.614 3.194-.128 6.244-1.74 9.43-1.469 4.834.415 8.156 4.878 10.814 8.933 3.226 4.901 6.452 9.81 9.67 14.711l.624.958c1.217 1.852 2.538 3.792 4.555 4.71 3.754 1.716 8.077-.83 11.007-3.736 3.21-3.177 6.5-8.03 5.043-12.301a121.042 121.042 0 01-2.29-1.948c-8.213-7.16-21.42-20.195-23.982-23.532-3.883-5.069 0-7.048-8.453-11.191m35.077 35.099a5.322 5.322 0 00-2.498-.535"/><path stroke="#111840" stroke-linecap="round" stroke-width="2" d="M58.47 178.846a13.702 13.702 0 002.52 2.65c3.45 2.778 8.182 3.911 12.52 3.001 4.347-.91 8.213-3.855 10.247-7.783 1.008-1.955 1.569-4.103 2.033-6.242 1.36-6.394 1.793-13.283-.88-19.246-.953-2.131-2.562-4.222-4.603-5.172m-22.134 12.293c-.352 1.868-.704 3.743-1.065 5.619-.792 4.223-1.569 8.749.129 12.708a10.97 10.97 0 001.232 2.164m118.168-63.333c-5.563.726-10.27 5.659-10.719 11.231-.008.144-.024.295-.032.439-.16 3.896 1.529 7.727 3.995 10.784 2.553 3.162 5.891 5.596 9.254 7.887 2.041 1.389 4.25 2.778 6.716 2.882"/><path stroke="#111840" stroke-linecap="round" stroke-width="2" d="M57.451 177.601c.24.199.457.431.633.678.144.176.272.368.384.559v.008c.448.782.744 1.684 1.033 2.547 2.113 6.409 5.107 12.628 9.605 17.673 4.491 5.045 10.615 8.844 17.323 9.698m-6.14-62.71h.016c3.162.839 6.052.655 9.214 1.493 1.905.511 3.826 1.022 5.58 1.916 1.76.894 6.027 3.065 6.899 4.829m38.736-20.203c1.137-.663 2.265-1.325 3.402-1.988 3.394-1.988 6.828-3.991 10.614-5.053 3.787-1.069 7.669-1.724 11.135.128h.008m-161.794-2.73c-1.025-.303-1.049-1.908-.248-2.618.792-.711 1.961-.775 3.034-.799.416-.008.84-.015 1.256 0 .969.008 1.921.08 2.826.4 1.529.534 2.77 1.684 3.842 2.897.353.399.713.822 1.21 1.014.383.152.808.144 1.216.136 2.217-.04 4.435-.088 6.652-.128.72-.016 1.449-.032 2.137-.232 1.009-.287 1.857-.949 2.706-1.564 2.553-1.844 5.58-5.253 6.828-7.464m9.654-5.132a15.507 15.507 0 01-5.347-3.074c-.248-.215-.489-.447-.785-.59-.528-.264-1.16-.232-1.745-.112-.64.144-1.32.447-1.569 1.054-.208.495-.064 1.061.12 1.564.272.727.64 1.413 1.089 2.036"/><path stroke="#111840" stroke-linecap="round" stroke-width="2" d="M8.15 120.517a16.276 16.276 0 00-5.307-4.055c-.849-.399-1.89-.958-1.841-1.892.032-.487.384-.91.8-1.182 1.153-.75 2.682-.511 4.01-.143 1.906.527 3.787 1.285 5.324 2.53.592.479 1.129 1.03 1.729 1.501 2.737 2.132 8.837 1.261 11.47.838"/><path stroke="#111840" stroke-linecap="round" stroke-width="2" d="M11.136 115.776c-2.122-2.562-3.675-3.752-5.796-6.314-.448-.543-1.905-1.693-2.057-2.371-.144-.687 1.305-2.443 1.953-2.698.504-.192 1.065-.008 1.553.207 4.386 1.948 7.252 6.634 11.855 7.975 1.329.383 2.73.463 4.107.543 1.793.103 12.44-1.381 14.224-1.285m335.044 12.811a21.08 21.08 0 00-7.501 5.748c-.672.822-1.305 1.708-2.169 2.315-1.025.71-2.281.982-3.498 1.229l-6.132 1.269c-1.617.335-3.258.679-4.907.615-3.186-.128-6.244-1.74-9.422-1.469-4.843.415-8.165 4.877-10.822 8.932-3.226 4.902-6.444 9.811-9.67 14.712l-.624.958c-1.217 1.852-2.538 3.792-4.555 4.71-3.754 1.716-8.077-.83-11.007-3.736-3.202-3.177-6.5-8.03-5.035-12.301.704-.583 1.473-1.237 2.289-1.948 8.213-7.16 21.413-20.195 23.975-23.532 3.882-5.069 0-7.049 8.453-11.192"/><path stroke="#111840" stroke-linecap="round" stroke-width="2" d="M318.434 158.348c.361 1.867.713 3.743 1.065 5.619.768 4.055 1.505 8.39.056 12.237-.056.16-.12.312-.184.471-.809 1.892-2.153 3.528-3.754 4.822-3.451 2.778-8.181 3.911-12.52 3.001-4.339-.91-8.213-3.855-10.238-7.783-1.009-1.956-1.577-4.103-2.033-6.242-1.369-6.394-1.794-13.283.88-19.246.56-1.237 1.337-2.466 2.289-3.464 1.313-1.373 2.954-2.307 4.827-2.243m73.685-21.074c1.033-.303 1.049-1.908.256-2.618-.8-.711-1.969-.775-3.034-.798-.416-.008-.84-.016-1.264 0-.961.008-1.913.079-2.818.399-1.537.534-2.77 1.684-3.85 2.897-.353.399-.713.822-1.209 1.014-.384.152-.809.144-1.217.136-2.217-.04-4.435-.088-6.652-.128-.72-.016-1.441-.032-2.129-.231-1.009-.288-1.865-.95-2.714-1.565-2.553-1.844-5.571-5.252-6.82-7.464m-9.662-5.132a15.47 15.47 0 005.355-3.074c.241-.215.489-.447.777-.59.536-.264 1.161-.232 1.745-.112.64.144 1.321.447 1.569 1.054.208.495.072 1.061-.12 1.564a8.18 8.18 0 01-1.089 2.036"/><path stroke="#111840" stroke-linecap="round" stroke-width="2" d="M368.456 120.517a16.303 16.303 0 015.316-4.055c.848-.399 1.881-.958 1.833-1.892-.024-.487-.384-.91-.793-1.182-1.16-.75-2.689-.511-4.018-.143-1.905.527-3.786 1.285-5.315 2.53-.593.479-1.129 1.03-1.729 1.501-2.746 2.132-8.838 1.261-11.471.838"/><path stroke="#111840" stroke-linecap="round" stroke-width="2" d="M365.48 115.776c2.121-2.563 3.674-3.752 5.795-6.314.441-.543 1.898-1.693 2.05-2.371.152-.687-1.305-2.443-1.954-2.698-.496-.192-1.064-.008-1.552.207-4.379 1.948-7.253 6.634-11.856 7.975-1.328.383-2.721.463-4.106.543-1.785.103-12.44-1.381-14.225-1.285M136.293 219.196c1.264 3.489 4.354 6.251 7.972 7.113.313.072.625.135.937.175 2.377.36 4.867-.087 6.996-1.205a10.978 10.978 0 002.402-1.692c3.386-3.161 4.482-8.031 4.987-12.628 1.521-13.738-.721-27.604-3.682-41.102-1.337-6.107-2.834-12.357-1.89-18.527m27.305 23.205c-5.683 9.475-4.891 12.412-6.996 21.648-2.098 9.172-5.243 14.025-7.333 23.197-.24 1.03-.472 2.083-.328 3.129.192 1.349.961 2.451 1.977 3.369 1.025.918 2.306 1.652 3.514 2.299 2.706 1.444 5.46 2.905 8.462 3.56 2.993.654 6.323.415 8.837-1.341 1.113-.775 1.985-1.78 2.69-2.922.936-1.508 1.56-3.257 2.001-4.981 2.681-10.553.08-11.79 1.881-21.185m21.229-22.391c-3.162 8.797-2.826 24.179-2.874 29.216-.04 3.616-.416 7.304.544 10.792.641 2.331 1.906 4.486 3.595 6.226a14.37 14.37 0 004.61 3.209c3.963 1.716 11.303 2.219 15.122.224m-85.885-3.177a.15.15 0 00-.104 0c-.152.072 0 .511.256.622 4.755 2.172 10.455 3.393 15.114 1.022m24.727.559c4.25.16 8.445 1.086 12.695 1.325 4.251.231 8.75-.311 12.2-2.794m3.426-98.152c1.497 1.126 3.074 2.115 4.707 3.025 4.002 2.243 8.293 4.055 12.263 6.386 10.727 6.306 19.036 16.612 22.918 28.41 1.553 4.733 2.418 9.675 4.219 14.312 3.442 8.829 10.054 16.013 14.937 24.139 1.777 2.962 3.362 6.155 3.65 9.587.296 3.441-.929 7.184-3.794 9.116"/><path stroke="#111840" stroke-linecap="round" stroke-width="2" d="M225.481 130.854c3.603 1.078 7.317 1.756 10.895 2.914 16.546 5.364 29.218 24.482 37.327 27.053m20.292-13.06c-2.898 1.549-5.571 3.696-7.829 6.227-3.682 4.143-6.268 9.323-6.916 14.648-1.041 8.573 1.609 17.37 6.428 24.547 1.529 2.275 3.306 4.438 5.603 5.939 1.545 1.013 3.258 1.652 5.035 1.963 5.388.942 11.407-1.141 15.394-5.061 5.195-5.101 7.42-12.548 7.844-19.821.016-.159.024-.327.032-.486"/><path stroke="#111840" stroke-linecap="round" stroke-width="2" d="M286.784 153.661a6.09 6.09 0 01-.617.327c-1.473.703-3.898 1.405-5.019 2.108-1.737 1.085-3.49 2.179-4.931 3.64-.48.487-.92 1.014-1.313 1.564-1.729 2.395-2.705 5.317-3.138 8.254-.528 3.616-.288 7.296-.048 10.944m8.005 23.764c6.028 1.724 13 .655 16.594-3.177m-61.205-47.576a97.777 97.777 0 00-2.689 22.136c-.025 3.073.104 6.154.688 9.164 1.169 5.971 4.138 11.598 4.291 17.681m8.901-14.768c-1.585 2.69-3.17 5.388-4.755 8.079-2.585 4.414-5.259 9.06-5.419 14.168-.224 6.762 4.162 12.166 2.121 18.616m0 0c.36-.607.745-1.198 1.153-1.765 4.234-5.93 10.662-10.273 17.755-11.997m-18.908 13.762c-1.065 1.812-1.857 3.775-2.025 5.859-.016.247-.032.495-.032.742-.016 1.038.104 2.084.28 3.113.488 2.834 1.425 5.644 3.122 7.967 1.689 2.315 4.21 4.119 7.052 4.55h.024m23.246 3.935c2.794.288 5.668.272 8.365-.527 2.698-.79 5.22-2.434 6.668-4.845.305-.503.553-1.03.761-1.581.808-2.147.905-4.566.712-6.88a30.812 30.812 0 00-7.348-17.53 3.388 3.388 0 00-.16-.192c-2.073-2.354-4.675-4.478-7.789-4.957m-7.949 77.869c-.12.064-.24.12-.36.168a3.053 3.053 0 01-1.601.232c-.08-.008-.152-.024-.232-.04m-16.098-9.324c-2.834-.128-3.81-2.874-3.89-4.742-.072-1.867.528-3.687.888-5.515.232-1.198.369-2.411.777-3.561.416-1.141 1.144-2.235 2.241-2.762.248-.119.512-.199.793-.247.936-.16 1.961.136 2.505.902.456.663.512 1.509.536 2.307a81.652 81.652 0 01-.056 6.713 92.308 92.308 0 01-.264 3.656c-.104 1.118-.312 2.371-1.232 3.01-.641.439-1.521.231-2.298.239zm7.765 6.37c-1.233-.207-1.761-.583-2.226-1.269-.456-.687-.464-1.573-.456-2.403l.072-8.23c0-.423.008-.862.048-1.293.048-.423.128-.846.288-1.245.481-1.222 1.689-2.132 3.002-2.235.617-.056 1.265.064 1.769.423.761.543 1.065 1.516 1.201 2.434.424 2.946-.464 5.963-.072 8.917.08.599.208 1.229.208 1.828 0 .455-.072.894-.288 1.293-.736 1.349-2.009 1.876-3.546 1.78z"/><path stroke="#111840" stroke-linecap="round" stroke-width="2" d="M263.208 296.092c-.008.008-.016.008-.032.016-.112.064-.232.12-.36.168a3.818 3.818 0 01-1.601.231c-.817-.048-1.593-.359-2.025-.958-.649-.902-.689-2.091-.713-3.209-.008-.638-.024-1.285-.032-1.931l-.096-5.101c-.024-1.485-.032-3.049.673-4.35.704-1.309 2.393-2.219 3.73-1.557 1.097.543 1.529 1.868 1.801 3.065a48.007 48.007 0 011.041 6.57c.024.271.048.535.064.806.088 1.445.032 2.922-.577 4.223a4.594 4.594 0 01-1.873 2.027z" clip-rule="evenodd"/><path stroke="#111840" stroke-linecap="round" stroke-width="2" d="M265.659 289.841c.328-.471 1.601-.631 2.153-.471.544.159 1.001.535 1.441.902 1.473 1.197 3.074 2.363 4.947 2.65 1.873.295 4.058-.591 4.635-2.395.36-1.149.008-2.418-.537-3.496-.552-1.078-1.296-2.059-1.785-3.169-.736-1.676-1.12-3.88-2.857-4.462a2.406 2.406 0 00-1.537.016 3.064 3.064 0 00-1.689 1.365c-.641 1.093-.633 2.466-.265 3.68.361 1.205 1.049 2.291 1.729 3.36m.177-8.533c-.737-1.493-1.257-4.247-.273-5.588 1.481-2.019 4.603-1.293 6.989-.511 2.217.727 4.723 1.31 6.804.264 2.081-1.046 2.93-4.43.952-5.66-1.072-.662-2.449-.439-3.706-.391-3.906.144-7.589-1.62-11.207-3.081a37.239 37.239 0 00-3.37-1.189c-2.665-.775-5.419-1.094-8.005-.216-1.905.639-3.57 1.9-5.531 2.347-1.921.447-3.954.064-5.876.495a4.62 4.62 0 00-.936.319c-1.553.71-2.802 2.243-2.29 3.808"/><path stroke="#111840" stroke-linecap="round" stroke-width="2" d="M205.935 112.248c.392.958.096 2.043-.513 2.913a4.498 4.498 0 01-.712.798c-1.041.918-2.378 1.421-3.602 2.076-.425.223-.825.463-1.209.726-4.091 2.698-6.236 7.208-7.477 12.094-1.36 5.348.385 9.571 1.473 14.983m53.593 119.593c-.609-6.266-.729-9.387-.841-14.616-.016-1.061-.04-2.211-.064-3.488-.04-1.884-.04-3.856.825-5.532 1.2-2.331 3.818-3.592 6.38-4.183 3.138-.726 6.516-.67 9.493.543 2.978 1.221 5.508 3.688 6.42 6.761.929 3.129.168 6.41-.648 9.619-.184.727-.368 1.445-.536 2.155-.921 3.888-.921 3.888-.257 6.442l-20.772 2.299z"/><path stroke="#111840" stroke-linecap="round" stroke-width="2" d="M205.422 115.162c.016 1.987 1.385 3.504 2.738 4.957.16.175.32.343.464.526 5.38 6.163 7.205 15.255 4.555 22.989"/><path stroke="#111840" stroke-linecap="round" stroke-width="2" d="M200.147 119.13c1.128 1.085 2.337 2.163 3.826 2.674 1.481.503 3.314.303 4.339-.878M107.963 239.617c-7.229 1.014-13.649 5.636-17.811 11.615-4.163 5.979-6.22 13.211-6.973 20.451-1.408 13.722 2.394 28.793 13.152 37.454 8.83 7.104 20.805 8.868 32.148 8.972 11.343.112 22.814-1.149 33.957 1.006 5.547 1.07 11.006 2.993 16.666 3.001 6.284.008 12.183-2.315 17.747-5.404 2.737-1.524 5.395-3.233 7.972-4.949 2.57-1.7 5.244-3.56 6.532-6.362 1.449-3.145.817-6.586-.616-9.834-.848-1.932-1.977-3.792-3.13-5.492-2.473-3.648-5.267-7.36-9.302-9.148-3.218-1.421-6.86-1.453-10.286-2.275-2.994-.719-5.803-2.028-8.653-3.193a52.603 52.603 0 00-2.834-1.062 34.513 34.513 0 00-11.095-1.796c-3.233 0-6.475.455-9.581 1.357"/><path stroke="#111840" stroke-linecap="round" stroke-width="2" d="M168.623 284.406c-4.363-.439-8.461-2.986-10.783-6.69-1.192-1.891-1.961-4.095-3.57-5.651-.88-.854-1.961-1.461-3.026-2.068-3.554-1.995-7.164-4.015-11.118-5.013-4.243-1.061-8.91-.966-12.664-3.209m-11.255-23.947c9.502-.918 18.651-1.301 27.825-1.157 7.805.119 15.626.614 23.694 1.484 6.124.663 12.256 1.541 18.412 1.381 16.938-.447 33.188-8.908 49.51-4.358m-38.736 81.637c3.779.486 7.549.965 11.319 1.444 1.841.24 3.69.479 5.467 1.03 1.385.431 2.73 1.062 4.179 1.269 2.233.328 4.499-.383 6.756-.255 4.139.223 7.573 3.129 11.439 4.59 5.355 2.027 11.335 1.213 16.962 2.235 1.913.343 3.819.91 5.764.87 1.945-.032 4.026-.806 4.987-2.491m-6.884-1.756c1.569-.327 3.026.846 4.594 1.214a4.42 4.42 0 002.138-.048c1.409-.351 2.665-1.349 3.226-2.682m-8.942-2.674c2.898-1.054 5.892 1.947 8.91 1.716a3.08 3.08 0 00.536-.072c1.329-.279 2.409-1.237 3.274-2.275m-9.886-3.425a10.563 10.563 0 015.363.408c1.033.351 2.001.87 3.042 1.197.496.16 1.033.271 1.561.295.56.024 1.121-.048 1.633-.263 1.009-.423 1.777-1.525 1.545-2.586-.176-.799-.809-1.334-1.561-1.717-.48-.239-1.017-.423-1.513-.574-1.481-.447-2.97-.887-4.451-1.334-.424-.59.072-1.468.745-1.74.68-.271 1.433-.143 2.161-.103a9.158 9.158 0 004.059-.671c1.048-.423 2.089-1.15 2.369-2.243.328-1.277-.568-2.618-1.737-3.257-1.169-.631-2.538-.718-3.866-.79-1.753-.104-5.788-1.405-7.533-1.509-9.342-1.517-31.771 4.079-46.26-1.525-2.033-.782-3.754-2.227-5.467-3.576m-31.483-20.052s.008 0 .008-.008c3.834-2.147 5.971-3.64 10.318-4.39 6.156-1.062 12.672-.671 18.387-3.177 5.515-2.419 9.702-7.296 15.313-9.483 4.787-1.868 10.11-1.589 15.242-1.277m-73.189 15.47c4.923-.942 10.166-6.674 14.065-9.819 7.316-5.891 19.051-3.592 26.071-9.826"/><path stroke="#111840" stroke-linecap="round" stroke-width="2" d="M272.335 312.839c2.418-.926 2.738-.327 4.779-.567 2.578-.311 5.019-1.325 7.397-2.379a186.818 186.818 0 0011.711-5.699c4.234-2.243 8.621-4.909 10.654-9.236 1.425-3.033 1.497-6.506 1.537-9.858.04-3.153.072-6.331-.496-9.428-2.178-11.965-12.52-20.467-22.206-27.875-.056-.04-.104-.079-.16-.119M147.107 95.435c.504-.902 1.953-.806 2.682-.071.72.742.92 1.828 1.088 2.85a7380 7380 0 01.841 5.188c.104.654.216 1.317.128 1.98-.08.614-.328 1.189-.576 1.756-.961 2.251-1.922 4.494-2.89 6.745-.473 1.102-.953 2.211-1.649 3.185-.817 1.157-1.913 2.083-2.834 3.161-3.17 3.752-3.81 8.821-4.01 13.826-.04 1.101-.056 2.203-.08 3.281a254.363 254.363 0 01-1.465 22.989c-.176 1.684-.393 3.409-1.137 4.925-1.313 2.69-4.05 4.335-6.644 5.836-1.017.582-2.049 1.173-3.194 1.428-2.377.535-4.899-.502-6.676-2.171-1.777-1.668-2.93-3.879-3.914-6.106-1.978-4.447-3.467-9.18-3.611-14.05v-.056m30.867 86.467a21.254 21.254 0 001.025-9.18l-1.025 9.18zM320.435 132.571a20.563 20.563 0 004.643-4.957M148.435 258.127c9.758-1.979 19.308-4.901 28.833-7.822 4.539-1.389 9.078-2.778 13.625-4.167m38.391 22.263c5.571-3.896 11.135-5.971 17.939-5.827M48.646 126.058l4.195 4.613-4.195-4.613z"/><path fill="#E4492F" fill-rule="evenodd" d="M37.366 34.607H8.8l5.607 57.79L37.365 99.1l22.939-6.704 5.79-57.79" clip-rule="evenodd"/><path fill="#131741" fill-rule="evenodd" d="M15.339 91.67l22.008 6.319 21.99-6.32 5.626-56.134H9.933l5.406 56.134zm22.026 8.541l-23.889-6.866-5.972-59.63h59.705l-5.954 59.63-23.89 6.866z" clip-rule="evenodd"/><path fill="#E96D31" fill-rule="evenodd" d="M55.804 89.063l4.858-50.177H37.139v55.185" clip-rule="evenodd"/><path fill="#EEEDEC" fill-rule="evenodd" d="M45.54 76.424l-8.401 3.35-8.201-2.604v-5.572l-7.671-.2.931 10.964 14.757 4.826 15.087-4.462 1.881-21.947H27.257l-.749-7.413H54.49l.384-7.267h-36l2.065 21.747h24.62" clip-rule="evenodd"/><path fill="#E5A229" fill-rule="evenodd" d="M260.173 202.744h-28.565l5.608 57.79 22.957 6.702 22.94-6.702 5.791-57.79" clip-rule="evenodd"/><path fill="#131741" fill-rule="evenodd" d="M238.146 259.806l22.009 6.319 21.989-6.319 5.626-56.133h-55.03l5.406 56.133zm22.026 8.542l-23.888-6.867-5.973-59.629h59.705l-5.954 59.629-23.89 6.867z" clip-rule="evenodd"/><path fill="#F0BD1E" fill-rule="evenodd" d="M279.002 257.201l4.859-50.175h-23.524v55.184" clip-rule="evenodd"/><path fill="#EEEDEC" fill-rule="evenodd" d="M257.386 255.055l-14.651-5.929-.942-10.903 5.71 1.002.52 6.01 3.759 1.522v-27.116h-6.499l-.608-5.588h12.711v41.002zm5.737 0v-14.593h5.603v6.295l3.76-1.522.893-10.324-10.256-.033v-20.825h17.89l-.521 5.588h-11.766v9.668l10.758.034-1.709 19.783" clip-rule="evenodd"/><path fill="#0066A9" fill-rule="evenodd" d="M350.785 34.002h-29.077l5.898 58.568 23.179 6.793 23.179-6.793 5.898-58.568" clip-rule="evenodd"/><path fill="#111840" fill-rule="evenodd" d="M328.558 91.844l22.227 6.42 22.228-6.42 5.71-56.874h-55.857l5.692 56.874zm22.227 8.487l-24.131-6.98-5.897-60.28H381l-5.879 60.28-24.336 6.98z" clip-rule="evenodd"/><path fill="#13A1D1" fill-rule="evenodd" d="M369.989 89.202l4.741-50.62h-23.739v55.533" clip-rule="evenodd"/><path fill="#FEFEFE" fill-rule="evenodd" d="M350.785 87.303l-14.631-4.169-1.157-11.892 7.035-.186.392 6.216 8.174 2.642 8.734-3.592v-8.505l-24.69-.353-.766-6.793 17.674-7.388-18.065-.373-.56-6.792h35.907l-.187 7.183-17.487 7.184 16.35.205-1.718 22.257" clip-rule="evenodd"/></svg>