<svg xmlns="http://www.w3.org/2000/svg" width="92" height="91" viewBox="0 0 92 91"><g fill="none" fill-rule="evenodd"><path fill="#D5DCF1" d="M53.5 59.13h9v-9h-9zM41.5 59.13h9v-9h-9zM29.5 59.13h9v-9h-9zM53.5 47.13h9v-9h-9zM41.5 47.13h9v-9h-9zM29.5 47.13h9v-9h-9z"/><path fill="#F97226" d="M29.5 22.13h12v-3h-12z"/><path fill="#2F88D1" d="M29.5 22.13h12v-3h-12v3zm42.08-6v11H20.5v-22h51.08v11z"/><path fill="#FFFFFF" d="M29.5 47.13h9v-9h-9v9zm0 12h9v-9h-9v9zm12-12h9v-9h-9v9zm0 12h9v-9h-9v9zm12-12h9v-9h-9v9zm0 12h9v-9h-9v9zm18.08 10.58v.09H20.5V27.13h51.08v42.58zM45.5 77.13c1.1 0 2 .9 2 2s-.9 2-2 2-2-.9-2-2 .9-2 2-2"/><path fill="#EFB341" d="M91 45.51c0 6.97-1.59 13.59-4.42 19.48V33.82a4.31 4.31 0 0 0-4.31-4.31H74.5V18.6c0-1.37-1.1-2.47-2.47-2.47h-.45V8.59h.17C83.39 16.73 91 30.23 91 45.51"/><path fill="#D5DCF1" d="M47.5 79.13c0-1.1-.9-2-2-2s-2 .9-2 2 .9 2 2 2 2-.9 2-2zm-24.28 5.19H9.9c-2.39 0-4.32-1.93-4.32-4.31V73.3h81v6.71a4.31 4.31 0 0 1-4.31 4.31H23.22z"/><path fill="#20438E" d="M86.58 64.99v8.31h-81V33.82c0-2.38 1.93-4.31 4.32-4.31h7.6v3.95H9.33V69.8h73.84V33.46H74.5v-3.95h7.77a4.31 4.31 0 0 1 4.31 4.31v31.17z"/><path fill="#F97226" d="M83.17 33.46V69.8H74.5V33.46h.54z"/><path fill="#D5DCF1" d="M74.5 69.13v.67h-2.92V16.13h.45c1.37 0 2.47 1.1 2.47 2.47v50.53z"/><path fill="#EFB341" d="M57.5 84.32h11.28a43.995 43.995 0 0 1-11.28 4.69v-4.69zM65.51 4.94v.19H26.29v-.09A44.87 44.87 0 0 1 46 .51c6.99 0 13.61 1.59 19.51 4.43"/><path fill="#20438E" d="M57.5 84.51v4.5c-3.66.98-7.53 1.5-11.5 1.5a45.2 45.2 0 0 1-12-1.62v-4.57h23.5v.19z"/><path fill="#EFB341" d="M34 84.51v4.38a45.166 45.166 0 0 1-10.78-4.57H34v.19z"/><path fill="#D5DCF1" d="M20.5 69.71v.09h-3V18.6c0-1.37 1.1-2.47 2.47-2.47h.53v53.58z"/><path fill="#EFB341" d="M20.5 8.54v7.59h-.53c-1.37 0-2.47 1.1-2.47 2.47v10.91H9.9c-2.39 0-4.32 1.93-4.32 4.31v31.06h-.21A44.878 44.878 0 0 1 1 45.51C1 30.19 8.65 16.67 20.33 8.54h.17z"/><path fill="#F97226" d="M17.5 69.13v.67H9.33V33.46h8.17z"/><path stroke="#2E3358" stroke-linecap="round" stroke-linejoin="round" d="M16.83 29.51H9.9c-2.39 0-4.32 1.93-4.32 4.31v46.19c0 2.38 1.93 4.31 4.32 4.31h72.37a4.31 4.31 0 0 0 4.31-4.31V33.82a4.31 4.31 0 0 0-4.31-4.31h-7.23"/><path stroke="#2E3358" stroke-linecap="round" stroke-linejoin="round" d="M5.37 64.88A44.878 44.878 0 0 1 1 45.51C1 30.19 8.65 16.67 20.33 8.54M68.82 84.3c-.01.01-.03.02-.04.02a44.03 44.03 0 0 1-11.28 4.69c-3.66.98-7.53 1.5-11.5 1.5a45.2 45.2 0 0 1-12-1.62 45.207 45.207 0 0 1-10.78-4.57c-.02-.01-.05-.03-.07-.04M71.75 8.59C83.39 16.73 91 30.23 91 45.51c0 6.97-1.59 13.59-4.42 19.48 0 .01-.01.01-.01.02M26.29 5.04A44.87 44.87 0 0 1 46 .51c6.99 0 13.61 1.59 19.51 4.43M34 84.51v4.5M57.5 84.51v4.5M5.67 73.3h81"/><path stroke="#2E3358" stroke-linecap="round" stroke-linejoin="round" d="M16.92 33.46H9.33V69.8h73.84V33.46h-8.13"/><path stroke="#2E3358" stroke-linecap="round" stroke-linejoin="round" d="M20.5 16.13h-.53c-1.37 0-2.47 1.1-2.47 2.47v50.53M74.5 69.13V18.6c0-1.37-1.1-2.47-2.47-2.47h-.5"/><path stroke="#2E3358" stroke-linecap="round" stroke-linejoin="round" d="M71.58 69.71V5.13H20.5v64.58M20.5 27.13h51M29.5 33.13h16M29.5 63.13h33M29.5 12.13h30M29.5 15.13h18"/><path stroke="#2E3358" stroke-linecap="round" stroke-linejoin="round" d="M29.5 22.13h12v-3h-12zM29.5 47.13h9v-9h-9zM53.5 47.13h9v-9h-9zM41.5 47.13h9v-9h-9zM29.5 59.13h9v-9h-9zM53.5 59.13h9v-9h-9zM41.5 59.13h9v-9h-9zM47.5 79.13c0 1.1-.9 2-2 2s-2-.9-2-2 .9-2 2-2 2 .9 2 2z"/></g></svg>